<?xml version="1.0" encoding="utf-8"?>
<!-- Generator: Adobe Illustrator 25.2.1, SVG Export Plug-In . SVG Version: 6.00 Build 0)  -->
<svg version="1.1" xmlns="http://www.w3.org/2000/svg" xmlns:xlink="http://www.w3.org/1999/xlink" x="0px" y="0px"
	 viewBox="0 0 42 47.322" style="enable-background:new 0 0 42 47.322;" xml:space="preserve">
<style type="text/css">
	.st0{fill:#1C213E;}
	.st1{opacity:0.12;}
	.st2{fill:none;}
	.st3{fill:#B96D00;}
</style>
<g id="Layer_5">
	<rect x="-16.068" y="-24.292" class="st0" width="73.771" height="96.004"/>
</g>
<g id="Layer_7">
	<g class="st1">
		<rect class="st2" width="42" height="47.322"/>
		<g>
			<path class="st3" d="M39.41,39.572h-0.5l0.05,0.5h0.51L39.41,39.572z M49.14,39.572l-0.13,0.5h5.61L44.2,63.662l-0.22,0.5h0.54
				l0.22-0.5l10.65-24.09H49.14z M42,69.152l-0.71-0.89l0.71,1.61l0.71-1.61L42,69.152z M39.8,63.662l-10.43-23.59h5.61l-0.13-0.5
				h-6.24l10.65,24.09l0.22,0.5h0.54L39.8,63.662z M44.59,39.572l-0.06,0.5h0.5l0.06-0.5H44.59z"/>
			<path class="st3" d="M40.71,61.902l-5.73-21.83l-0.13-0.5l-2.05-7.81h5.74l-0.05-0.5h-6.34l2.18,8.31l0.13,0.5l5.98,22.78
				l0.25,0.95l0.27-0.95L40.71,61.902z M45.51,31.262l-0.05,0.5h5.73l-2.05,7.81l-0.13,0.5l-5.72,21.83l-0.25,0.95l0.27,0.95
				l0.25-0.95l5.97-22.78l0.13-0.5l2.18-8.31H45.51z"/>
			<path class="st3" d="M44.53,40.072l-2.09,18.82l-0.15,1.31l0.36,1.27l0.15-1.31l2.23-20.09H44.53z M41.56,58.892l-2.09-18.82
				l-0.06-0.5l-0.87-7.81h-0.5l0.87,7.81l0.05,0.5l2.24,20.09l0.15,1.31l0.36-1.27L41.56,58.892z M41.56,58.892l-2.09-18.82
				l-0.06-0.5l-0.87-7.81h-0.5l0.87,7.81l0.05,0.5l2.24,20.09l0.15,1.31l0.36-1.27L41.56,58.892z M41.56,58.892l-2.09-18.82
				l-0.06-0.5l-0.87-7.81h-0.5l0.87,7.81l0.05,0.5l2.24,20.09l0.15,1.31l0.36-1.27L41.56,58.892z M37.25,24.692l0.73,6.57l0.06,0.5
				l0.87,7.81l0.05,0.5l2.24,20.09l0.15,1.31l0.36-1.27l-0.15-1.31l-2.09-18.82l-0.06-0.5l-0.87-7.81l-0.05-0.5l-0.68-6.07h8.38
				l-0.68,6.07l-0.05,0.5l-0.87,7.81l-0.06,0.5l-2.09,18.82l-0.15,1.31l0.36,1.27l0.15-1.31l2.23-20.09l0.06-0.5l0.86-7.81l0.06-0.5
				l0.73-6.57H37.25z M41.56,58.892l-2.09-18.82l-0.06-0.5l-0.87-7.81h-0.5l0.87,7.81l0.05,0.5l2.24,20.09l0.15,1.31l0.36-1.27
				L41.56,58.892z M41.56,58.892l-2.09-18.82l-0.06-0.5l-0.87-7.81h-0.5l0.87,7.81l0.05,0.5l2.24,20.09l0.15,1.31l0.36-1.27
				L41.56,58.892z M41.56,58.892l-2.09-18.82l-0.06-0.5l-0.87-7.81h-0.5l0.87,7.81l0.05,0.5l2.24,20.09l0.15,1.31l0.36-1.27
				L41.56,58.892z"/>
		</g>
		<g>
			<path class="st3" d="M-2.59,39.572h-0.5l0.05,0.5h0.51L-2.59,39.572z M7.14,39.572l-0.13,0.5h5.61L2.2,63.662l-0.22,0.5h0.54
				l0.22-0.5l10.65-24.09H7.14z M0,69.152l-0.71-0.89L0,69.872l0.71-1.61L0,69.152z M-2.2,63.662l-10.43-23.59h5.61l-0.13-0.5h-6.24
				l10.65,24.09l0.22,0.5h0.54L-2.2,63.662z M2.59,39.572l-0.06,0.5h0.5l0.06-0.5H2.59z"/>
			<path class="st3" d="M-1.29,61.902l-5.73-21.83l-0.13-0.5l-2.05-7.81h5.74l-0.05-0.5h-6.34l2.18,8.31l0.13,0.5l5.98,22.78
				l0.25,0.95l0.27-0.95L-1.29,61.902z M3.51,31.262l-0.05,0.5h5.73l-2.05,7.81l-0.13,0.5l-5.72,21.83l-0.25,0.95l0.27,0.95
				l0.25-0.95l5.97-22.78l0.13-0.5l2.18-8.31H3.51z"/>
			<path class="st3" d="M2.53,40.072l-2.09,18.82l-0.15,1.31l0.36,1.27l0.15-1.31l2.23-20.09H2.53z M-0.44,58.892l-2.09-18.82
				l-0.06-0.5l-0.87-7.81h-0.5l0.87,7.81l0.05,0.5l2.24,20.09l0.15,1.31l0.36-1.27L-0.44,58.892z M-0.44,58.892l-2.09-18.82
				l-0.06-0.5l-0.87-7.81h-0.5l0.87,7.81l0.05,0.5l2.24,20.09l0.15,1.31l0.36-1.27L-0.44,58.892z M-0.44,58.892l-2.09-18.82
				l-0.06-0.5l-0.87-7.81h-0.5l0.87,7.81l0.05,0.5l2.24,20.09l0.15,1.31l0.36-1.27L-0.44,58.892z M-4.75,24.692l0.73,6.57l0.06,0.5
				l0.87,7.81l0.05,0.5l2.24,20.09l0.15,1.31l0.36-1.27l-0.15-1.31l-2.09-18.82l-0.06-0.5l-0.87-7.81l-0.05-0.5l-0.68-6.07h8.38
				l-0.68,6.07l-0.05,0.5l-0.87,7.81l-0.06,0.5l-2.09,18.82l-0.15,1.31l0.36,1.27l0.15-1.31l2.23-20.09l0.06-0.5l0.86-7.81l0.06-0.5
				l0.73-6.57H-4.75z M-0.44,58.892l-2.09-18.82l-0.06-0.5l-0.87-7.81h-0.5l0.87,7.81l0.05,0.5l2.24,20.09l0.15,1.31l0.36-1.27
				L-0.44,58.892z M-0.44,58.892l-2.09-18.82l-0.06-0.5l-0.87-7.81h-0.5l0.87,7.81l0.05,0.5l2.24,20.09l0.15,1.31l0.36-1.27
				L-0.44,58.892z M-0.44,58.892l-2.09-18.82l-0.06-0.5l-0.87-7.81h-0.5l0.87,7.81l0.05,0.5l2.24,20.09l0.15,1.31l0.36-1.27
				L-0.44,58.892z"/>
		</g>
		<g>
			<path class="st3" d="M39.41-7.749h-0.5l0.05,0.5h0.51L39.41-7.749z M49.14-7.749l-0.13,0.5h5.61L44.2,16.341l-0.22,0.5h0.54
				l0.22-0.5l10.65-24.09H49.14z M42,21.831l-0.71-0.89l0.71,1.61l0.71-1.61L42,21.831z M39.8,16.341L29.37-7.249h5.61l-0.13-0.5
				h-6.24l10.65,24.09l0.22,0.5h0.54L39.8,16.341z M44.59-7.749l-0.06,0.5h0.5l0.06-0.5H44.59z"/>
			<path class="st3" d="M40.71,14.581l-5.73-21.83l-0.13-0.5l-2.05-7.81h5.74l-0.05-0.5h-6.34l2.18,8.31l0.13,0.5l5.98,22.78
				l0.25,0.95l0.27-0.95L40.71,14.581z M45.51-16.059l-0.05,0.5h5.73l-2.05,7.81l-0.13,0.5l-5.72,21.83l-0.25,0.95l0.27,0.95
				l0.25-0.95l5.97-22.78l0.13-0.5l2.18-8.31H45.51z"/>
			<path class="st3" d="M44.53-7.249l-2.09,18.82l-0.15,1.31l0.36,1.27l0.15-1.31l2.23-20.09H44.53z M41.56,11.571l-2.09-18.82
				l-0.06-0.5l-0.87-7.81h-0.5l0.87,7.81l0.05,0.5l2.24,20.09l0.15,1.31l0.36-1.27L41.56,11.571z M41.56,11.571l-2.09-18.82
				l-0.06-0.5l-0.87-7.81h-0.5l0.87,7.81l0.05,0.5l2.24,20.09l0.15,1.31l0.36-1.27L41.56,11.571z M41.56,11.571l-2.09-18.82
				l-0.06-0.5l-0.87-7.81h-0.5l0.87,7.81l0.05,0.5l2.24,20.09l0.15,1.31l0.36-1.27L41.56,11.571z M37.25-22.629l0.73,6.57l0.06,0.5
				l0.87,7.81l0.05,0.5l2.24,20.09l0.15,1.31l0.36-1.27l-0.15-1.31l-2.09-18.82l-0.06-0.5l-0.87-7.81l-0.05-0.5l-0.68-6.07h8.38
				l-0.68,6.07l-0.05,0.5l-0.87,7.81l-0.06,0.5l-2.09,18.82l-0.15,1.31l0.36,1.27l0.15-1.31l2.23-20.09l0.06-0.5l0.86-7.81l0.06-0.5
				l0.73-6.57H37.25z M41.56,11.571l-2.09-18.82l-0.06-0.5l-0.87-7.81h-0.5l0.87,7.81l0.05,0.5l2.24,20.09l0.15,1.31l0.36-1.27
				L41.56,11.571z M41.56,11.571l-2.09-18.82l-0.06-0.5l-0.87-7.81h-0.5l0.87,7.81l0.05,0.5l2.24,20.09l0.15,1.31l0.36-1.27
				L41.56,11.571z M41.56,11.571l-2.09-18.82l-0.06-0.5l-0.87-7.81h-0.5l0.87,7.81l0.05,0.5l2.24,20.09l0.15,1.31l0.36-1.27
				L41.56,11.571z"/>
			<path class="st3" d="M43.79,16.341l-0.23-0.81l-0.27-0.95l-0.49-1.74l-0.32-1.12l-0.04-0.15L42,10.021l-0.44,1.55l-0.04,0.15
				l-0.32,1.12l-0.49,1.74l-0.27,0.95l-0.23,0.81h-3.25l0.66,0.81l3.99,4.99l0.39,0.49l0.39-0.49l3.99-4.99l0.65-0.81H43.79z
				 M42.71,20.941L42,21.831l-0.71-0.89l-3.28-4.1h2.58l0.1-0.36l0.27-0.95l0.39-1.37v-0.01l0.36-1.27l0.29-1.03l0.29,1.03
				l0.36,1.27v0.01l0.39,1.37l0.27,0.95l0.1,0.36h2.58L42.71,20.941z"/>
		</g>
		<g>
			<path class="st3" d="M18.41,15.912h-0.5l0.05,0.5h0.51L18.41,15.912z M28.14,15.912l-0.13,0.5h5.61L23.2,40.001l-0.22,0.5h0.54
				l0.22-0.5l10.65-24.09H28.14z M21,45.491l-0.71-0.89l0.71,1.61l0.71-1.61L21,45.491z M18.8,40.001L8.37,16.412h5.61l-0.13-0.5
				H7.61l10.65,24.09l0.22,0.5h0.54L18.8,40.001z M23.59,15.912l-0.06,0.5h0.5l0.06-0.5H23.59z"/>
			<path class="st3" d="M19.71,38.241l-5.73-21.83l-0.13-0.5l-2.05-7.81h5.74l-0.05-0.5h-6.34l2.18,8.31l0.13,0.5l5.98,22.78
				l0.25,0.95l0.27-0.95L19.71,38.241z M24.51,7.602l-0.05,0.5h5.73l-2.05,7.81l-0.13,0.5l-5.72,21.83l-0.25,0.95l0.27,0.95
				l0.25-0.95l5.97-22.78l0.13-0.5l2.18-8.31H24.51z"/>
			<path class="st3" d="M23.53,16.412l-2.09,18.82l-0.15,1.31l0.36,1.27l0.15-1.31l2.23-20.09H23.53z M20.56,35.231l-2.09-18.82
				l-0.06-0.5l-0.87-7.81h-0.5l0.87,7.81l0.05,0.5l2.24,20.09l0.15,1.31l0.36-1.27L20.56,35.231z M20.56,35.231l-2.09-18.82
				l-0.06-0.5l-0.87-7.81h-0.5l0.87,7.81l0.05,0.5l2.24,20.09l0.15,1.31l0.36-1.27L20.56,35.231z M20.56,35.231l-2.09-18.82
				l-0.06-0.5l-0.87-7.81h-0.5l0.87,7.81l0.05,0.5l2.24,20.09l0.15,1.31l0.36-1.27L20.56,35.231z M16.25,1.032l0.73,6.57l0.06,0.5
				l0.87,7.81l0.05,0.5l2.24,20.09l0.15,1.31l0.36-1.27l-0.15-1.31l-2.09-18.82l-0.06-0.5l-0.87-7.81l-0.05-0.5l-0.68-6.07h8.38
				l-0.68,6.07l-0.05,0.5l-0.87,7.81l-0.06,0.5l-2.09,18.82l-0.15,1.31l0.36,1.27l0.15-1.31l2.23-20.09l0.06-0.5l0.86-7.81l0.06-0.5
				l0.73-6.57H16.25z M20.56,35.231l-2.09-18.82l-0.06-0.5l-0.87-7.81h-0.5l0.87,7.81l0.05,0.5l2.24,20.09l0.15,1.31l0.36-1.27
				L20.56,35.231z M20.56,35.231l-2.09-18.82l-0.06-0.5l-0.87-7.81h-0.5l0.87,7.81l0.05,0.5l2.24,20.09l0.15,1.31l0.36-1.27
				L20.56,35.231z M20.56,35.231l-2.09-18.82l-0.06-0.5l-0.87-7.81h-0.5l0.87,7.81l0.05,0.5l2.24,20.09l0.15,1.31l0.36-1.27
				L20.56,35.231z"/>
			<path class="st3" d="M22.79,40.001l-0.23-0.81l-0.27-0.95l-0.49-1.74l-0.32-1.12l-0.04-0.15L21,33.681l-0.44,1.55l-0.04,0.15
				l-0.32,1.12l-0.49,1.74l-0.27,0.95l-0.23,0.81h-3.25l0.66,0.81l3.99,4.99l0.39,0.49l0.39-0.49l3.99-4.99l0.65-0.81H22.79z
				 M21.71,44.602L21,45.491l-0.71-0.89l-3.28-4.1h2.58l0.1-0.36l0.27-0.95l0.39-1.37v-0.01l0.36-1.27l0.29-1.03l0.29,1.03
				l0.36,1.27v0.01l0.39,1.37l0.27,0.95l0.1,0.36h2.58L21.71,44.602z"/>
		</g>
		<g>
			<path class="st3" d="M-2.59-7.749h-0.5l0.05,0.5h0.51L-2.59-7.749z M7.14-7.749l-0.13,0.5h5.61L2.2,16.341l-0.22,0.5h0.54
				l0.22-0.5l10.65-24.09H7.14z M0,21.831l-0.71-0.89L0,22.551l0.71-1.61L0,21.831z M-2.2,16.341l-10.43-23.59h5.61l-0.13-0.5h-6.24
				l10.65,24.09l0.22,0.5h0.54L-2.2,16.341z M2.59-7.749l-0.06,0.5h0.5l0.06-0.5H2.59z"/>
			<path class="st3" d="M-1.29,14.581l-5.73-21.83l-0.13-0.5l-2.05-7.81h5.74l-0.05-0.5h-6.34l2.18,8.31l0.13,0.5l5.98,22.78
				l0.25,0.95l0.27-0.95L-1.29,14.581z M3.51-16.059l-0.05,0.5h5.73l-2.05,7.81l-0.13,0.5l-5.72,21.83l-0.25,0.95l0.27,0.95
				l0.25-0.95l5.97-22.78l0.13-0.5l2.18-8.31H3.51z"/>
			<path class="st3" d="M2.53-7.249l-2.09,18.82l-0.15,1.31l0.36,1.27l0.15-1.31l2.23-20.09H2.53z M-0.44,11.571l-2.09-18.82
				l-0.06-0.5l-0.87-7.81h-0.5l0.87,7.81l0.05,0.5l2.24,20.09l0.15,1.31l0.36-1.27L-0.44,11.571z M-0.44,11.571l-2.09-18.82
				l-0.06-0.5l-0.87-7.81h-0.5l0.87,7.81l0.05,0.5l2.24,20.09l0.15,1.31l0.36-1.27L-0.44,11.571z M-0.44,11.571l-2.09-18.82
				l-0.06-0.5l-0.87-7.81h-0.5l0.87,7.81l0.05,0.5l2.24,20.09l0.15,1.31l0.36-1.27L-0.44,11.571z M-4.75-22.629l0.73,6.57l0.06,0.5
				l0.87,7.81l0.05,0.5l2.24,20.09l0.15,1.31l0.36-1.27l-0.15-1.31l-2.09-18.82l-0.06-0.5l-0.87-7.81l-0.05-0.5l-0.68-6.07h8.38
				l-0.68,6.07l-0.05,0.5l-0.87,7.81l-0.06,0.5l-2.09,18.82l-0.15,1.31l0.36,1.27l0.15-1.31l2.23-20.09l0.06-0.5l0.86-7.81l0.06-0.5
				l0.73-6.57H-4.75z M-0.44,11.571l-2.09-18.82l-0.06-0.5l-0.87-7.81h-0.5l0.87,7.81l0.05,0.5l2.24,20.09l0.15,1.31l0.36-1.27
				L-0.44,11.571z M-0.44,11.571l-2.09-18.82l-0.06-0.5l-0.87-7.81h-0.5l0.87,7.81l0.05,0.5l2.24,20.09l0.15,1.31l0.36-1.27
				L-0.44,11.571z M-0.44,11.571l-2.09-18.82l-0.06-0.5l-0.87-7.81h-0.5l0.87,7.81l0.05,0.5l2.24,20.09l0.15,1.31l0.36-1.27
				L-0.44,11.571z"/>
			<path class="st3" d="M1.79,16.341l-0.23-0.81l-0.27-0.95l-0.49-1.74l-0.32-1.12l-0.04-0.15L0,10.021l-0.44,1.55l-0.04,0.15
				l-0.32,1.12l-0.49,1.74l-0.27,0.95l-0.23,0.81h-3.25l0.66,0.81l3.99,4.99L0,22.631l0.39-0.49l3.99-4.99l0.65-0.81H1.79z
				 M0.71,20.941L0,21.831l-0.71-0.89l-3.28-4.1h2.58l0.1-0.36l0.27-0.95l0.39-1.37v-0.01l0.36-1.27L0,11.851l0.29,1.03l0.36,1.27
				v0.01l0.39,1.37l0.27,0.95l0.1,0.36h2.58L0.71,20.941z"/>
		</g>
	</g>
</g>
</svg>
