<?xml version="1.0" encoding="utf-8"?>
<!-- Generator: Adobe Illustrator 25.2.1, SVG Export Plug-In . SVG Version: 6.00 Build 0)  -->
<svg version="1.1" xmlns="http://www.w3.org/2000/svg" xmlns:xlink="http://www.w3.org/1999/xlink" x="0px" y="0px"
	 viewBox="0 0 34.74 39.41" style="enable-background:new 0 0 34.74 39.41;" xml:space="preserve">
<style type="text/css">
	.st0{fill:#6DC9BA;}
	.st1{fill:#377C71;}
	.st2{fill:#F2F2F2;}
	.st3{fill:#B3B3B3;}
</style>
<g id="clipboard">
	<path class="st0" d="M25.72,8.02v20.11c0,2.35-1.91,4.26-4.26,4.26H4.26C1.91,32.39,0,30.48,0,28.13V8.02
		c0-2.35,1.91-4.26,4.26-4.26h6.84c0,0.96,0.79,1.75,1.76,1.75s1.76-0.79,1.76-1.75h6.84C23.81,3.76,25.72,5.67,25.72,8.02z"/>
	<path class="st1" d="M16.62,3.76c0-2.07-1.69-3.76-3.76-3.76S9.1,1.69,9.1,3.76H5.45V7.4c0,1.05,0.87,1.92,1.92,1.92h10.98
		c1.05,0,1.92-0.87,1.92-1.92V3.76H16.62z M12.86,2c0.97,0,1.76,0.79,1.76,1.76c0,0.96-0.79,1.75-1.76,1.75S11.1,4.72,11.1,3.76
		C11.1,2.79,11.89,2,12.86,2z"/>
</g>
<g id="paper">
	<g>
		<path class="st2" d="M34.74,22.46v12.69c0,2.35-1.91,4.26-4.26,4.26h-17.2c-2.35,0-4.26-1.91-4.26-4.26V15.04
			c0-2.35,1.91-4.26,4.26-4.26h9.37l3.1,3h-2l7.99,7.18v-1.4L34.74,22.46z"/>
		<path class="st3" d="M34.74,22.46l-7.42,0.26c-2.35,0.08-4.33-1.77-4.41-4.12l-0.26-7.82l3.1,3l5.99,5.78L34.74,22.46z"/>
	</g>
	<g id="Layer_7">
		<path class="st3" d="M30.404,30.126H13.356c-0.477,0-0.868-0.391-0.868-0.868v0c0-0.477,0.391-0.868,0.868-0.868h17.048
			c0.477,0,0.868,0.391,0.868,0.868v0C31.272,29.736,30.881,30.126,30.404,30.126z"/>
		<path class="st3" d="M30.404,26.126H13.356c-0.477,0-0.868-0.391-0.868-0.868v0c0-0.477,0.391-0.868,0.868-0.868h17.048
			c0.477,0,0.868,0.391,0.868,0.868v0C31.272,25.736,30.881,26.126,30.404,26.126z"/>
		<path class="st3" d="M20.18,22.126h-6.824c-0.477,0-0.868-0.391-0.868-0.868v0c0-0.477,0.391-0.868,0.868-0.868h6.824
			c0.477,0,0.868,0.391,0.868,0.868v0C21.048,21.736,20.658,22.126,20.18,22.126z"/>
		<path class="st3" d="M20.18,34.126h-6.824c-0.477,0-0.868-0.391-0.868-0.868l0,0c0-0.477,0.391-0.868,0.868-0.868h6.824
			c0.477,0,0.868,0.391,0.868,0.868l0,0C21.048,33.736,20.658,34.126,20.18,34.126z"/>
		<path class="st3" d="M20.18,18.126h-6.824c-0.477,0-0.868-0.391-0.868-0.868v0c0-0.477,0.391-0.868,0.868-0.868h6.824
			c0.477,0,0.868,0.391,0.868,0.868v0C21.048,17.736,20.658,18.126,20.18,18.126z"/>
	</g>
	<g>
	</g>
	<g>
	</g>
	<g>
	</g>
	<g>
	</g>
	<g>
	</g>
</g>
</svg>
