<?xml version="1.0" encoding="utf-8"?>
<!-- Generator: Adobe Illustrator 25.2.1, SVG Export Plug-In . SVG Version: 6.00 Build 0)  -->
<svg version="1.1" id="airplane" xmlns="http://www.w3.org/2000/svg" xmlns:xlink="http://www.w3.org/1999/xlink" x="0px" y="0px"
	 viewBox="0 0 45.683 17.984" style="enable-background:new 0 0 45.683 17.984;" xml:space="preserve">
<style type="text/css">
	.st0{fill:url(#SVGID_1_);stroke:#B96D00;stroke-width:0.5;stroke-linejoin:round;stroke-miterlimit:10;}
	.st1{fill:url(#SVGID_2_);stroke:#B96D00;stroke-width:0.5;stroke-linejoin:round;stroke-miterlimit:10;}
	.st2{fill:#ECECEC;stroke:#B96D00;stroke-width:0.5;stroke-linejoin:round;stroke-miterlimit:10;}
</style>
<linearGradient id="SVGID_1_" gradientUnits="userSpaceOnUse" x1="27.979" y1="16.0772" x2="24.3115" y2="1.4208" gradientTransform="matrix(-1 0 0 1 45.6827 0)">
	<stop  offset="0" style="stop-color:#6174A9"/>
	<stop  offset="0.1435" style="stop-color:#6979AC"/>
	<stop  offset="0.3676" style="stop-color:#7F88B3"/>
	<stop  offset="0.6428" style="stop-color:#A3A1C0"/>
	<stop  offset="0.8861" style="stop-color:#C9BACD"/>
</linearGradient>
<polygon class="st0" points="37.903,8.842 37.854,5.545 0.28,11.717 37.903,9.342 "/>
<linearGradient id="SVGID_2_" gradientUnits="userSpaceOnUse" x1="26.5915" y1="18.0686" x2="24.9689" y2="11.5838" gradientTransform="matrix(-1 0 0 1 45.6827 0)">
	<stop  offset="0.1139" style="stop-color:#BA9BC9"/>
	<stop  offset="0.3092" style="stop-color:#AC95C4"/>
	<stop  offset="0.6784" style="stop-color:#8684B6"/>
	<stop  offset="1" style="stop-color:#6174A9"/>
</linearGradient>
<path class="st1" d="M38.603,14.237l-0.3,3.497c-12.26-1.969-24.519-3.937-36.779-5.906C13.884,12.631,26.243,13.434,38.603,14.237z
	"/>
<polygon class="st2" points="40.049,8.013 0.28,11.717 45.433,16.001 "/>
<path class="st2" d="M37.838,5.537c-2.309-1.762-4.619-3.525-6.928-5.287C20.69,4.064,10.47,7.877,0.25,11.691
	C12.779,9.64,25.309,7.588,37.838,5.537z"/>
<g>
</g>
<g>
</g>
<g>
</g>
<g>
</g>
<g>
</g>
</svg>
