<svg xmlns="http://www.w3.org/2000/svg" viewBox="0 0 227.963 175.469">
  <defs>
    <style>
      .cls-1 {
        fill: #6dc9ba;
      }

      .cls-2 {
        fill: #5ae7bd;
      }

      .cls-3 {
        fill: #21213d;
      }

      .cls-4 {
        fill: #2f3533;
      }

      .cls-5 {
        fill: #ececec;
      }

      .cls-6 {
        fill: #15152f;
      }

      .cls-7 {
        fill: #b3b3b3;
      }

      .cls-8 {
        fill: #e6e6e6;
      }

      .cls-9 {
        fill: #666;
      }

      .cls-10, .cls-11 {
        fill: #1c213e;
      }

      .cls-10 {
        stroke: #b96d00;
        stroke-miterlimit: 10;
        stroke-width: 0.5px;
      }

      .cls-12 {
        fill: #b96d00;
      }
    </style>
  </defs>
  <g id="Layer_3" data-name="Layer 3">
    <path class="cls-1" d="M226.538,161.185a20.572,20.572,0,0,1-3.382,6.23,21.21,21.21,0,0,1-13.6,7.86c-.873.118-1.614.169-2.111.194H20.52c-.508-.025-1.238-.076-2.111-.194a21.21,21.21,0,0,1-13.6-7.86,20.572,20.572,0,0,1-3.382-6.23,24.451,24.451,0,0,1-1.414-7.666c.033,0,2.354,1.857,3.978,2.862,4.6,2.828,5.868,3.546,8.056,4.838,10.287,6.061,18.785,3.081,51.979,3.242,21.216.1,29.614,1.764,40.963-1.03a65.268,65.268,0,0,0,6.42-1.942c.9-.321,1.757-.65,2.575-.98.817.33,1.679.659,2.574.98a65.35,65.35,0,0,0,6.42,1.942c11.349,2.794,19.747,1.131,40.963,1.03,33.183-.161,41.692,2.819,51.979-3.242,2.188-1.292,3.459-2.01,8.056-4.838,1.624-1,3.945-2.862,3.978-2.862A24.451,24.451,0,0,1,226.538,161.185Z"/>
    <path class="cls-2" d="M226.394,158.45c-3.779,4.812-11.625,6.466-16.885,7.116H18.454c-5.26-.65-13.117-2.3-16.885-7.116-3.127-3.985-1.768-7.979,5.779-26.687C16.012,110.3,18.387,107.7,20.409,103.278c2.708-5.9,5.559-17.569,16.255-17.569H191.3c10.7,0,13.547,11.668,16.255,17.569,2.022,4.424,4.4,7.024,13.05,28.485C228.162,150.471,229.521,154.465,226.394,158.45Z"/>
    <path class="cls-3" d="M214.622,153.634c-2.115,2.324-5.651,3.7-9.156,4.519a39.793,39.793,0,0,1-9.077.98H31.572a39.8,39.8,0,0,1-9.072-.979c-3.509-.824-7.049-2.195-9.159-4.52-2.8-3.079-1.583-6.164,5.174-20.619,7.756-16.582,9.883-18.591,11.694-22.009,2.423-4.559,4.976-13.574,14.552-13.574H183.2c9.576,0,12.129,9.015,14.553,13.574,1.81,3.418,3.937,5.427,11.683,22.009C216.205,147.47,217.422,150.555,214.622,153.634Z"/>
    <path class="cls-2" d="M208.559,124.563H19.4c2.619-14.125,5.669-28.14,7.812-42.423,1.581-10.547,5.3-18.46,13.747-18.46H187c8.443,0,12.167,7.913,13.747,18.46C202.89,96.423,205.94,110.438,208.559,124.563Z"/>
  </g>
  <g id="paper">
    <rect class="cls-4" x="38.306" y="83.102" width="151.35" height="3.646"/>
    <rect class="cls-5" x="42.002" width="144.106" height="95.33" rx="1.823"/>
  </g>
  <g id="Layer_7" data-name="Layer 7">
    <path class="cls-2" d="M113.981,94.417l-.764,11.681-74.083-3.97c-.308-.016-.606-.039-.9-.062-5.929-.455-9.979-4.191-9.419-7.707.4-2.524,3.245-4.085,6.077-5.644C38,87,41.382,85.182,44.853,83.624c3.934-1.764,6.8-1.935,11.646-2.072,14.417-.407,28.961-.463,43.425-.463.39,0,.78,0,1.17,0,1.306.008,5.344.039,5.693.8a.368.368,0,0,1-.056.347c-.466.689-2.233.793-3.267.868-9.151.627-18.414.762-27.216,2.471a10.955,10.955,0,0,0-3.049.934c-1.848,1.006-1.735,2.493.645,3.163a.126.126,0,0,0,.043.016C82.566,91.712,97.259,93.521,113.981,94.417Z"/>
    <path class="cls-2" d="M113.981,94.417l.765,11.681,74.082-3.97c.309-.016.606-.039.9-.062,5.929-.455,9.979-4.191,9.419-7.707-.4-2.524-3.245-4.085-6.078-5.644-3.11-1.712-6.492-3.533-9.964-5.091-3.933-1.764-6.8-1.935-11.645-2.072-14.418-.407-28.961-.463-43.425-.463-.39,0-.78,0-1.17,0-1.306.008-5.344.039-5.693.8a.366.366,0,0,0,.056.347c.466.689,2.232.793,3.267.868,9.151.627,18.414.762,27.215,2.471a10.952,10.952,0,0,1,3.05.934c1.848,1.006,1.735,2.493-.645,3.163a.13.13,0,0,1-.044.016C145.4,91.712,130.7,93.521,113.981,94.417Z"/>
    <rect class="cls-2" x="113.908" y="94.419" width="0.148" height="0.911"/>
  </g>
  <g id="key_stems" data-name="key stems">
    <rect class="cls-6" x="51.436" y="117.821" width="0.958" height="4.939"/>
    <rect class="cls-6" x="65.185" y="117.821" width="0.958" height="4.939"/>
    <rect class="cls-6" x="78.944" y="117.821" width="0.958" height="4.939"/>
    <rect class="cls-6" x="92.739" y="117.821" width="0.958" height="4.939"/>
    <rect class="cls-6" x="106.428" y="117.821" width="0.958" height="4.939"/>
    <rect class="cls-6" x="120.177" y="117.821" width="0.958" height="4.939"/>
    <rect class="cls-6" x="133.925" y="117.821" width="0.958" height="4.939"/>
    <rect class="cls-6" x="147.674" y="117.821" width="0.958" height="4.939"/>
    <rect class="cls-6" x="161.422" y="117.821" width="0.958" height="4.939"/>
    <rect class="cls-6" x="175.173" y="117.821" width="0.958" height="4.939"/>
  </g>
  <g id="keys_row_4" data-name="keys row 4">
    <g>
      <path class="cls-7" d="M57.51,144.7v.564a2.171,2.171,0,0,1-2.162,2.166H48.483a2.173,2.173,0,0,1-2.166-2.166V144.7a2.221,2.221,0,0,1,.483-1.358l0,0a4.19,4.19,0,0,1,1.671-.8h6.883a4.169,4.169,0,0,1,1.667.8l0,0a2.207,2.207,0,0,1,.326.565A2.05,2.05,0,0,1,57.51,144.7Z"/>
      <path class="cls-8" d="M57.36,143.985c0,1.031-2.439,1.868-5.445,1.868s-5.444-.837-5.444-1.868a.867.867,0,0,1,.006-.088,2.068,2.068,0,0,1,.323-.555l0,0a4.19,4.19,0,0,1,1.671-.8h.009a14.236,14.236,0,0,1,6.865,0h.009a4.169,4.169,0,0,1,1.667.8l0,0a2.207,2.207,0,0,1,.326.565A.342.342,0,0,1,57.36,143.985Z"/>
    </g>
    <g>
      <path class="cls-7" d="M181.247,144.7v.564a2.172,2.172,0,0,1-2.163,2.166h-6.865a2.173,2.173,0,0,1-2.166-2.166V144.7a2.221,2.221,0,0,1,.483-1.358l0,0a4.2,4.2,0,0,1,1.671-.8h6.883a4.181,4.181,0,0,1,1.668.8l0,0a2.15,2.15,0,0,1,.326.565A2.033,2.033,0,0,1,181.247,144.7Z"/>
      <path class="cls-8" d="M181.1,143.985c0,1.031-2.438,1.868-5.444,1.868s-5.445-.837-5.445-1.868a.867.867,0,0,1,.006-.088,2.1,2.1,0,0,1,.323-.555l0,0a4.2,4.2,0,0,1,1.671-.8h.009a14.236,14.236,0,0,1,6.865,0h.009a4.181,4.181,0,0,1,1.668.8l0,0a2.15,2.15,0,0,1,.326.565A.342.342,0,0,1,181.1,143.985Z"/>
    </g>
    <g>
      <path class="cls-7" d="M167.5,144.7v.564a2.171,2.171,0,0,1-2.162,2.166h-6.865a2.173,2.173,0,0,1-2.166-2.166V144.7a2.221,2.221,0,0,1,.483-1.358l0,0a4.183,4.183,0,0,1,1.671-.8h6.883a4.169,4.169,0,0,1,1.667.8l0,0a2.207,2.207,0,0,1,.326.565A2.05,2.05,0,0,1,167.5,144.7Z"/>
      <path class="cls-8" d="M167.348,143.985c0,1.031-2.439,1.868-5.445,1.868s-5.444-.837-5.444-1.868a.867.867,0,0,1,.006-.088,2.068,2.068,0,0,1,.323-.555l0,0a4.183,4.183,0,0,1,1.671-.8h.009a14.236,14.236,0,0,1,6.865,0h.009a4.169,4.169,0,0,1,1.667.8l0,0a2.207,2.207,0,0,1,.326.565A.342.342,0,0,1,167.348,143.985Z"/>
    </g>
    <g>
      <path class="cls-7" d="M153.75,144.7v.564a2.172,2.172,0,0,1-2.163,2.166h-6.865a2.173,2.173,0,0,1-2.166-2.166V144.7a2.221,2.221,0,0,1,.483-1.358l0,0a4.2,4.2,0,0,1,1.671-.8H151.6a4.181,4.181,0,0,1,1.668.8l0,0a2.15,2.15,0,0,1,.326.565A2.033,2.033,0,0,1,153.75,144.7Z"/>
      <path class="cls-8" d="M153.6,143.985c0,1.031-2.438,1.868-5.444,1.868s-5.445-.837-5.445-1.868a.867.867,0,0,1,.006-.088,2.1,2.1,0,0,1,.323-.555l0,0a4.2,4.2,0,0,1,1.671-.8h.009a14.236,14.236,0,0,1,6.865,0h.009a4.181,4.181,0,0,1,1.668.8l0,0a2.15,2.15,0,0,1,.326.565A.342.342,0,0,1,153.6,143.985Z"/>
    </g>
    <g>
      <path class="cls-7" d="M140,144.7v.564a2.171,2.171,0,0,1-2.162,2.166h-6.865a2.173,2.173,0,0,1-2.166-2.166V144.7a2.221,2.221,0,0,1,.483-1.358l0,0a4.183,4.183,0,0,1,1.671-.8h6.883a4.169,4.169,0,0,1,1.667.8l0,0a2.207,2.207,0,0,1,.326.565A2.05,2.05,0,0,1,140,144.7Z"/>
      <path class="cls-8" d="M139.851,143.985c0,1.031-2.439,1.868-5.445,1.868s-5.444-.837-5.444-1.868a.867.867,0,0,1,.006-.088,2.068,2.068,0,0,1,.323-.555l0,0a4.183,4.183,0,0,1,1.671-.8h.009a14.236,14.236,0,0,1,6.865,0h.009a4.169,4.169,0,0,1,1.667.8l0,0a2.207,2.207,0,0,1,.326.565A.342.342,0,0,1,139.851,143.985Z"/>
    </g>
    <g>
      <path class="cls-7" d="M126.253,144.7v.564a2.172,2.172,0,0,1-2.163,2.166h-6.865a2.173,2.173,0,0,1-2.166-2.166V144.7a2.221,2.221,0,0,1,.483-1.358l0,0a4.2,4.2,0,0,1,1.671-.8H124.1a4.181,4.181,0,0,1,1.668.8l0,0a2.15,2.15,0,0,1,.326.565A2.033,2.033,0,0,1,126.253,144.7Z"/>
      <path class="cls-8" d="M126.1,143.985c0,1.031-2.438,1.868-5.444,1.868s-5.445-.837-5.445-1.868a.867.867,0,0,1,.006-.088,2.1,2.1,0,0,1,.323-.555l0,0a4.2,4.2,0,0,1,1.671-.8h.009a14.236,14.236,0,0,1,6.865,0h.009a4.181,4.181,0,0,1,1.668.8l0,0a2.15,2.15,0,0,1,.326.565A.342.342,0,0,1,126.1,143.985Z"/>
    </g>
    <g>
      <path class="cls-7" d="M112.5,144.7v.564a2.171,2.171,0,0,1-2.162,2.166h-6.865a2.173,2.173,0,0,1-2.166-2.166V144.7a2.221,2.221,0,0,1,.483-1.358l0,0a4.183,4.183,0,0,1,1.671-.8h6.883a4.169,4.169,0,0,1,1.667.8l0,0a2.207,2.207,0,0,1,.326.565A2.05,2.05,0,0,1,112.5,144.7Z"/>
      <path class="cls-8" d="M112.354,143.985c0,1.031-2.439,1.868-5.445,1.868s-5.444-.837-5.444-1.868a.867.867,0,0,1,.006-.088,2.068,2.068,0,0,1,.323-.555l0,0a4.183,4.183,0,0,1,1.671-.8h.009a14.236,14.236,0,0,1,6.865,0h.009a4.169,4.169,0,0,1,1.667.8l0,0a2.207,2.207,0,0,1,.326.565A.342.342,0,0,1,112.354,143.985Z"/>
    </g>
    <g>
      <path class="cls-7" d="M98.756,144.7v.564a2.172,2.172,0,0,1-2.163,2.166H89.728a2.172,2.172,0,0,1-2.165-2.166V144.7a2.213,2.213,0,0,1,.482-1.358l0,0a4.2,4.2,0,0,1,1.671-.8H96.6a4.181,4.181,0,0,1,1.668.8l0,0a2.15,2.15,0,0,1,.326.565A2.033,2.033,0,0,1,98.756,144.7Z"/>
      <path class="cls-8" d="M98.605,143.985c0,1.031-2.438,1.868-5.444,1.868s-5.445-.837-5.445-1.868a.867.867,0,0,1,.006-.088,2.1,2.1,0,0,1,.323-.555l0,0a4.2,4.2,0,0,1,1.671-.8h.009a14.236,14.236,0,0,1,6.865,0H96.6a4.181,4.181,0,0,1,1.668.8l0,0a2.15,2.15,0,0,1,.326.565A.342.342,0,0,1,98.605,143.985Z"/>
    </g>
    <g>
      <path class="cls-7" d="M85.007,144.7v.564a2.171,2.171,0,0,1-2.162,2.166H75.98a2.173,2.173,0,0,1-2.166-2.166V144.7a2.221,2.221,0,0,1,.483-1.358l0,0a4.183,4.183,0,0,1,1.671-.8h6.883a4.169,4.169,0,0,1,1.667.8l0,0a2.207,2.207,0,0,1,.326.565A2.05,2.05,0,0,1,85.007,144.7Z"/>
      <path class="cls-8" d="M84.857,143.985c0,1.031-2.439,1.868-5.445,1.868s-5.444-.837-5.444-1.868a.867.867,0,0,1,.006-.088,2.068,2.068,0,0,1,.323-.555l0,0a4.183,4.183,0,0,1,1.671-.8h.009a14.236,14.236,0,0,1,6.865,0h.009a4.169,4.169,0,0,1,1.667.8l0,0a2.207,2.207,0,0,1,.326.565A.342.342,0,0,1,84.857,143.985Z"/>
    </g>
    <g>
      <path class="cls-7" d="M71.259,144.7v.564A2.172,2.172,0,0,1,69.1,147.43H62.231a2.172,2.172,0,0,1-2.165-2.166V144.7a2.213,2.213,0,0,1,.482-1.358l0,0a4.2,4.2,0,0,1,1.671-.8h6.883a4.181,4.181,0,0,1,1.668.8l0,0a2.15,2.15,0,0,1,.326.565A2.033,2.033,0,0,1,71.259,144.7Z"/>
      <path class="cls-8" d="M71.108,143.985c0,1.031-2.438,1.868-5.444,1.868s-5.445-.837-5.445-1.868a.867.867,0,0,1,.006-.088,2.1,2.1,0,0,1,.323-.555l0,0a4.2,4.2,0,0,1,1.671-.8h.009a14.236,14.236,0,0,1,6.865,0h.009a4.181,4.181,0,0,1,1.668.8l0,0a2.15,2.15,0,0,1,.326.565A.342.342,0,0,1,71.108,143.985Z"/>
    </g>
  </g>
  <g id="keys_row_3" data-name="keys row 3">
    <g>
      <path class="cls-7" d="M63.043,135.053v.564a2.171,2.171,0,0,1-2.163,2.166H54.016a2.172,2.172,0,0,1-2.166-2.166v-.564a2.222,2.222,0,0,1,.483-1.357l0,0a4.171,4.171,0,0,1,1.67-.8H60.89a4.156,4.156,0,0,1,1.667.8l0,0a2.184,2.184,0,0,1,.326.564A2.054,2.054,0,0,1,63.043,135.053Z"/>
      <path class="cls-8" d="M62.893,134.339c0,1.031-2.439,1.868-5.445,1.868S52,135.37,52,134.339a.847.847,0,0,1,.007-.088,2.068,2.068,0,0,1,.323-.555l0,0a4.171,4.171,0,0,1,1.67-.8h.01a14.232,14.232,0,0,1,6.864,0h.01a4.156,4.156,0,0,1,1.667.8l0,0a2.184,2.184,0,0,1,.326.564A.351.351,0,0,1,62.893,134.339Z"/>
    </g>
    <g>
      <path class="cls-7" d="M49.27,135.053v.564a2.171,2.171,0,0,1-2.163,2.166H40.242a2.172,2.172,0,0,1-2.166-2.166v-.564a2.222,2.222,0,0,1,.483-1.357l0,0a4.183,4.183,0,0,1,1.671-.8h6.883a4.168,4.168,0,0,1,1.668.8l0,0a2.128,2.128,0,0,1,.326.564A2.055,2.055,0,0,1,49.27,135.053Z"/>
      <path class="cls-8" d="M49.119,134.339c0,1.031-2.439,1.868-5.445,1.868s-5.444-.837-5.444-1.868a.848.848,0,0,1,.006-.088,2.068,2.068,0,0,1,.323-.555l0,0a4.183,4.183,0,0,1,1.671-.8h.009a14.236,14.236,0,0,1,6.865,0h.009a4.168,4.168,0,0,1,1.668.8l0,0a2.128,2.128,0,0,1,.326.564A.351.351,0,0,1,49.119,134.339Z"/>
    </g>
    <g>
      <path class="cls-7" d="M187.006,135.053v.564a2.171,2.171,0,0,1-2.163,2.166h-6.864a2.172,2.172,0,0,1-2.166-2.166v-.564a2.068,2.068,0,0,1,.16-.8,2.092,2.092,0,0,1,.322-.555l0,0a4.171,4.171,0,0,1,1.67-.8h6.884a4.156,4.156,0,0,1,1.667.8l0,0a2.128,2.128,0,0,1,.326.564A2.036,2.036,0,0,1,187.006,135.053Z"/>
      <path class="cls-8" d="M186.856,134.339c0,1.031-2.439,1.868-5.445,1.868s-5.445-.837-5.445-1.868a.64.64,0,0,1,.007-.088,2.092,2.092,0,0,1,.322-.555l0,0a4.171,4.171,0,0,1,1.67-.8h.01a14.232,14.232,0,0,1,6.864,0h.01a4.156,4.156,0,0,1,1.667.8l0,0a2.128,2.128,0,0,1,.326.564A.3.3,0,0,1,186.856,134.339Z"/>
    </g>
    <g>
      <path class="cls-7" d="M173.232,135.053v.564a2.171,2.171,0,0,1-2.162,2.166h-6.865a2.172,2.172,0,0,1-2.166-2.166v-.564a2.222,2.222,0,0,1,.483-1.357l0,0a4.176,4.176,0,0,1,1.671-.8h6.883a4.168,4.168,0,0,1,1.668.8l0,0a2.156,2.156,0,0,1,.326.564A2.054,2.054,0,0,1,173.232,135.053Z"/>
      <path class="cls-8" d="M173.082,134.339c0,1.031-2.439,1.868-5.445,1.868s-5.444-.837-5.444-1.868a.848.848,0,0,1,.006-.088,2.068,2.068,0,0,1,.323-.555l0,0a4.176,4.176,0,0,1,1.671-.8h.009a14.236,14.236,0,0,1,6.865,0h.009a4.168,4.168,0,0,1,1.668.8l0,0a2.156,2.156,0,0,1,.326.564A.351.351,0,0,1,173.082,134.339Z"/>
    </g>
    <g>
      <path class="cls-7" d="M159.459,135.053v.564a2.171,2.171,0,0,1-2.163,2.166h-6.865a2.172,2.172,0,0,1-2.166-2.166v-.564a2.222,2.222,0,0,1,.483-1.357l0,0a4.183,4.183,0,0,1,1.671-.8h6.883a4.168,4.168,0,0,1,1.668.8l0,0a2.128,2.128,0,0,1,.326.564A2.036,2.036,0,0,1,159.459,135.053Z"/>
      <path class="cls-8" d="M159.308,134.339c0,1.031-2.438,1.868-5.444,1.868s-5.445-.837-5.445-1.868a.848.848,0,0,1,.006-.088,2.1,2.1,0,0,1,.323-.555l0,0a4.183,4.183,0,0,1,1.671-.8h.009a14.236,14.236,0,0,1,6.865,0h.009a4.168,4.168,0,0,1,1.668.8l0,0a2.128,2.128,0,0,1,.326.564A.351.351,0,0,1,159.308,134.339Z"/>
    </g>
    <g>
      <path class="cls-7" d="M145.685,135.053v.564a2.171,2.171,0,0,1-2.163,2.166h-6.864a2.172,2.172,0,0,1-2.166-2.166v-.564a2.222,2.222,0,0,1,.483-1.357l0,0a4.171,4.171,0,0,1,1.67-.8h6.884a4.156,4.156,0,0,1,1.667.8l0,0a2.128,2.128,0,0,1,.326.564A2.036,2.036,0,0,1,145.685,135.053Z"/>
      <path class="cls-8" d="M145.535,134.339c0,1.031-2.439,1.868-5.445,1.868s-5.445-.837-5.445-1.868a.847.847,0,0,1,.007-.088,2.068,2.068,0,0,1,.323-.555l0,0a4.171,4.171,0,0,1,1.67-.8h.01a14.232,14.232,0,0,1,6.864,0h.01a4.156,4.156,0,0,1,1.667.8l0,0a2.128,2.128,0,0,1,.326.564A.3.3,0,0,1,145.535,134.339Z"/>
    </g>
    <g>
      <path class="cls-7" d="M131.911,135.053v.564a2.171,2.171,0,0,1-2.162,2.166h-6.865a2.172,2.172,0,0,1-2.166-2.166v-.564a2.222,2.222,0,0,1,.483-1.357l0,0a4.183,4.183,0,0,1,1.671-.8h6.883a4.168,4.168,0,0,1,1.668.8l0,0a2.156,2.156,0,0,1,.326.564A2.054,2.054,0,0,1,131.911,135.053Z"/>
      <path class="cls-8" d="M131.761,134.339c0,1.031-2.439,1.868-5.445,1.868s-5.444-.837-5.444-1.868a.848.848,0,0,1,.006-.088,2.068,2.068,0,0,1,.323-.555l0,0a4.183,4.183,0,0,1,1.671-.8h.009a14.236,14.236,0,0,1,6.865,0h.009a4.168,4.168,0,0,1,1.668.8l0,0a2.156,2.156,0,0,1,.326.564A.351.351,0,0,1,131.761,134.339Z"/>
    </g>
    <g>
      <path class="cls-7" d="M118.138,135.053v.564a2.171,2.171,0,0,1-2.163,2.166H109.11a2.171,2.171,0,0,1-2.165-2.166v-.564a2.213,2.213,0,0,1,.482-1.357l0,0a4.183,4.183,0,0,1,1.671-.8h6.883a4.168,4.168,0,0,1,1.668.8l0,0a2.128,2.128,0,0,1,.326.564A2.036,2.036,0,0,1,118.138,135.053Z"/>
      <path class="cls-8" d="M117.987,134.339c0,1.031-2.438,1.868-5.444,1.868s-5.445-.837-5.445-1.868a.848.848,0,0,1,.006-.088,2.1,2.1,0,0,1,.323-.555l0,0a4.183,4.183,0,0,1,1.671-.8h.009a14.236,14.236,0,0,1,6.865,0h.009a4.168,4.168,0,0,1,1.668.8l0,0a2.128,2.128,0,0,1,.326.564A.351.351,0,0,1,117.987,134.339Z"/>
    </g>
    <g>
      <path class="cls-7" d="M104.364,135.053v.564a2.171,2.171,0,0,1-2.163,2.166H95.337a2.172,2.172,0,0,1-2.166-2.166v-.564a2.222,2.222,0,0,1,.483-1.357l0,0a4.171,4.171,0,0,1,1.67-.8h6.884a4.156,4.156,0,0,1,1.667.8l0,0a2.128,2.128,0,0,1,.326.564A2.036,2.036,0,0,1,104.364,135.053Z"/>
      <path class="cls-8" d="M104.214,134.339c0,1.031-2.439,1.868-5.445,1.868s-5.445-.837-5.445-1.868a.847.847,0,0,1,.007-.088,2.068,2.068,0,0,1,.323-.555l0,0a4.171,4.171,0,0,1,1.67-.8h.01a14.232,14.232,0,0,1,6.864,0h.01a4.156,4.156,0,0,1,1.667.8l0,0a2.128,2.128,0,0,1,.326.564A.3.3,0,0,1,104.214,134.339Z"/>
    </g>
    <g>
      <path class="cls-7" d="M90.591,135.053v.564a2.171,2.171,0,0,1-2.163,2.166H81.563a2.172,2.172,0,0,1-2.166-2.166v-.564a2.222,2.222,0,0,1,.483-1.357l0,0a4.183,4.183,0,0,1,1.671-.8h6.883a4.168,4.168,0,0,1,1.668.8l0,0a2.156,2.156,0,0,1,.326.564A2.055,2.055,0,0,1,90.591,135.053Z"/>
      <path class="cls-8" d="M90.44,134.339c0,1.031-2.439,1.868-5.445,1.868s-5.444-.837-5.444-1.868a.848.848,0,0,1,.006-.088,2.068,2.068,0,0,1,.323-.555l0,0a4.183,4.183,0,0,1,1.671-.8h.009a14.236,14.236,0,0,1,6.865,0h.009a4.168,4.168,0,0,1,1.668.8l0,0a2.156,2.156,0,0,1,.326.564A.351.351,0,0,1,90.44,134.339Z"/>
    </g>
    <g>
      <path class="cls-7" d="M76.817,135.053v.564a2.171,2.171,0,0,1-2.163,2.166H67.789a2.171,2.171,0,0,1-2.165-2.166v-.564a2.213,2.213,0,0,1,.482-1.357l0,0a4.183,4.183,0,0,1,1.671-.8h6.883a4.154,4.154,0,0,1,1.668.8l0,0a2.128,2.128,0,0,1,.326.564A2.036,2.036,0,0,1,76.817,135.053Z"/>
      <path class="cls-8" d="M76.666,134.339c0,1.031-2.438,1.868-5.444,1.868s-5.445-.837-5.445-1.868a.848.848,0,0,1,.006-.088,2.1,2.1,0,0,1,.323-.555l0,0a4.183,4.183,0,0,1,1.671-.8h.009a14.236,14.236,0,0,1,6.865,0h.009a4.154,4.154,0,0,1,1.668.8l0,0a2.128,2.128,0,0,1,.326.564A.351.351,0,0,1,76.666,134.339Z"/>
    </g>
  </g>
  <g id="keys_row_2" data-name="keys row 2">
    <g>
      <path class="cls-7" d="M57.43,125.13v.564a2.172,2.172,0,0,1-2.162,2.166H48.4a2.173,2.173,0,0,1-2.166-2.166v-.564a2.215,2.215,0,0,1,.483-1.357l0,0a4.183,4.183,0,0,1,1.671-.8h6.883a4.169,4.169,0,0,1,1.667.8l0,0a2.184,2.184,0,0,1,.326.564A2.05,2.05,0,0,1,57.43,125.13Z"/>
      <path class="cls-8" d="M57.28,124.415c0,1.031-2.439,1.868-5.445,1.868s-5.444-.837-5.444-1.868c0-.028,0-.059.006-.088a2.078,2.078,0,0,1,.323-.554l0,0a4.183,4.183,0,0,1,1.671-.8H48.4a14.236,14.236,0,0,1,6.865,0h.009a4.169,4.169,0,0,1,1.667.8l0,0a2.184,2.184,0,0,1,.326.564A.342.342,0,0,1,57.28,124.415Z"/>
    </g>
    <g>
      <path class="cls-7" d="M43.636,125.13v.564a2.172,2.172,0,0,1-2.163,2.166H34.609a2.173,2.173,0,0,1-2.166-2.166v-.564a2.077,2.077,0,0,1,.16-.8,2.1,2.1,0,0,1,.322-.554l0,0a4.185,4.185,0,0,1,1.67-.8h6.884a4.169,4.169,0,0,1,1.667.8l0,0a2.128,2.128,0,0,1,.326.564A2.033,2.033,0,0,1,43.636,125.13Z"/>
      <path class="cls-8" d="M43.486,124.415c0,1.031-2.439,1.868-5.445,1.868s-5.445-.837-5.445-1.868a.665.665,0,0,1,.007-.088,2.1,2.1,0,0,1,.322-.554l0,0a4.185,4.185,0,0,1,1.67-.8h.01a14.232,14.232,0,0,1,6.864,0h.01a4.169,4.169,0,0,1,1.667.8l0,0a2.128,2.128,0,0,1,.326.564A.3.3,0,0,1,43.486,124.415Z"/>
    </g>
    <g>
      <path class="cls-7" d="M181.578,125.13v.564a2.171,2.171,0,0,1-2.162,2.166h-6.865a2.173,2.173,0,0,1-2.166-2.166v-.564a2.215,2.215,0,0,1,.483-1.357l0,0a4.19,4.19,0,0,1,1.671-.8h6.883a4.181,4.181,0,0,1,1.668.8l0,0a2.184,2.184,0,0,1,.326.564A2.05,2.05,0,0,1,181.578,125.13Z"/>
      <path class="cls-8" d="M181.428,124.415c0,1.031-2.439,1.868-5.445,1.868s-5.444-.837-5.444-1.868c0-.028,0-.059.006-.088a2.078,2.078,0,0,1,.323-.554l0,0a4.19,4.19,0,0,1,1.671-.8h.009a14.236,14.236,0,0,1,6.865,0h.009a4.181,4.181,0,0,1,1.668.8l0,0a2.184,2.184,0,0,1,.326.564A.342.342,0,0,1,181.428,124.415Z"/>
    </g>
    <g>
      <path class="cls-7" d="M195.373,125.13v.564a2.172,2.172,0,0,1-2.163,2.166h-6.865a2.173,2.173,0,0,1-2.166-2.166v-.564a2.215,2.215,0,0,1,.483-1.357l0,0a4.2,4.2,0,0,1,1.671-.8h6.883a4.181,4.181,0,0,1,1.668.8l0,0a2.156,2.156,0,0,1,.326.564A2.051,2.051,0,0,1,195.373,125.13Z"/>
      <path class="cls-8" d="M195.222,124.415c0,1.031-2.439,1.868-5.445,1.868s-5.444-.837-5.444-1.868c0-.028,0-.059.006-.088a2.078,2.078,0,0,1,.323-.554l0,0a4.2,4.2,0,0,1,1.671-.8h.009a14.236,14.236,0,0,1,6.865,0h.009a4.181,4.181,0,0,1,1.668.8l0,0a2.156,2.156,0,0,1,.326.564A.342.342,0,0,1,195.222,124.415Z"/>
    </g>
    <g>
      <path class="cls-7" d="M167.784,125.13v.564a2.172,2.172,0,0,1-2.163,2.166h-6.864a2.173,2.173,0,0,1-2.166-2.166v-.564a2.215,2.215,0,0,1,.483-1.357l0,0a4.185,4.185,0,0,1,1.67-.8h6.884a4.169,4.169,0,0,1,1.667.8l0,0a2.128,2.128,0,0,1,.326.564A2.033,2.033,0,0,1,167.784,125.13Z"/>
      <path class="cls-8" d="M167.634,124.415c0,1.031-2.439,1.868-5.445,1.868s-5.445-.837-5.445-1.868c0-.028,0-.059.007-.088a2.078,2.078,0,0,1,.323-.554l0,0a4.185,4.185,0,0,1,1.67-.8h.01a14.232,14.232,0,0,1,6.864,0h.01a4.169,4.169,0,0,1,1.667.8l0,0a2.128,2.128,0,0,1,.326.564A.3.3,0,0,1,167.634,124.415Z"/>
    </g>
    <g>
      <path class="cls-7" d="M153.99,125.13v.564a2.172,2.172,0,0,1-2.163,2.166h-6.864a2.172,2.172,0,0,1-2.166-2.166v-.564a2.207,2.207,0,0,1,.482-1.357l0,0a4.2,4.2,0,0,1,1.671-.8h6.883a4.167,4.167,0,0,1,1.668.8l0,0a2.128,2.128,0,0,1,.326.564A2.033,2.033,0,0,1,153.99,125.13Z"/>
      <path class="cls-8" d="M153.839,124.415c0,1.031-2.438,1.868-5.444,1.868s-5.445-.837-5.445-1.868c0-.028,0-.059.006-.088a2.105,2.105,0,0,1,.323-.554l0,0a4.2,4.2,0,0,1,1.671-.8h.01a14.232,14.232,0,0,1,6.864,0h.009a4.167,4.167,0,0,1,1.668.8l0,0a2.128,2.128,0,0,1,.326.564A.342.342,0,0,1,153.839,124.415Z"/>
    </g>
    <g>
      <path class="cls-7" d="M140.2,125.13v.564a2.172,2.172,0,0,1-2.163,2.166h-6.865A2.173,2.173,0,0,1,129,125.694v-.564a2.215,2.215,0,0,1,.483-1.357l0,0a4.2,4.2,0,0,1,1.671-.8h6.883a4.181,4.181,0,0,1,1.668.8l0,0a2.128,2.128,0,0,1,.326.564A2.051,2.051,0,0,1,140.2,125.13Z"/>
      <path class="cls-8" d="M140.045,124.415c0,1.031-2.438,1.868-5.444,1.868s-5.445-.837-5.445-1.868c0-.028,0-.059.006-.088a2.105,2.105,0,0,1,.323-.554l0,0a4.2,4.2,0,0,1,1.671-.8h.009a14.236,14.236,0,0,1,6.865,0h.009a4.181,4.181,0,0,1,1.668.8l0,0a2.128,2.128,0,0,1,.326.564A.342.342,0,0,1,140.045,124.415Z"/>
    </g>
    <g>
      <path class="cls-7" d="M126.4,125.13v.564a2.171,2.171,0,0,1-2.162,2.166h-6.865a2.173,2.173,0,0,1-2.166-2.166v-.564a2.215,2.215,0,0,1,.483-1.357l0,0a4.2,4.2,0,0,1,1.671-.8h6.883a4.181,4.181,0,0,1,1.668.8l0,0a2.156,2.156,0,0,1,.326.564A2.05,2.05,0,0,1,126.4,125.13Z"/>
      <path class="cls-8" d="M126.251,124.415c0,1.031-2.439,1.868-5.445,1.868s-5.444-.837-5.444-1.868c0-.028,0-.059.006-.088a2.078,2.078,0,0,1,.323-.554l0,0a4.2,4.2,0,0,1,1.671-.8h.009a14.236,14.236,0,0,1,6.865,0h.009a4.181,4.181,0,0,1,1.668.8l0,0a2.156,2.156,0,0,1,.326.564A.342.342,0,0,1,126.251,124.415Z"/>
    </g>
    <g>
      <path class="cls-7" d="M112.607,125.13v.564a2.172,2.172,0,0,1-2.163,2.166H103.58a2.173,2.173,0,0,1-2.166-2.166v-.564a2.215,2.215,0,0,1,.483-1.357l0,0a4.185,4.185,0,0,1,1.67-.8h6.884a4.169,4.169,0,0,1,1.667.8l0,0a2.184,2.184,0,0,1,.326.564A2.05,2.05,0,0,1,112.607,125.13Z"/>
      <path class="cls-8" d="M112.457,124.415c0,1.031-2.439,1.868-5.445,1.868s-5.445-.837-5.445-1.868c0-.028,0-.059.007-.088a2.078,2.078,0,0,1,.323-.554l0,0a4.185,4.185,0,0,1,1.67-.8h.01a14.232,14.232,0,0,1,6.864,0h.01a4.169,4.169,0,0,1,1.667.8l0,0a2.184,2.184,0,0,1,.326.564A.342.342,0,0,1,112.457,124.415Z"/>
    </g>
    <g>
      <path class="cls-7" d="M98.813,125.13v.564a2.172,2.172,0,0,1-2.163,2.166H89.786a2.172,2.172,0,0,1-2.166-2.166v-.564a2.077,2.077,0,0,1,.16-.8,2.1,2.1,0,0,1,.322-.554l0,0a4.185,4.185,0,0,1,1.67-.8H96.66a4.169,4.169,0,0,1,1.667.8l0,0a2.128,2.128,0,0,1,.326.564A2.033,2.033,0,0,1,98.813,125.13Z"/>
      <path class="cls-8" d="M98.663,124.415c0,1.031-2.439,1.868-5.445,1.868s-5.445-.837-5.445-1.868a.665.665,0,0,1,.007-.088,2.1,2.1,0,0,1,.322-.554l0,0a4.185,4.185,0,0,1,1.67-.8h.01a14.232,14.232,0,0,1,6.864,0h.01a4.169,4.169,0,0,1,1.667.8l0,0a2.128,2.128,0,0,1,.326.564A.3.3,0,0,1,98.663,124.415Z"/>
    </g>
    <g>
      <path class="cls-7" d="M85.019,125.13v.564a2.172,2.172,0,0,1-2.163,2.166H75.991a2.173,2.173,0,0,1-2.166-2.166v-.564a2.215,2.215,0,0,1,.483-1.357l0,0a4.2,4.2,0,0,1,1.671-.8h6.883a4.181,4.181,0,0,1,1.668.8l0,0a2.128,2.128,0,0,1,.326.564A2.051,2.051,0,0,1,85.019,125.13Z"/>
      <path class="cls-8" d="M84.868,124.415c0,1.031-2.438,1.868-5.444,1.868s-5.445-.837-5.445-1.868c0-.028,0-.059.006-.088a2.105,2.105,0,0,1,.323-.554l0,0a4.2,4.2,0,0,1,1.671-.8h.009a14.236,14.236,0,0,1,6.865,0h.009a4.181,4.181,0,0,1,1.668.8l0,0a2.128,2.128,0,0,1,.326.564A.342.342,0,0,1,84.868,124.415Z"/>
    </g>
    <g>
      <path class="cls-7" d="M71.225,125.13v.564a2.172,2.172,0,0,1-2.163,2.166H62.2a2.173,2.173,0,0,1-2.166-2.166v-.564a2.215,2.215,0,0,1,.483-1.357l0,0a4.2,4.2,0,0,1,1.671-.8h6.883a4.181,4.181,0,0,1,1.668.8l0,0a2.156,2.156,0,0,1,.326.564A2.051,2.051,0,0,1,71.225,125.13Z"/>
      <path class="cls-8" d="M71.074,124.415c0,1.031-2.439,1.868-5.445,1.868s-5.444-.837-5.444-1.868c0-.028,0-.059.006-.088a2.078,2.078,0,0,1,.323-.554l0,0a4.2,4.2,0,0,1,1.671-.8H62.2a14.236,14.236,0,0,1,6.865,0h.009a4.181,4.181,0,0,1,1.668.8l0,0a2.156,2.156,0,0,1,.326.564A.342.342,0,0,1,71.074,124.415Z"/>
    </g>
  </g>
  <g id="keys_row_1" data-name="keys row 1">
    <g>
      <path class="cls-7" d="M57.51,115.418v.564a2.171,2.171,0,0,1-2.162,2.166H48.483a2.173,2.173,0,0,1-2.166-2.166v-.564a2.215,2.215,0,0,1,.483-1.357l0,0a4.176,4.176,0,0,1,1.671-.8h6.883a4.156,4.156,0,0,1,1.667.8l0,0a2.184,2.184,0,0,1,.326.564A2.05,2.05,0,0,1,57.51,115.418Z"/>
      <path class="cls-8" d="M57.36,114.7c0,1.031-2.439,1.868-5.445,1.868s-5.444-.837-5.444-1.868c0-.028,0-.059.006-.088a2.078,2.078,0,0,1,.323-.554l0,0a4.176,4.176,0,0,1,1.671-.8h.009a14.236,14.236,0,0,1,6.865,0h.009a4.156,4.156,0,0,1,1.667.8l0,0a2.184,2.184,0,0,1,.326.564A.342.342,0,0,1,57.36,114.7Z"/>
    </g>
    <g>
      <path class="cls-7" d="M181.247,115.418v.564a2.172,2.172,0,0,1-2.163,2.166h-6.865a2.173,2.173,0,0,1-2.166-2.166v-.564a2.215,2.215,0,0,1,.483-1.357l0,0a4.183,4.183,0,0,1,1.671-.8h6.883a4.168,4.168,0,0,1,1.668.8l0,0a2.128,2.128,0,0,1,.326.564A2.033,2.033,0,0,1,181.247,115.418Z"/>
      <path class="cls-8" d="M181.1,114.7c0,1.031-2.438,1.868-5.444,1.868s-5.445-.837-5.445-1.868c0-.028,0-.059.006-.088a2.105,2.105,0,0,1,.323-.554l0,0a4.183,4.183,0,0,1,1.671-.8h.009a14.236,14.236,0,0,1,6.865,0h.009a4.168,4.168,0,0,1,1.668.8l0,0a2.128,2.128,0,0,1,.326.564A.342.342,0,0,1,181.1,114.7Z"/>
    </g>
    <g>
      <path class="cls-7" d="M167.5,115.418v.564a2.171,2.171,0,0,1-2.162,2.166h-6.865a2.173,2.173,0,0,1-2.166-2.166v-.564a2.215,2.215,0,0,1,.483-1.357l0,0a4.169,4.169,0,0,1,1.671-.8h6.883a4.156,4.156,0,0,1,1.667.8l0,0a2.184,2.184,0,0,1,.326.564A2.05,2.05,0,0,1,167.5,115.418Z"/>
      <path class="cls-8" d="M167.348,114.7c0,1.031-2.439,1.868-5.445,1.868s-5.444-.837-5.444-1.868c0-.028,0-.059.006-.088a2.078,2.078,0,0,1,.323-.554l0,0a4.169,4.169,0,0,1,1.671-.8h.009a14.236,14.236,0,0,1,6.865,0h.009a4.156,4.156,0,0,1,1.667.8l0,0a2.184,2.184,0,0,1,.326.564A.342.342,0,0,1,167.348,114.7Z"/>
    </g>
    <g>
      <path class="cls-7" d="M153.75,115.418v.564a2.172,2.172,0,0,1-2.163,2.166h-6.865a2.173,2.173,0,0,1-2.166-2.166v-.564a2.215,2.215,0,0,1,.483-1.357l0,0a4.183,4.183,0,0,1,1.671-.8H151.6a4.168,4.168,0,0,1,1.668.8l0,0a2.128,2.128,0,0,1,.326.564A2.033,2.033,0,0,1,153.75,115.418Z"/>
      <path class="cls-8" d="M153.6,114.7c0,1.031-2.438,1.868-5.444,1.868s-5.445-.837-5.445-1.868c0-.028,0-.059.006-.088a2.105,2.105,0,0,1,.323-.554l0,0a4.183,4.183,0,0,1,1.671-.8h.009a14.236,14.236,0,0,1,6.865,0h.009a4.168,4.168,0,0,1,1.668.8l0,0a2.128,2.128,0,0,1,.326.564A.342.342,0,0,1,153.6,114.7Z"/>
    </g>
    <g>
      <path class="cls-7" d="M140,115.418v.564a2.171,2.171,0,0,1-2.162,2.166h-6.865a2.173,2.173,0,0,1-2.166-2.166v-.564a2.215,2.215,0,0,1,.483-1.357l0,0a4.169,4.169,0,0,1,1.671-.8h6.883a4.156,4.156,0,0,1,1.667.8l0,0a2.184,2.184,0,0,1,.326.564A2.05,2.05,0,0,1,140,115.418Z"/>
      <path class="cls-8" d="M139.851,114.7c0,1.031-2.439,1.868-5.445,1.868s-5.444-.837-5.444-1.868c0-.028,0-.059.006-.088a2.078,2.078,0,0,1,.323-.554l0,0a4.169,4.169,0,0,1,1.671-.8h.009a14.236,14.236,0,0,1,6.865,0h.009a4.156,4.156,0,0,1,1.667.8l0,0a2.184,2.184,0,0,1,.326.564A.342.342,0,0,1,139.851,114.7Z"/>
    </g>
    <g>
      <path class="cls-7" d="M126.253,115.418v.564a2.172,2.172,0,0,1-2.163,2.166h-6.865a2.173,2.173,0,0,1-2.166-2.166v-.564a2.215,2.215,0,0,1,.483-1.357l0,0a4.183,4.183,0,0,1,1.671-.8H124.1a4.168,4.168,0,0,1,1.668.8l0,0a2.128,2.128,0,0,1,.326.564A2.033,2.033,0,0,1,126.253,115.418Z"/>
      <path class="cls-8" d="M126.1,114.7c0,1.031-2.438,1.868-5.444,1.868s-5.445-.837-5.445-1.868c0-.028,0-.059.006-.088a2.105,2.105,0,0,1,.323-.554l0,0a4.183,4.183,0,0,1,1.671-.8h.009a14.236,14.236,0,0,1,6.865,0h.009a4.168,4.168,0,0,1,1.668.8l0,0a2.128,2.128,0,0,1,.326.564A.342.342,0,0,1,126.1,114.7Z"/>
    </g>
    <g>
      <path class="cls-7" d="M112.5,115.418v.564a2.171,2.171,0,0,1-2.162,2.166h-6.865a2.173,2.173,0,0,1-2.166-2.166v-.564a2.215,2.215,0,0,1,.483-1.357l0,0a4.169,4.169,0,0,1,1.671-.8h6.883a4.156,4.156,0,0,1,1.667.8l0,0a2.184,2.184,0,0,1,.326.564A2.05,2.05,0,0,1,112.5,115.418Z"/>
      <path class="cls-8" d="M112.354,114.7c0,1.031-2.439,1.868-5.445,1.868s-5.444-.837-5.444-1.868c0-.028,0-.059.006-.088a2.078,2.078,0,0,1,.323-.554l0,0a4.169,4.169,0,0,1,1.671-.8h.009a14.236,14.236,0,0,1,6.865,0h.009a4.156,4.156,0,0,1,1.667.8l0,0a2.184,2.184,0,0,1,.326.564A.342.342,0,0,1,112.354,114.7Z"/>
    </g>
    <g>
      <path class="cls-7" d="M98.756,115.418v.564a2.172,2.172,0,0,1-2.163,2.166H89.728a2.172,2.172,0,0,1-2.165-2.166v-.564a2.207,2.207,0,0,1,.482-1.357l0,0a4.183,4.183,0,0,1,1.671-.8H96.6a4.168,4.168,0,0,1,1.668.8l0,0a2.128,2.128,0,0,1,.326.564A2.033,2.033,0,0,1,98.756,115.418Z"/>
      <path class="cls-8" d="M98.605,114.7c0,1.031-2.438,1.868-5.444,1.868s-5.445-.837-5.445-1.868c0-.028,0-.059.006-.088a2.105,2.105,0,0,1,.323-.554l0,0a4.183,4.183,0,0,1,1.671-.8h.009a14.236,14.236,0,0,1,6.865,0H96.6a4.168,4.168,0,0,1,1.668.8l0,0a2.128,2.128,0,0,1,.326.564A.342.342,0,0,1,98.605,114.7Z"/>
    </g>
    <g>
      <path class="cls-7" d="M85.007,115.418v.564a2.171,2.171,0,0,1-2.162,2.166H75.98a2.173,2.173,0,0,1-2.166-2.166v-.564a2.215,2.215,0,0,1,.483-1.357l0,0a4.169,4.169,0,0,1,1.671-.8h6.883a4.156,4.156,0,0,1,1.667.8l0,0a2.184,2.184,0,0,1,.326.564A2.05,2.05,0,0,1,85.007,115.418Z"/>
      <path class="cls-8" d="M84.857,114.7c0,1.031-2.439,1.868-5.445,1.868s-5.444-.837-5.444-1.868c0-.028,0-.059.006-.088a2.078,2.078,0,0,1,.323-.554l0,0a4.169,4.169,0,0,1,1.671-.8h.009a14.236,14.236,0,0,1,6.865,0h.009a4.156,4.156,0,0,1,1.667.8l0,0a2.184,2.184,0,0,1,.326.564A.342.342,0,0,1,84.857,114.7Z"/>
    </g>
    <g>
      <path class="cls-7" d="M71.259,115.418v.564a2.172,2.172,0,0,1-2.163,2.166H62.231a2.172,2.172,0,0,1-2.165-2.166v-.564a2.207,2.207,0,0,1,.482-1.357l0,0a4.183,4.183,0,0,1,1.671-.8h6.883a4.168,4.168,0,0,1,1.668.8l0,0a2.128,2.128,0,0,1,.326.564A2.033,2.033,0,0,1,71.259,115.418Z"/>
      <path class="cls-8" d="M71.108,114.7c0,1.031-2.438,1.868-5.444,1.868s-5.445-.837-5.445-1.868c0-.028,0-.059.006-.088a2.105,2.105,0,0,1,.323-.554l0,0a4.183,4.183,0,0,1,1.671-.8h.009a14.236,14.236,0,0,1,6.865,0h.009a4.168,4.168,0,0,1,1.668.8l0,0a2.128,2.128,0,0,1,.326.564A.342.342,0,0,1,71.108,114.7Z"/>
    </g>
  </g>
  <g id="space_key" data-name="space key">
    <rect class="cls-3" x="65.93" y="150.121" width="95.971" height="13.086" rx="2.582"/>
    <path class="cls-7" d="M160.916,153.27v7.54a1.6,1.6,0,0,1-.21.81,1.761,1.761,0,0,1-.14.23,1.722,1.722,0,0,1-1.03.65,1.393,1.393,0,0,1-.35.04H68.646a1.393,1.393,0,0,1-.35-.04,1.736,1.736,0,0,1-1.38-1.69v-7.54a.41.41,0,0,1,.01-.11l.83,3.04a1,1,0,0,0,.54.83v-5.45a1.393,1.393,0,0,1,.35-.04h90.54a1.342,1.342,0,0,1,.35.04v5.45a1,1,0,0,0,.54-.83l.83-3.04A.41.41,0,0,1,160.916,153.27Z"/>
    <path class="cls-8" d="M160.916,153.11l-.01.04v.01l-.83,3.04c0,.61-.69,1.1-1.54,1.1H69.3a1.888,1.888,0,0,1-1-.27,1,1,0,0,1-.54-.83l-.83-3.04v-.01l-.01-.04a1.575,1.575,0,0,1,1.38-1.55.584.584,0,0,1,.19-.02h90.86A1.579,1.579,0,0,1,160.916,153.11Z"/>
    <g id="Layer_12" data-name="Layer 12">
      <path class="cls-9" d="M68.3,157.03v5.47a1.736,1.736,0,0,1-1.38-1.69v-7.7l.01.04v.01l.83,3.04A1,1,0,0,0,68.3,157.03Z"/>
      <path class="cls-9" d="M160.916,153.11v7.7a1.6,1.6,0,0,1-.21.81,1.761,1.761,0,0,1-.14.23,1.722,1.722,0,0,1-1.03.65v-5.47a1,1,0,0,0,.54-.83l.83-3.04v-.01Z"/>
    </g>
  </g>
  <g id="label">
    <rect class="cls-3" x="42.894" y="97.237" width="142.322" height="13.692" rx="2.401"/>
    <g id="Layer_19" data-name="Layer 19">
      <polygon class="cls-10" points="64.297 104.083 51.564 109.712 51.564 98.454 64.297 104.083"/>
      <polygon class="cls-10" points="63.669 104.083 47.966 108.202 47.966 99.963 63.669 104.083"/>
      <polygon class="cls-10" points="62.497 104.083 45.123 106.016 45.123 102.15 62.497 104.083"/>
      <g>
        <polygon class="cls-11" points="61.844 104.882 59.018 104.086 61.844 103.284 61.844 101.833 64.652 104.085 61.844 106.331 61.844 104.882"/>
        <path class="cls-12" d="M62.094,102.355l2.158,1.73-2.158,1.726v-1.118l-2.157-.608,2.157-.612v-1.118m-.5-1.042V103.1L59.8,103.6l-1.7.482,1.7.48,1.793.5v1.78l.813-.65,2.157-1.726.488-.39-.487-.39-2.158-1.73-.813-.652Z"/>
      </g>
    </g>
    <g id="Layer_20" data-name="Layer 20">
      <polygon class="cls-10" points="163.804 104.083 176.538 109.712 176.538 98.454 163.804 104.083"/>
      <polygon class="cls-10" points="164.433 104.083 180.135 108.202 180.135 99.963 164.433 104.083"/>
      <polygon class="cls-10" points="165.605 104.083 182.978 106.016 182.978 102.15 165.605 104.083"/>
      <g>
        <polygon class="cls-11" points="163.45 104.085 166.257 101.833 166.257 103.284 169.083 104.086 166.257 104.882 166.257 106.331 163.45 104.085"/>
        <path class="cls-12" d="M166.007,102.355v1.118l2.158.612-2.158.608v1.118l-2.157-1.726,2.157-1.73m.5-1.042-.813.652-2.157,1.73-.487.39.487.39L165.7,106.2l.812.65v-1.78l1.793-.5,1.7-.48-1.7-.482-1.794-.509v-1.782Z"/>
      </g>
    </g>
    <g id="Layer_21" data-name="Layer 21">
      <circle class="cls-12" cx="45.123" cy="99.397" r="0.885"/>
      <circle class="cls-12" cx="45.123" cy="108.768" r="0.885"/>
      <circle class="cls-12" cx="182.978" cy="108.768" r="0.885"/>
      <circle class="cls-12" cx="182.978" cy="99.339" r="0.885"/>
    </g>
  </g>
</svg>
