<?xml version="1.0" encoding="utf-8"?>
<!-- Generator: Adobe Illustrator 25.2.1, SVG Export Plug-In . SVG Version: 6.00 Build 0)  -->
<svg version="1.1" xmlns="http://www.w3.org/2000/svg" xmlns:xlink="http://www.w3.org/1999/xlink" x="0px" y="0px"
	 viewBox="0 0 206.3 175.469" style="enable-background:new 0 0 206.3 175.469;" xml:space="preserve">
<style type="text/css">
	.st0{fill:#6DC9BA;}
	.st1{fill:#5AE7BD;}
	.st2{fill:#151516;}
	.st3{fill:#1A1A1A;}
	.st4{fill:#ECECEC;}
	.st5{fill:#B3B3B3;}
	.st6{fill:#E6E6E6;}
	.st7{display:none;fill:#B3B3B3;}
	.st8{display:none;fill:#E6E6E6;}
	.st9{fill:#666666;}
</style>
<g id="Layer_3">
	<path class="st0" d="M205.01,161.185c-0.49,1.537-1.27,3.723-3.06,6.231c-2.73,3.833-6.99,7.007-12.31,7.86
		c-0.79,0.118-1.46,0.169-1.91,0.194H18.57c-0.46-0.025-1.12-0.076-1.91-0.194c-5.32-0.853-9.58-4.027-12.31-7.86
		c-1.79-2.507-2.57-4.694-3.06-6.231c-1.26-3.875-1.31-7.598-1.28-7.666c0.03,0,2.13,1.857,3.6,2.862
		c4.16,2.828,5.31,3.546,7.29,4.837c9.31,6.062,17,3.082,47.04,3.242c19.2,0.101,26.8,1.764,37.07-1.03
		c1.83-0.49,3.74-1.131,5.81-1.942c0.81-0.321,1.59-0.65,2.33-0.979c0.74,0.329,1.52,0.658,2.33,0.979
		c2.07,0.81,3.98,1.452,5.81,1.942c10.27,2.795,17.87,1.131,37.07,1.03c30.03-0.16,37.73,2.82,47.04-3.242
		c1.98-1.292,3.13-2.009,7.29-4.837c1.47-1.005,3.57-2.862,3.6-2.862C206.32,153.587,206.27,157.31,205.01,161.185z"/>
	<path class="st1" d="M204.88,158.45c-3.42,4.812-10.52,6.467-15.28,7.117H16.7c-4.76-0.65-11.87-2.305-15.28-7.117
		c-2.83-3.985-1.6-7.978,5.23-26.687c7.84-21.461,9.99-24.061,11.82-28.485c2.45-5.901,5.03-17.569,14.71-17.569H95
		c0,0,6.76,0,16.3,0h61.82c9.68,0,12.26,11.667,14.71,17.569c1.83,4.424,3.98,7.024,11.81,28.485
		C206.48,150.471,207.71,154.465,204.88,158.45z"/>
	<path class="st2" d="M194.227,153.634c-1.914,2.324-5.114,3.695-8.286,4.519c-2.656,0.69-5.435,0.98-8.215,0.98H28.572
		c-2.778,0-5.555-0.29-8.21-0.979c-3.175-0.824-6.379-2.195-8.288-4.52c-2.534-3.079-1.432-6.164,4.682-20.619
		c7.019-16.581,8.944-18.591,10.582-22.009c2.193-4.56,4.503-13.574,13.17-13.574h55.346c0,0,6.052,0,14.593,0h55.346
		c8.666,0,10.976,9.015,13.17,13.574c1.638,3.418,3.563,5.427,10.573,22.009C195.659,147.47,196.76,150.555,194.227,153.634z"/>
	<path class="st1" d="M188.74,124.563c0,0-42.79,0-85.59,0c-42.8,0-85.59,0-85.59,0c2.37-14.125,5.13-28.14,7.07-42.423
		c1.43-10.547,4.8-18.461,12.44-18.461h132.16c7.64,0,11.01,7.914,12.44,18.461C183.61,96.423,186.37,110.438,188.74,124.563z"/>
</g>
<g id="paper">
	<rect x="34.666" y="83.102" class="st3" width="136.968" height="3.646"/>
	<path class="st4" d="M166.6,95.33H39.834c-1.003,0-1.823-0.82-1.823-1.823V1.823C38.011,0.82,38.831,0,39.834,0H166.6
		c1.003,0,1.823,0.82,1.823,1.823v91.684C168.423,94.51,167.602,95.33,166.6,95.33z"/>
</g>
<g id="Layer_7">
	<path class="st1" d="M103.15,94.417l-0.692,11.681l-67.043-3.97c-0.279-0.017-0.549-0.039-0.818-0.062
		c-5.366-0.455-9.031-4.191-8.524-7.707c0.364-2.524,2.937-4.085,5.5-5.644c2.815-1.712,5.875-3.533,9.017-5.09
		c3.56-1.765,6.15-1.936,10.539-2.073c13.047-0.407,26.209-0.462,39.298-0.463c0.353,0,0.706,0.001,1.059,0.003
		c1.182,0.008,4.836,0.039,5.152,0.799c0.034,0.105,0.027,0.221-0.051,0.347c-0.421,0.688-2.02,0.793-2.956,0.867
		c-8.282,0.628-16.664,0.762-24.629,2.472c-0.994,0.209-1.981,0.473-2.76,0.934c-1.672,1.005-1.57,2.493,0.584,3.162
		c0.01,0.007,0.029,0.015,0.039,0.016C74.72,91.712,88.016,93.521,103.15,94.417z"/>
	<path class="st1" d="M103.15,94.417l0.692,11.681l67.043-3.97c0.279-0.017,0.549-0.039,0.818-0.062
		c5.366-0.455,9.031-4.191,8.524-7.707c-0.364-2.524-2.937-4.085-5.5-5.644c-2.815-1.712-5.875-3.533-9.017-5.09
		c-3.56-1.765-6.15-1.936-10.539-2.073c-13.047-0.407-26.209-0.462-39.298-0.463c-0.353,0-0.706,0.001-1.059,0.003
		c-1.182,0.008-4.836,0.039-5.152,0.799c-0.034,0.105-0.027,0.221,0.051,0.347c0.421,0.688,2.02,0.793,2.956,0.867
		c8.282,0.628,16.664,0.762,24.629,2.472c0.994,0.209,1.981,0.473,2.76,0.934c1.672,1.005,1.57,2.493-0.584,3.162
		c-0.01,0.007-0.029,0.015-0.039,0.016C131.58,91.712,118.283,93.521,103.15,94.417z"/>
	<rect x="103.083" y="94.419" class="st1" width="0.134" height="0.911"/>
</g>
<g id="key_stems">
	<rect x="40.737" y="116.691" class="st2" width="0.958" height="4.939"/>
	<rect x="54.486" y="116.691" class="st2" width="0.958" height="4.939"/>
	<rect x="68.246" y="116.691" class="st2" width="0.958" height="4.939"/>
	<rect x="82.04" y="116.691" class="st2" width="0.958" height="4.939"/>
	<rect x="95.73" y="116.691" class="st2" width="0.958" height="4.939"/>
	<rect x="109.478" y="116.691" class="st2" width="0.958" height="4.939"/>
	<rect x="123.227" y="116.691" class="st2" width="0.958" height="4.939"/>
	<rect x="136.975" y="116.691" class="st2" width="0.958" height="4.939"/>
	<rect x="150.724" y="116.691" class="st2" width="0.958" height="4.939"/>
	<rect x="164.474" y="116.691" class="st2" width="0.958" height="4.939"/>
</g>
<g id="keys_row_4">
	<g>
		<path class="st5" d="M46.812,143.569v0.564c0,1.191-0.975,2.166-2.163,2.166h-6.865c-1.191,0-2.166-0.975-2.166-2.166v-0.564
			c0-0.282,0.056-0.555,0.16-0.802c0.078-0.201,0.188-0.389,0.323-0.555c0.003,0,0.003,0,0.003-0.003
			c0.342-0.317,0.922-0.592,1.671-0.802h6.883c0.746,0.21,1.329,0.486,1.668,0.802c0.003,0.003,0.003,0.003,0.003,0.003
			c0.135,0.169,0.248,0.36,0.326,0.564C46.758,143.024,46.812,143.29,46.812,143.569z"/>
		<path class="st6" d="M46.661,142.854c0,1.031-2.439,1.868-5.445,1.868c-3.009,0-5.445-0.837-5.445-1.868
			c0-0.028,0.003-0.06,0.006-0.088c0.078-0.201,0.188-0.389,0.323-0.555c0.003,0,0.003,0,0.003-0.003
			c0.342-0.317,0.922-0.592,1.671-0.802h0.009c0.937-0.263,2.131-0.42,3.432-0.42c1.301,0,2.495,0.157,3.432,0.42h0.009
			c0.746,0.21,1.329,0.486,1.668,0.802c0.003,0.003,0.003,0.003,0.003,0.003c0.135,0.169,0.248,0.36,0.326,0.564
			C46.661,142.801,46.661,142.829,46.661,142.854z"/>
	</g>
	<g>
		<path class="st5" d="M170.548,143.569v0.564c0,1.191-0.975,2.166-2.163,2.166h-6.865c-1.191,0-2.166-0.975-2.166-2.166v-0.564
			c0-0.282,0.056-0.555,0.16-0.802c0.078-0.201,0.188-0.389,0.323-0.555c0.003,0,0.003,0,0.003-0.003
			c0.342-0.317,0.922-0.592,1.671-0.802h6.883c0.746,0.21,1.329,0.486,1.668,0.802c0.003,0.003,0.003,0.003,0.003,0.003
			c0.135,0.169,0.248,0.36,0.326,0.564C170.495,143.024,170.548,143.29,170.548,143.569z"/>
		<path class="st6" d="M170.398,142.854c0,1.031-2.439,1.868-5.445,1.868c-3.009,0-5.445-0.837-5.445-1.868
			c0-0.028,0.003-0.06,0.006-0.088c0.078-0.201,0.188-0.389,0.323-0.555c0.003,0,0.003,0,0.003-0.003
			c0.342-0.317,0.922-0.592,1.671-0.802h0.009c0.937-0.263,2.131-0.42,3.432-0.42c1.301,0,2.495,0.157,3.432,0.42h0.009
			c0.746,0.21,1.329,0.486,1.668,0.802c0.003,0.003,0.003,0.003,0.003,0.003c0.135,0.169,0.248,0.36,0.326,0.564
			C170.398,142.801,170.398,142.829,170.398,142.854z"/>
	</g>
	<g>
		<path class="st5" d="M156.8,143.569v0.564c0,1.191-0.975,2.166-2.163,2.166h-6.865c-1.191,0-2.166-0.975-2.166-2.166v-0.564
			c0-0.282,0.056-0.555,0.16-0.802c0.078-0.201,0.188-0.389,0.323-0.555c0.003,0,0.003,0,0.003-0.003
			c0.342-0.317,0.922-0.592,1.671-0.802h6.883c0.746,0.21,1.329,0.486,1.668,0.802c0.003,0.003,0.003,0.003,0.003,0.003
			c0.135,0.169,0.248,0.36,0.326,0.564C156.746,143.024,156.8,143.29,156.8,143.569z"/>
		<path class="st6" d="M156.649,142.854c0,1.031-2.439,1.868-5.445,1.868c-3.009,0-5.445-0.837-5.445-1.868
			c0-0.028,0.003-0.06,0.006-0.088c0.078-0.201,0.188-0.389,0.323-0.555c0.003,0,0.003,0,0.003-0.003
			c0.342-0.317,0.922-0.592,1.671-0.802h0.009c0.937-0.263,2.131-0.42,3.432-0.42c1.301,0,2.495,0.157,3.432,0.42h0.009
			c0.746,0.21,1.329,0.486,1.668,0.802c0.003,0.003,0.003,0.003,0.003,0.003c0.135,0.169,0.248,0.36,0.326,0.564
			C156.649,142.801,156.649,142.829,156.649,142.854z"/>
	</g>
	<g>
		<path class="st5" d="M143.051,143.569v0.564c0,1.191-0.975,2.166-2.163,2.166h-6.865c-1.191,0-2.166-0.975-2.166-2.166v-0.564
			c0-0.282,0.056-0.555,0.16-0.802c0.078-0.201,0.188-0.389,0.323-0.555c0.003,0,0.003,0,0.003-0.003
			c0.342-0.317,0.922-0.592,1.671-0.802h6.883c0.746,0.21,1.329,0.486,1.668,0.802c0.003,0.003,0.003,0.003,0.003,0.003
			c0.135,0.169,0.248,0.36,0.326,0.564C142.998,143.024,143.051,143.29,143.051,143.569z"/>
		<path class="st6" d="M142.901,142.854c0,1.031-2.439,1.868-5.445,1.868c-3.009,0-5.445-0.837-5.445-1.868
			c0-0.028,0.003-0.06,0.006-0.088c0.078-0.201,0.188-0.389,0.323-0.555c0.003,0,0.003,0,0.003-0.003
			c0.342-0.317,0.922-0.592,1.671-0.802h0.009c0.937-0.263,2.131-0.42,3.432-0.42c1.301,0,2.495,0.157,3.432,0.42h0.009
			c0.746,0.21,1.329,0.486,1.668,0.802c0.003,0.003,0.003,0.003,0.003,0.003c0.135,0.169,0.248,0.36,0.326,0.564
			C142.901,142.801,142.901,142.829,142.901,142.854z"/>
	</g>
	<g>
		<path class="st5" d="M129.303,143.569v0.564c0,1.191-0.975,2.166-2.163,2.166h-6.865c-1.191,0-2.166-0.975-2.166-2.166v-0.564
			c0-0.282,0.056-0.555,0.16-0.802c0.078-0.201,0.188-0.389,0.323-0.555c0.003,0,0.003,0,0.003-0.003
			c0.342-0.317,0.922-0.592,1.671-0.802h6.883c0.746,0.21,1.329,0.486,1.668,0.802c0.003,0.003,0.003,0.003,0.003,0.003
			c0.135,0.169,0.248,0.36,0.326,0.564C129.249,143.024,129.303,143.29,129.303,143.569z"/>
		<path class="st6" d="M129.152,142.854c0,1.031-2.439,1.868-5.445,1.868c-3.009,0-5.445-0.837-5.445-1.868
			c0-0.028,0.003-0.06,0.006-0.088c0.078-0.201,0.188-0.389,0.323-0.555c0.003,0,0.003,0,0.003-0.003
			c0.342-0.317,0.922-0.592,1.671-0.802h0.009c0.937-0.263,2.131-0.42,3.432-0.42c1.301,0,2.495,0.157,3.432,0.42h0.009
			c0.746,0.21,1.329,0.486,1.668,0.802c0.003,0.003,0.003,0.003,0.003,0.003c0.135,0.169,0.248,0.36,0.326,0.564
			C129.152,142.801,129.152,142.829,129.152,142.854z"/>
	</g>
	<g>
		<path class="st5" d="M115.554,143.569v0.564c0,1.191-0.975,2.166-2.163,2.166h-6.865c-1.191,0-2.166-0.975-2.166-2.166v-0.564
			c0-0.282,0.056-0.555,0.16-0.802c0.078-0.201,0.188-0.389,0.323-0.555c0.003,0,0.003,0,0.003-0.003
			c0.342-0.317,0.922-0.592,1.671-0.802h6.883c0.746,0.21,1.329,0.486,1.668,0.802c0.003,0.003,0.003,0.003,0.003,0.003
			c0.135,0.169,0.248,0.36,0.326,0.564C115.501,143.024,115.554,143.29,115.554,143.569z"/>
		<path class="st6" d="M115.404,142.854c0,1.031-2.439,1.868-5.445,1.868c-3.009,0-5.445-0.837-5.445-1.868
			c0-0.028,0.003-0.06,0.006-0.088c0.078-0.201,0.188-0.389,0.323-0.555c0.003,0,0.003,0,0.003-0.003
			c0.342-0.317,0.922-0.592,1.671-0.802h0.009c0.937-0.263,2.131-0.42,3.432-0.42c1.301,0,2.495,0.157,3.432,0.42h0.009
			c0.746,0.21,1.329,0.486,1.668,0.802c0.003,0.003,0.003,0.003,0.003,0.003c0.135,0.169,0.248,0.36,0.326,0.564
			C115.404,142.801,115.404,142.829,115.404,142.854z"/>
	</g>
	<g>
		<path class="st5" d="M101.806,143.569v0.564c0,1.191-0.975,2.166-2.163,2.166h-6.865c-1.191,0-2.166-0.975-2.166-2.166v-0.564
			c0-0.282,0.056-0.555,0.16-0.802c0.078-0.201,0.188-0.389,0.323-0.555c0.003,0,0.003,0,0.003-0.003
			c0.342-0.317,0.922-0.592,1.671-0.802h6.883c0.746,0.21,1.329,0.486,1.668,0.802c0.003,0.003,0.003,0.003,0.003,0.003
			c0.135,0.169,0.248,0.36,0.326,0.564C101.752,143.024,101.806,143.29,101.806,143.569z"/>
		<path class="st6" d="M101.655,142.854c0,1.031-2.439,1.868-5.445,1.868c-3.009,0-5.445-0.837-5.445-1.868
			c0-0.028,0.003-0.06,0.006-0.088c0.078-0.201,0.188-0.389,0.323-0.555c0.003,0,0.003,0,0.003-0.003
			c0.342-0.317,0.922-0.592,1.671-0.802h0.009c0.937-0.263,2.131-0.42,3.432-0.42c1.301,0,2.495,0.157,3.432,0.42h0.009
			c0.746,0.21,1.329,0.486,1.668,0.802c0.003,0.003,0.003,0.003,0.003,0.003c0.135,0.169,0.248,0.36,0.326,0.564
			C101.655,142.801,101.655,142.829,101.655,142.854z"/>
	</g>
	<g>
		<path class="st5" d="M88.057,143.569v0.564c0,1.191-0.975,2.166-2.163,2.166H79.03c-1.191,0-2.166-0.975-2.166-2.166v-0.564
			c0-0.282,0.056-0.555,0.16-0.802c0.078-0.201,0.188-0.389,0.323-0.555c0.003,0,0.003,0,0.003-0.003
			c0.342-0.317,0.922-0.592,1.671-0.802h6.883c0.746,0.21,1.329,0.486,1.668,0.802c0.003,0.003,0.003,0.003,0.003,0.003
			c0.135,0.169,0.248,0.36,0.326,0.564C88.004,143.024,88.057,143.29,88.057,143.569z"/>
		<path class="st6" d="M87.907,142.854c0,1.031-2.439,1.868-5.445,1.868c-3.009,0-5.445-0.837-5.445-1.868
			c0-0.028,0.003-0.06,0.006-0.088c0.078-0.201,0.188-0.389,0.323-0.555c0.003,0,0.003,0,0.003-0.003
			c0.342-0.317,0.922-0.592,1.671-0.802h0.009c0.937-0.263,2.131-0.42,3.432-0.42c1.301,0,2.495,0.157,3.432,0.42h0.009
			c0.746,0.21,1.329,0.486,1.668,0.802c0.003,0.003,0.003,0.003,0.003,0.003c0.135,0.169,0.248,0.36,0.326,0.564
			C87.907,142.801,87.907,142.829,87.907,142.854z"/>
	</g>
	<g>
		<path class="st5" d="M74.309,143.569v0.564c0,1.191-0.975,2.166-2.163,2.166h-6.865c-1.191,0-2.166-0.975-2.166-2.166v-0.564
			c0-0.282,0.056-0.555,0.16-0.802c0.078-0.201,0.188-0.389,0.323-0.555c0.003,0,0.003,0,0.003-0.003
			c0.342-0.317,0.922-0.592,1.671-0.802h6.883c0.746,0.21,1.329,0.486,1.668,0.802c0.003,0.003,0.003,0.003,0.003,0.003
			c0.135,0.169,0.248,0.36,0.326,0.564C74.255,143.024,74.309,143.29,74.309,143.569z"/>
		<path class="st6" d="M74.158,142.854c0,1.031-2.439,1.868-5.445,1.868c-3.009,0-5.445-0.837-5.445-1.868
			c0-0.028,0.003-0.06,0.006-0.088c0.078-0.201,0.188-0.389,0.323-0.555c0.003,0,0.003,0,0.003-0.003
			c0.342-0.317,0.922-0.592,1.671-0.802h0.009c0.937-0.263,2.131-0.42,3.432-0.42c1.301,0,2.495,0.157,3.432,0.42h0.009
			c0.746,0.21,1.329,0.486,1.668,0.802c0.003,0.003,0.003,0.003,0.003,0.003c0.135,0.169,0.248,0.36,0.326,0.564
			C74.158,142.801,74.158,142.829,74.158,142.854z"/>
	</g>
	<g>
		<path class="st5" d="M60.56,143.569v0.564c0,1.191-0.975,2.166-2.163,2.166h-6.865c-1.191,0-2.166-0.975-2.166-2.166v-0.564
			c0-0.282,0.056-0.555,0.16-0.802c0.078-0.201,0.188-0.389,0.323-0.555c0.003,0,0.003,0,0.003-0.003
			c0.342-0.317,0.922-0.592,1.671-0.802h6.883c0.746,0.21,1.329,0.486,1.668,0.802c0.003,0.003,0.003,0.003,0.003,0.003
			c0.135,0.169,0.248,0.36,0.326,0.564C60.507,143.024,60.56,143.29,60.56,143.569z"/>
		<path class="st6" d="M60.41,142.854c0,1.031-2.439,1.868-5.445,1.868c-3.009,0-5.445-0.837-5.445-1.868
			c0-0.028,0.003-0.06,0.006-0.088c0.078-0.201,0.188-0.389,0.323-0.555c0.003,0,0.003,0,0.003-0.003
			c0.342-0.317,0.922-0.592,1.671-0.802h0.009c0.937-0.263,2.131-0.42,3.432-0.42c1.301,0,2.495,0.157,3.432,0.42h0.009
			c0.746,0.21,1.329,0.486,1.668,0.802c0.003,0.003,0.003,0.003,0.003,0.003c0.135,0.169,0.248,0.36,0.326,0.564
			C60.41,142.801,60.41,142.829,60.41,142.854z"/>
	</g>
</g>
<g id="keys_row_3">
	<g>
		<path class="st5" d="M52.344,132.923v0.564c0,1.191-0.975,2.166-2.163,2.166h-6.865c-1.191,0-2.166-0.975-2.166-2.166v-0.564
			c0-0.282,0.056-0.555,0.16-0.802c0.078-0.201,0.188-0.389,0.323-0.555c0.003,0,0.003,0,0.003-0.003
			c0.342-0.317,0.922-0.592,1.671-0.802h6.883c0.746,0.21,1.329,0.486,1.668,0.802c0.003,0.003,0.003,0.003,0.003,0.003
			c0.135,0.169,0.248,0.36,0.326,0.564C52.291,132.377,52.344,132.644,52.344,132.923z"/>
		<path class="st6" d="M52.194,132.208c0,1.031-2.439,1.868-5.445,1.868c-3.009,0-5.445-0.837-5.445-1.868
			c0-0.028,0.003-0.06,0.006-0.088c0.078-0.201,0.188-0.389,0.323-0.555c0.003,0,0.003,0,0.003-0.003
			c0.342-0.317,0.922-0.592,1.671-0.802h0.009c0.937-0.263,2.131-0.42,3.432-0.42c1.301,0,2.495,0.157,3.432,0.42h0.009
			c0.746,0.21,1.329,0.486,1.668,0.802c0.003,0.003,0.003,0.003,0.003,0.003c0.135,0.169,0.248,0.36,0.326,0.564
			C52.194,132.155,52.194,132.183,52.194,132.208z"/>
	</g>
	<g>
		<path class="st5" d="M38.571,132.923v0.564c0,1.191-0.975,2.166-2.163,2.166h-6.865c-1.191,0-2.166-0.975-2.166-2.166v-0.564
			c0-0.282,0.056-0.555,0.16-0.802c0.078-0.201,0.188-0.389,0.323-0.555c0.003,0,0.003,0,0.003-0.003
			c0.342-0.317,0.922-0.592,1.671-0.802h6.883c0.746,0.21,1.329,0.486,1.668,0.802c0.003,0.003,0.003,0.003,0.003,0.003
			c0.135,0.169,0.248,0.36,0.326,0.564C38.518,132.377,38.571,132.644,38.571,132.923z"/>
		<path class="st6" d="M38.42,132.208c0,1.031-2.439,1.868-5.445,1.868c-3.009,0-5.445-0.837-5.445-1.868
			c0-0.028,0.003-0.06,0.006-0.088c0.078-0.201,0.188-0.389,0.323-0.555c0.003,0,0.003,0,0.003-0.003
			c0.342-0.317,0.922-0.592,1.671-0.802h0.009c0.937-0.263,2.131-0.42,3.432-0.42c1.301,0,2.495,0.157,3.432,0.42h0.009
			c0.746,0.21,1.329,0.486,1.668,0.802c0.003,0.003,0.003,0.003,0.003,0.003c0.135,0.169,0.248,0.36,0.326,0.564
			C38.42,132.155,38.42,132.183,38.42,132.208z"/>
	</g>
	<g>
		<path class="st5" d="M176.307,132.923v0.564c0,1.191-0.975,2.166-2.163,2.166h-6.865c-1.191,0-2.166-0.975-2.166-2.166v-0.564
			c0-0.282,0.056-0.555,0.16-0.802c0.078-0.201,0.188-0.389,0.323-0.555c0.003,0,0.003,0,0.003-0.003
			c0.342-0.317,0.922-0.592,1.671-0.802h6.883c0.746,0.21,1.329,0.486,1.668,0.802c0.003,0.003,0.003,0.003,0.003,0.003
			c0.135,0.169,0.248,0.36,0.326,0.564C176.254,132.377,176.307,132.644,176.307,132.923z"/>
		<path class="st6" d="M176.157,132.208c0,1.031-2.439,1.868-5.445,1.868c-3.009,0-5.445-0.837-5.445-1.868
			c0-0.028,0.003-0.06,0.006-0.088c0.078-0.201,0.188-0.389,0.323-0.555c0.003,0,0.003,0,0.003-0.003
			c0.342-0.317,0.922-0.592,1.671-0.802h0.009c0.937-0.263,2.131-0.42,3.432-0.42c1.301,0,2.495,0.157,3.432,0.42h0.009
			c0.746,0.21,1.329,0.486,1.668,0.802c0.003,0.003,0.003,0.003,0.003,0.003c0.135,0.169,0.248,0.36,0.326,0.564
			C176.157,132.155,176.157,132.183,176.157,132.208z"/>
	</g>
	<g>
		<path class="st5" d="M162.534,132.923v0.564c0,1.191-0.975,2.166-2.163,2.166h-6.865c-1.191,0-2.166-0.975-2.166-2.166v-0.564
			c0-0.282,0.056-0.555,0.16-0.802c0.078-0.201,0.188-0.389,0.323-0.555c0.003,0,0.003,0,0.003-0.003
			c0.342-0.317,0.922-0.592,1.671-0.802h6.883c0.746,0.21,1.329,0.486,1.668,0.802c0.003,0.003,0.003,0.003,0.003,0.003
			c0.135,0.169,0.248,0.36,0.326,0.564C162.48,132.377,162.534,132.644,162.534,132.923z"/>
		<path class="st6" d="M162.383,132.208c0,1.031-2.439,1.868-5.445,1.868c-3.009,0-5.445-0.837-5.445-1.868
			c0-0.028,0.003-0.06,0.006-0.088c0.078-0.201,0.188-0.389,0.323-0.555c0.003,0,0.003,0,0.003-0.003
			c0.342-0.317,0.922-0.592,1.671-0.802h0.009c0.937-0.263,2.131-0.42,3.432-0.42c1.301,0,2.495,0.157,3.432,0.42h0.009
			c0.746,0.21,1.329,0.486,1.668,0.802c0.003,0.003,0.003,0.003,0.003,0.003c0.135,0.169,0.248,0.36,0.326,0.564
			C162.383,132.155,162.383,132.183,162.383,132.208z"/>
	</g>
	<g>
		<path class="st5" d="M148.76,132.923v0.564c0,1.191-0.975,2.166-2.163,2.166h-6.865c-1.191,0-2.166-0.975-2.166-2.166v-0.564
			c0-0.282,0.056-0.555,0.16-0.802c0.078-0.201,0.188-0.389,0.323-0.555c0.003,0,0.003,0,0.003-0.003
			c0.342-0.317,0.922-0.592,1.671-0.802h6.883c0.746,0.21,1.329,0.486,1.668,0.802c0.003,0.003,0.003,0.003,0.003,0.003
			c0.135,0.169,0.248,0.36,0.326,0.564C148.707,132.377,148.76,132.644,148.76,132.923z"/>
		<path class="st6" d="M148.61,132.208c0,1.031-2.439,1.868-5.445,1.868c-3.009,0-5.445-0.837-5.445-1.868
			c0-0.028,0.003-0.06,0.006-0.088c0.078-0.201,0.188-0.389,0.323-0.555c0.003,0,0.003,0,0.003-0.003
			c0.342-0.317,0.922-0.592,1.671-0.802h0.009c0.937-0.263,2.131-0.42,3.432-0.42c1.301,0,2.495,0.157,3.432,0.42h0.009
			c0.746,0.21,1.329,0.486,1.668,0.802c0.003,0.003,0.003,0.003,0.003,0.003c0.135,0.169,0.248,0.36,0.326,0.564
			C148.61,132.155,148.61,132.183,148.61,132.208z"/>
	</g>
	<g>
		<path class="st5" d="M134.986,132.923v0.564c0,1.191-0.975,2.166-2.163,2.166h-6.865c-1.191,0-2.166-0.975-2.166-2.166v-0.564
			c0-0.282,0.056-0.555,0.16-0.802c0.078-0.201,0.188-0.389,0.323-0.555c0.003,0,0.003,0,0.003-0.003
			c0.342-0.317,0.922-0.592,1.671-0.802h6.883c0.746,0.21,1.329,0.486,1.668,0.802c0.003,0.003,0.003,0.003,0.003,0.003
			c0.135,0.169,0.248,0.36,0.326,0.564C134.933,132.377,134.986,132.644,134.986,132.923z"/>
		<path class="st6" d="M134.836,132.208c0,1.031-2.439,1.868-5.445,1.868c-3.009,0-5.445-0.837-5.445-1.868
			c0-0.028,0.003-0.06,0.006-0.088c0.078-0.201,0.188-0.389,0.323-0.555c0.003,0,0.003,0,0.003-0.003
			c0.342-0.317,0.922-0.592,1.671-0.802h0.009c0.937-0.263,2.131-0.42,3.432-0.42c1.301,0,2.495,0.157,3.432,0.42h0.009
			c0.746,0.21,1.329,0.486,1.668,0.802c0.003,0.003,0.003,0.003,0.003,0.003c0.135,0.169,0.248,0.36,0.326,0.564
			C134.836,132.155,134.836,132.183,134.836,132.208z"/>
	</g>
	<g>
		<path class="st5" d="M121.213,132.923v0.564c0,1.191-0.975,2.166-2.163,2.166h-6.865c-1.191,0-2.166-0.975-2.166-2.166v-0.564
			c0-0.282,0.056-0.555,0.16-0.802c0.078-0.201,0.188-0.389,0.323-0.555c0.003,0,0.003,0,0.003-0.003
			c0.342-0.317,0.922-0.592,1.671-0.802h6.883c0.746,0.21,1.329,0.486,1.668,0.802c0.003,0.003,0.003,0.003,0.003,0.003
			c0.135,0.169,0.248,0.36,0.326,0.564C121.159,132.377,121.213,132.644,121.213,132.923z"/>
		<path class="st6" d="M121.062,132.208c0,1.031-2.439,1.868-5.445,1.868c-3.009,0-5.445-0.837-5.445-1.868
			c0-0.028,0.003-0.06,0.006-0.088c0.078-0.201,0.188-0.389,0.323-0.555c0.003,0,0.003,0,0.003-0.003
			c0.342-0.317,0.922-0.592,1.671-0.802h0.009c0.937-0.263,2.131-0.42,3.432-0.42c1.301,0,2.495,0.157,3.432,0.42h0.009
			c0.746,0.21,1.329,0.486,1.668,0.802c0.003,0.003,0.003,0.003,0.003,0.003c0.135,0.169,0.248,0.36,0.326,0.564
			C121.062,132.155,121.062,132.183,121.062,132.208z"/>
	</g>
	<g>
		<path class="st5" d="M107.439,132.923v0.564c0,1.191-0.975,2.166-2.163,2.166h-6.865c-1.191,0-2.166-0.975-2.166-2.166v-0.564
			c0-0.282,0.056-0.555,0.16-0.802c0.078-0.201,0.188-0.389,0.323-0.555c0.003,0,0.003,0,0.003-0.003
			c0.342-0.317,0.922-0.592,1.671-0.802h6.883c0.746,0.21,1.329,0.486,1.668,0.802c0.003,0.003,0.003,0.003,0.003,0.003
			c0.135,0.169,0.248,0.36,0.326,0.564C107.386,132.377,107.439,132.644,107.439,132.923z"/>
		<path class="st6" d="M107.289,132.208c0,1.031-2.439,1.868-5.445,1.868c-3.009,0-5.445-0.837-5.445-1.868
			c0-0.028,0.003-0.06,0.006-0.088c0.078-0.201,0.188-0.389,0.323-0.555c0.003,0,0.003,0,0.003-0.003
			c0.342-0.317,0.922-0.592,1.671-0.802h0.009c0.937-0.263,2.131-0.42,3.432-0.42c1.301,0,2.495,0.157,3.432,0.42h0.009
			c0.746,0.21,1.329,0.486,1.668,0.802c0.003,0.003,0.003,0.003,0.003,0.003c0.135,0.169,0.248,0.36,0.326,0.564
			C107.289,132.155,107.289,132.183,107.289,132.208z"/>
	</g>
	<g>
		<path class="st5" d="M93.665,132.923v0.564c0,1.191-0.975,2.166-2.163,2.166h-6.865c-1.191,0-2.166-0.975-2.166-2.166v-0.564
			c0-0.282,0.056-0.555,0.16-0.802c0.078-0.201,0.188-0.389,0.323-0.555c0.003,0,0.003,0,0.003-0.003
			c0.342-0.317,0.922-0.592,1.671-0.802h6.883c0.746,0.21,1.329,0.486,1.668,0.802c0.003,0.003,0.003,0.003,0.003,0.003
			c0.135,0.169,0.248,0.36,0.326,0.564C93.612,132.377,93.665,132.644,93.665,132.923z"/>
		<path class="st6" d="M93.515,132.208c0,1.031-2.439,1.868-5.445,1.868c-3.009,0-5.445-0.837-5.445-1.868
			c0-0.028,0.003-0.06,0.006-0.088c0.078-0.201,0.188-0.389,0.323-0.555c0.003,0,0.003,0,0.003-0.003
			c0.342-0.317,0.922-0.592,1.671-0.802h0.009c0.937-0.263,2.131-0.42,3.432-0.42c1.301,0,2.495,0.157,3.432,0.42h0.009
			c0.746,0.21,1.329,0.486,1.668,0.802c0.003,0.003,0.003,0.003,0.003,0.003c0.135,0.169,0.248,0.36,0.326,0.564
			C93.515,132.155,93.515,132.183,93.515,132.208z"/>
	</g>
	<g>
		<path class="st5" d="M79.892,132.923v0.564c0,1.191-0.975,2.166-2.163,2.166h-6.865c-1.191,0-2.166-0.975-2.166-2.166v-0.564
			c0-0.282,0.056-0.555,0.16-0.802c0.078-0.201,0.188-0.389,0.323-0.555c0.003,0,0.003,0,0.003-0.003
			c0.342-0.317,0.922-0.592,1.671-0.802h6.883c0.746,0.21,1.329,0.486,1.668,0.802c0.003,0.003,0.003,0.003,0.003,0.003
			c0.135,0.169,0.248,0.36,0.326,0.564C79.839,132.377,79.892,132.644,79.892,132.923z"/>
		<path class="st6" d="M79.741,132.208c0,1.031-2.439,1.868-5.445,1.868c-3.009,0-5.445-0.837-5.445-1.868
			c0-0.028,0.003-0.06,0.006-0.088c0.078-0.201,0.188-0.389,0.323-0.555c0.003,0,0.003,0,0.003-0.003
			c0.342-0.317,0.922-0.592,1.671-0.802h0.009c0.937-0.263,2.131-0.42,3.432-0.42c1.301,0,2.495,0.157,3.432,0.42h0.009
			c0.746,0.21,1.329,0.486,1.668,0.802c0.003,0.003,0.003,0.003,0.003,0.003c0.135,0.169,0.248,0.36,0.326,0.564
			C79.741,132.155,79.741,132.183,79.741,132.208z"/>
	</g>
	<g>
		<path class="st5" d="M66.118,132.923v0.564c0,1.191-0.975,2.166-2.163,2.166h-6.865c-1.191,0-2.166-0.975-2.166-2.166v-0.564
			c0-0.282,0.056-0.555,0.16-0.802c0.078-0.201,0.188-0.389,0.323-0.555c0.003,0,0.003,0,0.003-0.003
			c0.342-0.317,0.922-0.592,1.671-0.802h6.883c0.746,0.21,1.329,0.486,1.668,0.802c0.003,0.003,0.003,0.003,0.003,0.003
			c0.135,0.169,0.248,0.36,0.326,0.564C66.065,132.377,66.118,132.644,66.118,132.923z"/>
		<path class="st6" d="M65.968,132.208c0,1.031-2.439,1.868-5.445,1.868c-3.009,0-5.445-0.837-5.445-1.868
			c0-0.028,0.003-0.06,0.006-0.088c0.078-0.201,0.188-0.389,0.323-0.555c0.003,0,0.003,0,0.003-0.003
			c0.342-0.317,0.922-0.592,1.671-0.802h0.009c0.937-0.263,2.131-0.42,3.432-0.42c1.301,0,2.495,0.157,3.432,0.42h0.009
			c0.746,0.21,1.329,0.486,1.668,0.802c0.003,0.003,0.003,0.003,0.003,0.003c0.135,0.169,0.248,0.36,0.326,0.564
			C65.968,132.155,65.968,132.183,65.968,132.208z"/>
	</g>
</g>
<g id="keys_row_2">
	<g>
		<path class="st5" d="M46.732,123.999v0.564c0,1.191-0.975,2.166-2.163,2.166h-6.865c-1.191,0-2.166-0.975-2.166-2.166v-0.564
			c0-0.282,0.056-0.555,0.16-0.802c0.078-0.201,0.188-0.389,0.323-0.555c0.003,0,0.003,0,0.003-0.003
			c0.342-0.317,0.922-0.592,1.671-0.802h6.883c0.746,0.21,1.329,0.486,1.668,0.802c0.003,0.003,0.003,0.003,0.003,0.003
			c0.135,0.169,0.248,0.36,0.326,0.564C46.678,123.454,46.732,123.72,46.732,123.999z"/>
		<path class="st6" d="M46.581,123.285c0,1.031-2.439,1.868-5.445,1.868c-3.009,0-5.445-0.837-5.445-1.868
			c0-0.028,0.003-0.06,0.006-0.088c0.078-0.201,0.188-0.389,0.323-0.555c0.003,0,0.003,0,0.003-0.003
			c0.342-0.317,0.922-0.592,1.671-0.802h0.009c0.937-0.263,2.131-0.42,3.432-0.42c1.301,0,2.495,0.157,3.432,0.42h0.009
			c0.746,0.21,1.329,0.486,1.668,0.802c0.003,0.003,0.003,0.003,0.003,0.003c0.135,0.169,0.248,0.36,0.326,0.564
			C46.581,123.231,46.581,123.26,46.581,123.285z"/>
	</g>
	<g>
		<path class="st5" d="M32.937,123.999v0.564c0,1.191-0.975,2.166-2.163,2.166H23.91c-1.191,0-2.166-0.975-2.166-2.166v-0.564
			c0-0.282,0.056-0.555,0.16-0.802c0.078-0.201,0.188-0.389,0.323-0.555c0.003,0,0.003,0,0.003-0.003
			c0.342-0.317,0.922-0.592,1.671-0.802h6.883c0.746,0.21,1.329,0.486,1.668,0.802c0.003,0.003,0.003,0.003,0.003,0.003
			c0.135,0.169,0.248,0.36,0.326,0.564C32.884,123.454,32.937,123.72,32.937,123.999z"/>
		<path class="st6" d="M32.787,123.285c0,1.031-2.439,1.868-5.445,1.868c-3.009,0-5.445-0.837-5.445-1.868
			c0-0.028,0.003-0.06,0.006-0.088c0.078-0.201,0.188-0.389,0.323-0.555c0.003,0,0.003,0,0.003-0.003
			c0.342-0.317,0.922-0.592,1.671-0.802h0.009c0.937-0.263,2.131-0.42,3.432-0.42c1.301,0,2.495,0.157,3.432,0.42h0.009
			c0.746,0.21,1.329,0.486,1.668,0.802c0.003,0.003,0.003,0.003,0.003,0.003c0.135,0.169,0.248,0.36,0.326,0.564
			C32.787,123.231,32.787,123.26,32.787,123.285z"/>
	</g>
	<g>
		<path class="st5" d="M170.88,123.999v0.564c0,1.191-0.975,2.166-2.163,2.166h-6.865c-1.191,0-2.166-0.975-2.166-2.166v-0.564
			c0-0.282,0.056-0.555,0.16-0.802c0.078-0.201,0.188-0.389,0.323-0.555c0.003,0,0.003,0,0.003-0.003
			c0.342-0.317,0.922-0.592,1.671-0.802h6.883c0.746,0.21,1.329,0.486,1.668,0.802c0.003,0.003,0.003,0.003,0.003,0.003
			c0.135,0.169,0.248,0.36,0.326,0.564C170.826,123.454,170.88,123.72,170.88,123.999z"/>
		<path class="st6" d="M170.729,123.285c0,1.031-2.439,1.868-5.445,1.868c-3.009,0-5.445-0.837-5.445-1.868
			c0-0.028,0.003-0.06,0.006-0.088c0.078-0.201,0.188-0.389,0.323-0.555c0.003,0,0.003,0,0.003-0.003
			c0.342-0.317,0.922-0.592,1.671-0.802h0.009c0.937-0.263,2.131-0.42,3.432-0.42c1.301,0,2.495,0.157,3.432,0.42h0.009
			c0.746,0.21,1.329,0.486,1.668,0.802c0.003,0.003,0.003,0.003,0.003,0.003c0.135,0.169,0.248,0.36,0.326,0.564
			C170.729,123.231,170.729,123.26,170.729,123.285z"/>
	</g>
	<g>
		<path class="st5" d="M184.674,123.999v0.564c0,1.191-0.975,2.166-2.163,2.166h-6.865c-1.191,0-2.166-0.975-2.166-2.166v-0.564
			c0-0.282,0.056-0.555,0.16-0.802c0.078-0.201,0.188-0.389,0.323-0.555c0.003,0,0.003,0,0.003-0.003
			c0.342-0.317,0.922-0.592,1.671-0.802h6.883c0.746,0.21,1.329,0.486,1.668,0.802c0.003,0.003,0.003,0.003,0.003,0.003
			c0.135,0.169,0.248,0.36,0.326,0.564C184.621,123.454,184.674,123.72,184.674,123.999z"/>
		<path class="st6" d="M184.523,123.285c0,1.031-2.439,1.868-5.445,1.868c-3.009,0-5.445-0.837-5.445-1.868
			c0-0.028,0.003-0.06,0.006-0.088c0.078-0.201,0.188-0.389,0.323-0.555c0.003,0,0.003,0,0.003-0.003
			c0.342-0.317,0.922-0.592,1.671-0.802h0.009c0.937-0.263,2.131-0.42,3.432-0.42c1.301,0,2.495,0.157,3.432,0.42h0.009
			c0.746,0.21,1.329,0.486,1.668,0.802c0.003,0.003,0.003,0.003,0.003,0.003c0.135,0.169,0.248,0.36,0.326,0.564
			C184.523,123.231,184.523,123.26,184.523,123.285z"/>
	</g>
	<g>
		<path class="st5" d="M157.085,123.999v0.564c0,1.191-0.975,2.166-2.163,2.166h-6.865c-1.191,0-2.166-0.975-2.166-2.166v-0.564
			c0-0.282,0.056-0.555,0.16-0.802c0.078-0.201,0.188-0.389,0.323-0.555c0.003,0,0.003,0,0.003-0.003
			c0.342-0.317,0.922-0.592,1.671-0.802h6.883c0.746,0.21,1.329,0.486,1.668,0.802c0.003,0.003,0.003,0.003,0.003,0.003
			c0.135,0.169,0.248,0.36,0.326,0.564C157.032,123.454,157.085,123.72,157.085,123.999z"/>
		<path class="st6" d="M156.935,123.285c0,1.031-2.439,1.868-5.445,1.868c-3.009,0-5.445-0.837-5.445-1.868
			c0-0.028,0.003-0.06,0.006-0.088c0.078-0.201,0.188-0.389,0.323-0.555c0.003,0,0.003,0,0.003-0.003
			c0.342-0.317,0.922-0.592,1.671-0.802h0.009c0.937-0.263,2.131-0.42,3.432-0.42c1.301,0,2.495,0.157,3.432,0.42h0.009
			c0.746,0.21,1.329,0.486,1.668,0.802c0.003,0.003,0.003,0.003,0.003,0.003c0.135,0.169,0.248,0.36,0.326,0.564
			C156.935,123.231,156.935,123.26,156.935,123.285z"/>
	</g>
	<g>
		<path class="st5" d="M143.291,123.999v0.564c0,1.191-0.975,2.166-2.163,2.166h-6.865c-1.191,0-2.166-0.975-2.166-2.166v-0.564
			c0-0.282,0.056-0.555,0.16-0.802c0.078-0.201,0.188-0.389,0.323-0.555c0.003,0,0.003,0,0.003-0.003
			c0.342-0.317,0.922-0.592,1.671-0.802h6.883c0.746,0.21,1.329,0.486,1.668,0.802c0.003,0.003,0.003,0.003,0.003,0.003
			c0.135,0.169,0.248,0.36,0.326,0.564C143.238,123.454,143.291,123.72,143.291,123.999z"/>
		<path class="st6" d="M143.141,123.285c0,1.031-2.439,1.868-5.445,1.868c-3.009,0-5.445-0.837-5.445-1.868
			c0-0.028,0.003-0.06,0.006-0.088c0.078-0.201,0.188-0.389,0.323-0.555c0.003,0,0.003,0,0.003-0.003
			c0.342-0.317,0.922-0.592,1.671-0.802h0.009c0.937-0.263,2.131-0.42,3.432-0.42c1.301,0,2.495,0.157,3.432,0.42h0.009
			c0.746,0.21,1.329,0.486,1.668,0.802c0.003,0.003,0.003,0.003,0.003,0.003c0.135,0.169,0.248,0.36,0.326,0.564
			C143.141,123.231,143.141,123.26,143.141,123.285z"/>
	</g>
	<g>
		<path class="st5" d="M129.497,123.999v0.564c0,1.191-0.975,2.166-2.163,2.166h-6.865c-1.191,0-2.166-0.975-2.166-2.166v-0.564
			c0-0.282,0.056-0.555,0.16-0.802c0.078-0.201,0.188-0.389,0.323-0.555c0.003,0,0.003,0,0.003-0.003
			c0.342-0.317,0.922-0.592,1.671-0.802h6.883c0.746,0.21,1.329,0.486,1.668,0.802c0.003,0.003,0.003,0.003,0.003,0.003
			c0.135,0.169,0.248,0.36,0.326,0.564C129.444,123.454,129.497,123.72,129.497,123.999z"/>
		<path class="st6" d="M129.346,123.285c0,1.031-2.439,1.868-5.445,1.868c-3.009,0-5.445-0.837-5.445-1.868
			c0-0.028,0.003-0.06,0.006-0.088c0.078-0.201,0.188-0.389,0.323-0.555c0.003,0,0.003,0,0.003-0.003
			c0.342-0.317,0.922-0.592,1.671-0.802h0.009c0.937-0.263,2.131-0.42,3.432-0.42c1.301,0,2.495,0.157,3.432,0.42h0.009
			c0.746,0.21,1.329,0.486,1.668,0.802c0.003,0.003,0.003,0.003,0.003,0.003c0.135,0.169,0.248,0.36,0.326,0.564
			C129.346,123.231,129.346,123.26,129.346,123.285z"/>
	</g>
	<g>
		<path class="st5" d="M115.703,123.999v0.564c0,1.191-0.975,2.166-2.163,2.166h-6.865c-1.191,0-2.166-0.975-2.166-2.166v-0.564
			c0-0.282,0.056-0.555,0.16-0.802c0.078-0.201,0.188-0.389,0.323-0.555c0.003,0,0.003,0,0.003-0.003
			c0.342-0.317,0.922-0.592,1.671-0.802h6.883c0.746,0.21,1.329,0.486,1.668,0.802c0.003,0.003,0.003,0.003,0.003,0.003
			c0.135,0.169,0.248,0.36,0.326,0.564C115.649,123.454,115.703,123.72,115.703,123.999z"/>
		<path class="st6" d="M115.552,123.285c0,1.031-2.439,1.868-5.445,1.868c-3.009,0-5.445-0.837-5.445-1.868
			c0-0.028,0.003-0.06,0.006-0.088c0.078-0.201,0.188-0.389,0.323-0.555c0.003,0,0.003,0,0.003-0.003
			c0.342-0.317,0.922-0.592,1.671-0.802h0.009c0.937-0.263,2.131-0.42,3.432-0.42c1.301,0,2.495,0.157,3.432,0.42h0.009
			c0.746,0.21,1.329,0.486,1.668,0.802c0.003,0.003,0.003,0.003,0.003,0.003c0.135,0.169,0.248,0.36,0.326,0.564
			C115.552,123.231,115.552,123.26,115.552,123.285z"/>
	</g>
	<g>
		<path class="st5" d="M101.908,123.999v0.564c0,1.191-0.975,2.166-2.163,2.166h-6.865c-1.191,0-2.166-0.975-2.166-2.166v-0.564
			c0-0.282,0.056-0.555,0.16-0.802c0.078-0.201,0.188-0.389,0.323-0.555c0.003,0,0.003,0,0.003-0.003
			c0.342-0.317,0.922-0.592,1.671-0.802h6.883c0.746,0.21,1.329,0.486,1.668,0.802c0.003,0.003,0.003,0.003,0.003,0.003
			c0.135,0.169,0.248,0.36,0.326,0.564C101.855,123.454,101.908,123.72,101.908,123.999z"/>
		<path class="st6" d="M101.758,123.285c0,1.031-2.439,1.868-5.445,1.868c-3.009,0-5.445-0.837-5.445-1.868
			c0-0.028,0.003-0.06,0.006-0.088c0.078-0.201,0.188-0.389,0.323-0.555c0.003,0,0.003,0,0.003-0.003
			c0.342-0.317,0.922-0.592,1.671-0.802h0.009c0.937-0.263,2.131-0.42,3.432-0.42c1.301,0,2.495,0.157,3.432,0.42h0.009
			c0.746,0.21,1.329,0.486,1.668,0.802c0.003,0.003,0.003,0.003,0.003,0.003c0.135,0.169,0.248,0.36,0.326,0.564
			C101.758,123.231,101.758,123.26,101.758,123.285z"/>
	</g>
	<g>
		<path class="st5" d="M88.114,123.999v0.564c0,1.191-0.975,2.166-2.163,2.166h-6.865c-1.191,0-2.166-0.975-2.166-2.166v-0.564
			c0-0.282,0.056-0.555,0.16-0.802c0.078-0.201,0.188-0.389,0.323-0.555c0.003,0,0.003,0,0.003-0.003
			c0.342-0.317,0.922-0.592,1.671-0.802h6.883c0.746,0.21,1.329,0.486,1.668,0.802c0.003,0.003,0.003,0.003,0.003,0.003
			c0.135,0.169,0.248,0.36,0.326,0.564C88.061,123.454,88.114,123.72,88.114,123.999z"/>
		<path class="st6" d="M87.964,123.285c0,1.031-2.439,1.868-5.445,1.868c-3.009,0-5.445-0.837-5.445-1.868
			c0-0.028,0.003-0.06,0.006-0.088c0.078-0.201,0.188-0.389,0.323-0.555c0.003,0,0.003,0,0.003-0.003
			c0.342-0.317,0.922-0.592,1.671-0.802h0.009c0.937-0.263,2.131-0.42,3.432-0.42c1.301,0,2.495,0.157,3.432,0.42h0.009
			c0.746,0.21,1.329,0.486,1.668,0.802c0.003,0.003,0.003,0.003,0.003,0.003c0.135,0.169,0.248,0.36,0.326,0.564
			C87.964,123.231,87.964,123.26,87.964,123.285z"/>
	</g>
	<g>
		<path class="st5" d="M74.32,123.999v0.564c0,1.191-0.975,2.166-2.163,2.166h-6.865c-1.191,0-2.166-0.975-2.166-2.166v-0.564
			c0-0.282,0.056-0.555,0.16-0.802c0.078-0.201,0.188-0.389,0.323-0.555c0.003,0,0.003,0,0.003-0.003
			c0.342-0.317,0.922-0.592,1.671-0.802h6.883c0.746,0.21,1.329,0.486,1.668,0.802c0.003,0.003,0.003,0.003,0.003,0.003
			c0.135,0.169,0.248,0.36,0.326,0.564C74.267,123.454,74.32,123.72,74.32,123.999z"/>
		<path class="st6" d="M74.17,123.285c0,1.031-2.439,1.868-5.445,1.868c-3.009,0-5.445-0.837-5.445-1.868
			c0-0.028,0.003-0.06,0.006-0.088c0.078-0.201,0.188-0.389,0.323-0.555c0.003,0,0.003,0,0.003-0.003
			c0.342-0.317,0.922-0.592,1.671-0.802h0.009c0.937-0.263,2.131-0.42,3.432-0.42c1.301,0,2.495,0.157,3.432,0.42h0.009
			c0.746,0.21,1.329,0.486,1.668,0.802c0.003,0.003,0.003,0.003,0.003,0.003c0.135,0.169,0.248,0.36,0.326,0.564
			C74.17,123.231,74.17,123.26,74.17,123.285z"/>
	</g>
	<g>
		<path class="st5" d="M60.526,123.999v0.564c0,1.191-0.975,2.166-2.163,2.166h-6.865c-1.191,0-2.166-0.975-2.166-2.166v-0.564
			c0-0.282,0.056-0.555,0.16-0.802c0.078-0.201,0.188-0.389,0.323-0.555c0.003,0,0.003,0,0.003-0.003
			c0.342-0.317,0.922-0.592,1.671-0.802h6.883c0.746,0.21,1.329,0.486,1.668,0.802c0.003,0.003,0.003,0.003,0.003,0.003
			c0.135,0.169,0.248,0.36,0.326,0.564C60.473,123.454,60.526,123.72,60.526,123.999z"/>
		<path class="st6" d="M60.375,123.285c0,1.031-2.439,1.868-5.445,1.868c-3.009,0-5.445-0.837-5.445-1.868
			c0-0.028,0.003-0.06,0.006-0.088c0.078-0.201,0.188-0.389,0.323-0.555c0.003,0,0.003,0,0.003-0.003
			c0.342-0.317,0.922-0.592,1.671-0.802h0.009c0.937-0.263,2.131-0.42,3.432-0.42c1.301,0,2.495,0.157,3.432,0.42h0.009
			c0.746,0.21,1.329,0.486,1.668,0.802c0.003,0.003,0.003,0.003,0.003,0.003c0.135,0.169,0.248,0.36,0.326,0.564
			C60.375,123.231,60.375,123.26,60.375,123.285z"/>
	</g>
</g>
<g id="keys_row_1">
	<path class="st7" d="M53.194,114.287v0.564c0,1.191-0.975,2.166-2.163,2.166h-6.865c-1.191,0-2.166-0.975-2.166-2.166v-0.564
		c0-0.282,0.056-0.555,0.16-0.802c0.078-0.201,0.188-0.389,0.323-0.555c0.003,0,0.003,0,0.003-0.003
		c0.342-0.317,0.922-0.592,1.671-0.802h6.883c0.746,0.21,1.329,0.486,1.668,0.802c0.003,0.003,0.003,0.003,0.003,0.003
		c0.135,0.169,0.248,0.36,0.326,0.564C53.141,113.742,53.194,114.008,53.194,114.287z"/>
	<path class="st8" d="M53.044,113.573c0,1.031-2.439,1.868-5.445,1.868c-3.009,0-5.445-0.837-5.445-1.868
		c0-0.028,0.003-0.06,0.006-0.088c0.078-0.201,0.188-0.389,0.323-0.555c0.003,0,0.003,0,0.003-0.003
		c0.342-0.317,0.922-0.592,1.671-0.802h0.009c0.937-0.263,2.131-0.42,3.432-0.42c1.301,0,2.495,0.157,3.432,0.42h0.009
		c0.746,0.21,1.329,0.486,1.668,0.802c0.003,0.003,0.003,0.003,0.003,0.003c0.135,0.169,0.248,0.36,0.326,0.564
		C53.044,113.519,53.044,113.548,53.044,113.573z"/>
	<g>
		<path class="st5" d="M46.812,114.287v0.564c0,1.191-0.975,2.166-2.163,2.166h-6.865c-1.191,0-2.166-0.975-2.166-2.166v-0.564
			c0-0.282,0.056-0.555,0.16-0.802c0.078-0.201,0.188-0.389,0.323-0.555c0.003,0,0.003,0,0.003-0.003
			c0.342-0.317,0.922-0.592,1.671-0.802h6.883c0.746,0.21,1.329,0.486,1.668,0.802c0.003,0.003,0.003,0.003,0.003,0.003
			c0.135,0.169,0.248,0.36,0.326,0.564C46.758,113.742,46.812,114.008,46.812,114.287z"/>
		<path class="st6" d="M46.661,113.573c0,1.031-2.439,1.868-5.445,1.868c-3.009,0-5.445-0.837-5.445-1.868
			c0-0.028,0.003-0.06,0.006-0.088c0.078-0.201,0.188-0.389,0.323-0.555c0.003,0,0.003,0,0.003-0.003
			c0.342-0.317,0.922-0.592,1.671-0.802h0.009c0.937-0.263,2.131-0.42,3.432-0.42c1.301,0,2.495,0.157,3.432,0.42h0.009
			c0.746,0.21,1.329,0.486,1.668,0.802c0.003,0.003,0.003,0.003,0.003,0.003c0.135,0.169,0.248,0.36,0.326,0.564
			C46.661,113.519,46.661,113.548,46.661,113.573z"/>
	</g>
	<g>
		<path class="st5" d="M170.548,114.287v0.564c0,1.191-0.975,2.166-2.163,2.166h-6.865c-1.191,0-2.166-0.975-2.166-2.166v-0.564
			c0-0.282,0.056-0.555,0.16-0.802c0.078-0.201,0.188-0.389,0.323-0.555c0.003,0,0.003,0,0.003-0.003
			c0.342-0.317,0.922-0.592,1.671-0.802h6.883c0.746,0.21,1.329,0.486,1.668,0.802c0.003,0.003,0.003,0.003,0.003,0.003
			c0.135,0.169,0.248,0.36,0.326,0.564C170.495,113.742,170.548,114.008,170.548,114.287z"/>
		<path class="st6" d="M170.398,113.573c0,1.031-2.439,1.868-5.445,1.868c-3.009,0-5.445-0.837-5.445-1.868
			c0-0.028,0.003-0.06,0.006-0.088c0.078-0.201,0.188-0.389,0.323-0.555c0.003,0,0.003,0,0.003-0.003
			c0.342-0.317,0.922-0.592,1.671-0.802h0.009c0.937-0.263,2.131-0.42,3.432-0.42c1.301,0,2.495,0.157,3.432,0.42h0.009
			c0.746,0.21,1.329,0.486,1.668,0.802c0.003,0.003,0.003,0.003,0.003,0.003c0.135,0.169,0.248,0.36,0.326,0.564
			C170.398,113.519,170.398,113.548,170.398,113.573z"/>
	</g>
	<g>
		<path class="st5" d="M156.8,114.287v0.564c0,1.191-0.975,2.166-2.163,2.166h-6.865c-1.191,0-2.166-0.975-2.166-2.166v-0.564
			c0-0.282,0.056-0.555,0.16-0.802c0.078-0.201,0.188-0.389,0.323-0.555c0.003,0,0.003,0,0.003-0.003
			c0.342-0.317,0.922-0.592,1.671-0.802h6.883c0.746,0.21,1.329,0.486,1.668,0.802c0.003,0.003,0.003,0.003,0.003,0.003
			c0.135,0.169,0.248,0.36,0.326,0.564C156.746,113.742,156.8,114.008,156.8,114.287z"/>
		<path class="st6" d="M156.649,113.573c0,1.031-2.439,1.868-5.445,1.868c-3.009,0-5.445-0.837-5.445-1.868
			c0-0.028,0.003-0.06,0.006-0.088c0.078-0.201,0.188-0.389,0.323-0.555c0.003,0,0.003,0,0.003-0.003
			c0.342-0.317,0.922-0.592,1.671-0.802h0.009c0.937-0.263,2.131-0.42,3.432-0.42c1.301,0,2.495,0.157,3.432,0.42h0.009
			c0.746,0.21,1.329,0.486,1.668,0.802c0.003,0.003,0.003,0.003,0.003,0.003c0.135,0.169,0.248,0.36,0.326,0.564
			C156.649,113.519,156.649,113.548,156.649,113.573z"/>
	</g>
	<g>
		<path class="st5" d="M143.051,114.287v0.564c0,1.191-0.975,2.166-2.163,2.166h-6.865c-1.191,0-2.166-0.975-2.166-2.166v-0.564
			c0-0.282,0.056-0.555,0.16-0.802c0.078-0.201,0.188-0.389,0.323-0.555c0.003,0,0.003,0,0.003-0.003
			c0.342-0.317,0.922-0.592,1.671-0.802h6.883c0.746,0.21,1.329,0.486,1.668,0.802c0.003,0.003,0.003,0.003,0.003,0.003
			c0.135,0.169,0.248,0.36,0.326,0.564C142.998,113.742,143.051,114.008,143.051,114.287z"/>
		<path class="st6" d="M142.901,113.573c0,1.031-2.439,1.868-5.445,1.868c-3.009,0-5.445-0.837-5.445-1.868
			c0-0.028,0.003-0.06,0.006-0.088c0.078-0.201,0.188-0.389,0.323-0.555c0.003,0,0.003,0,0.003-0.003
			c0.342-0.317,0.922-0.592,1.671-0.802h0.009c0.937-0.263,2.131-0.42,3.432-0.42c1.301,0,2.495,0.157,3.432,0.42h0.009
			c0.746,0.21,1.329,0.486,1.668,0.802c0.003,0.003,0.003,0.003,0.003,0.003c0.135,0.169,0.248,0.36,0.326,0.564
			C142.901,113.519,142.901,113.548,142.901,113.573z"/>
	</g>
	<g>
		<path class="st5" d="M129.303,114.287v0.564c0,1.191-0.975,2.166-2.163,2.166h-6.865c-1.191,0-2.166-0.975-2.166-2.166v-0.564
			c0-0.282,0.056-0.555,0.16-0.802c0.078-0.201,0.188-0.389,0.323-0.555c0.003,0,0.003,0,0.003-0.003
			c0.342-0.317,0.922-0.592,1.671-0.802h6.883c0.746,0.21,1.329,0.486,1.668,0.802c0.003,0.003,0.003,0.003,0.003,0.003
			c0.135,0.169,0.248,0.36,0.326,0.564C129.249,113.742,129.303,114.008,129.303,114.287z"/>
		<path class="st6" d="M129.152,113.573c0,1.031-2.439,1.868-5.445,1.868c-3.009,0-5.445-0.837-5.445-1.868
			c0-0.028,0.003-0.06,0.006-0.088c0.078-0.201,0.188-0.389,0.323-0.555c0.003,0,0.003,0,0.003-0.003
			c0.342-0.317,0.922-0.592,1.671-0.802h0.009c0.937-0.263,2.131-0.42,3.432-0.42c1.301,0,2.495,0.157,3.432,0.42h0.009
			c0.746,0.21,1.329,0.486,1.668,0.802c0.003,0.003,0.003,0.003,0.003,0.003c0.135,0.169,0.248,0.36,0.326,0.564
			C129.152,113.519,129.152,113.548,129.152,113.573z"/>
	</g>
	<g>
		<path class="st5" d="M115.554,114.287v0.564c0,1.191-0.975,2.166-2.163,2.166h-6.865c-1.191,0-2.166-0.975-2.166-2.166v-0.564
			c0-0.282,0.056-0.555,0.16-0.802c0.078-0.201,0.188-0.389,0.323-0.555c0.003,0,0.003,0,0.003-0.003
			c0.342-0.317,0.922-0.592,1.671-0.802h6.883c0.746,0.21,1.329,0.486,1.668,0.802c0.003,0.003,0.003,0.003,0.003,0.003
			c0.135,0.169,0.248,0.36,0.326,0.564C115.501,113.742,115.554,114.008,115.554,114.287z"/>
		<path class="st6" d="M115.404,113.573c0,1.031-2.439,1.868-5.445,1.868c-3.009,0-5.445-0.837-5.445-1.868
			c0-0.028,0.003-0.06,0.006-0.088c0.078-0.201,0.188-0.389,0.323-0.555c0.003,0,0.003,0,0.003-0.003
			c0.342-0.317,0.922-0.592,1.671-0.802h0.009c0.937-0.263,2.131-0.42,3.432-0.42c1.301,0,2.495,0.157,3.432,0.42h0.009
			c0.746,0.21,1.329,0.486,1.668,0.802c0.003,0.003,0.003,0.003,0.003,0.003c0.135,0.169,0.248,0.36,0.326,0.564
			C115.404,113.519,115.404,113.548,115.404,113.573z"/>
	</g>
	<g>
		<path class="st5" d="M101.806,114.287v0.564c0,1.191-0.975,2.166-2.163,2.166h-6.865c-1.191,0-2.166-0.975-2.166-2.166v-0.564
			c0-0.282,0.056-0.555,0.16-0.802c0.078-0.201,0.188-0.389,0.323-0.555c0.003,0,0.003,0,0.003-0.003
			c0.342-0.317,0.922-0.592,1.671-0.802h6.883c0.746,0.21,1.329,0.486,1.668,0.802c0.003,0.003,0.003,0.003,0.003,0.003
			c0.135,0.169,0.248,0.36,0.326,0.564C101.752,113.742,101.806,114.008,101.806,114.287z"/>
		<path class="st6" d="M101.655,113.573c0,1.031-2.439,1.868-5.445,1.868c-3.009,0-5.445-0.837-5.445-1.868
			c0-0.028,0.003-0.06,0.006-0.088c0.078-0.201,0.188-0.389,0.323-0.555c0.003,0,0.003,0,0.003-0.003
			c0.342-0.317,0.922-0.592,1.671-0.802h0.009c0.937-0.263,2.131-0.42,3.432-0.42c1.301,0,2.495,0.157,3.432,0.42h0.009
			c0.746,0.21,1.329,0.486,1.668,0.802c0.003,0.003,0.003,0.003,0.003,0.003c0.135,0.169,0.248,0.36,0.326,0.564
			C101.655,113.519,101.655,113.548,101.655,113.573z"/>
	</g>
	<g>
		<path class="st5" d="M88.057,114.287v0.564c0,1.191-0.975,2.166-2.163,2.166H79.03c-1.191,0-2.166-0.975-2.166-2.166v-0.564
			c0-0.282,0.056-0.555,0.16-0.802c0.078-0.201,0.188-0.389,0.323-0.555c0.003,0,0.003,0,0.003-0.003
			c0.342-0.317,0.922-0.592,1.671-0.802h6.883c0.746,0.21,1.329,0.486,1.668,0.802c0.003,0.003,0.003,0.003,0.003,0.003
			c0.135,0.169,0.248,0.36,0.326,0.564C88.004,113.742,88.057,114.008,88.057,114.287z"/>
		<path class="st6" d="M87.907,113.573c0,1.031-2.439,1.868-5.445,1.868c-3.009,0-5.445-0.837-5.445-1.868
			c0-0.028,0.003-0.06,0.006-0.088c0.078-0.201,0.188-0.389,0.323-0.555c0.003,0,0.003,0,0.003-0.003
			c0.342-0.317,0.922-0.592,1.671-0.802h0.009c0.937-0.263,2.131-0.42,3.432-0.42c1.301,0,2.495,0.157,3.432,0.42h0.009
			c0.746,0.21,1.329,0.486,1.668,0.802c0.003,0.003,0.003,0.003,0.003,0.003c0.135,0.169,0.248,0.36,0.326,0.564
			C87.907,113.519,87.907,113.548,87.907,113.573z"/>
	</g>
	<g>
		<path class="st5" d="M74.309,114.287v0.564c0,1.191-0.975,2.166-2.163,2.166h-6.865c-1.191,0-2.166-0.975-2.166-2.166v-0.564
			c0-0.282,0.056-0.555,0.16-0.802c0.078-0.201,0.188-0.389,0.323-0.555c0.003,0,0.003,0,0.003-0.003
			c0.342-0.317,0.922-0.592,1.671-0.802h6.883c0.746,0.21,1.329,0.486,1.668,0.802c0.003,0.003,0.003,0.003,0.003,0.003
			c0.135,0.169,0.248,0.36,0.326,0.564C74.255,113.742,74.309,114.008,74.309,114.287z"/>
		<path class="st6" d="M74.158,113.573c0,1.031-2.439,1.868-5.445,1.868c-3.009,0-5.445-0.837-5.445-1.868
			c0-0.028,0.003-0.06,0.006-0.088c0.078-0.201,0.188-0.389,0.323-0.555c0.003,0,0.003,0,0.003-0.003
			c0.342-0.317,0.922-0.592,1.671-0.802h0.009c0.937-0.263,2.131-0.42,3.432-0.42c1.301,0,2.495,0.157,3.432,0.42h0.009
			c0.746,0.21,1.329,0.486,1.668,0.802c0.003,0.003,0.003,0.003,0.003,0.003c0.135,0.169,0.248,0.36,0.326,0.564
			C74.158,113.519,74.158,113.548,74.158,113.573z"/>
	</g>
	<g>
		<path class="st5" d="M60.56,114.287v0.564c0,1.191-0.975,2.166-2.163,2.166h-6.865c-1.191,0-2.166-0.975-2.166-2.166v-0.564
			c0-0.282,0.056-0.555,0.16-0.802c0.078-0.201,0.188-0.389,0.323-0.555c0.003,0,0.003,0,0.003-0.003
			c0.342-0.317,0.922-0.592,1.671-0.802h6.883c0.746,0.21,1.329,0.486,1.668,0.802c0.003,0.003,0.003,0.003,0.003,0.003
			c0.135,0.169,0.248,0.36,0.326,0.564C60.507,113.742,60.56,114.008,60.56,114.287z"/>
		<path class="st6" d="M60.41,113.573c0,1.031-2.439,1.868-5.445,1.868c-3.009,0-5.445-0.837-5.445-1.868
			c0-0.028,0.003-0.06,0.006-0.088c0.078-0.201,0.188-0.389,0.323-0.555c0.003,0,0.003,0,0.003-0.003
			c0.342-0.317,0.922-0.592,1.671-0.802h0.009c0.937-0.263,2.131-0.42,3.432-0.42c1.301,0,2.495,0.157,3.432,0.42h0.009
			c0.746,0.21,1.329,0.486,1.668,0.802c0.003,0.003,0.003,0.003,0.003,0.003c0.135,0.169,0.248,0.36,0.326,0.564
			C60.41,113.519,60.41,113.548,60.41,113.573z"/>
	</g>
</g>
<g id="space_key">
	<path class="st2" d="M148.62,163.077H57.814c-1.42,0-2.582-1.162-2.582-2.582v-7.922c0-1.42,1.162-2.582,2.582-2.582h90.806
		c1.42,0,2.582,1.162,2.582,2.582v7.922C151.202,161.915,150.04,163.077,148.62,163.077z"/>
	<path class="st5" d="M150.217,153.139v7.54c0,0.29-0.07,0.57-0.21,0.81c-0.04,0.08-0.09,0.16-0.14,0.23
		c-0.25,0.33-0.62,0.57-1.03,0.65c-0.12,0.03-0.23,0.04-0.35,0.04h-90.54c-0.12,0-0.23-0.01-0.35-0.04
		c-0.78-0.16-1.38-0.86-1.38-1.69v-7.54c0-0.04,0-0.07,0.01-0.11l0.83,3.04c0,0.33,0.21,0.63,0.54,0.83v-5.45
		c0.12-0.03,0.23-0.04,0.35-0.04h90.54c0.12,0,0.24,0.01,0.35,0.04v5.45c0.33-0.2,0.54-0.5,0.54-0.83l0.83-3.04
		C150.217,153.069,150.217,153.099,150.217,153.139z"/>
	<path class="st6" d="M150.217,152.979l-0.01,0.04v0.01l-0.83,3.04c0,0.61-0.69,1.1-1.54,1.1h-89.24c-0.38,0-0.73-0.1-1-0.27
		c-0.33-0.2-0.54-0.5-0.54-0.83l-0.83-3.04v-0.01l-0.01-0.04c0-0.79,0.61-1.46,1.38-1.55c0.06-0.02,0.12-0.02,0.19-0.02h90.86
		C149.507,151.409,150.217,152.119,150.217,152.979z"/>
	<g id="Layer_12">
		<path class="st9" d="M57.597,156.899v5.47c-0.78-0.16-1.38-0.86-1.38-1.69v-7.7l0.01,0.04v0.01l0.83,3.04
			C57.057,156.399,57.267,156.699,57.597,156.899z"/>
		<path class="st9" d="M150.217,152.979v7.7c0,0.29-0.07,0.57-0.21,0.81c-0.04,0.08-0.09,0.16-0.14,0.23
			c-0.25,0.33-0.62,0.57-1.03,0.65v-5.47c0.33-0.2,0.54-0.5,0.54-0.83l0.83-3.04v-0.01L150.217,152.979z"/>
	</g>
	<g>
	</g>
	<g>
	</g>
	<g>
	</g>
	<g>
	</g>
	<g>
	</g>
</g>
</svg>
