<?xml version="1.0" encoding="utf-8"?>
<!-- Generator: Adobe Illustrator 25.2.1, SVG Export Plug-In . SVG Version: 6.00 Build 0)  -->
<svg version="1.1" id="Layer_4" xmlns="http://www.w3.org/2000/svg" xmlns:xlink="http://www.w3.org/1999/xlink" x="0px" y="0px"
	 viewBox="0 0 24.7 24.7" style="enable-background:new 0 0 24.7 24.7;" xml:space="preserve">
<style type="text/css">
	.st0{fill:#FF5722;}
	.st1{fill:#FFDAB9;}
	.st2{font-family:'Typeka-Regular';}
	.st3{font-size:13px;}
	.st4{fill:#BD2C00;}
</style>
<path class="st0" d="M24.7,13.3v-10c0-1.8-1.5-3.3-3.3-3.3H3.3C1.5,0,0,1.5,0,3.3v18.1c0,1.8,1.5,3.3,3.3,3.3h10L24.7,13.3z"/>
<path class="st1" d="M20.9,12.4c-0.3,0-0.5,0-0.7,0c-0.2,0-0.2,0.1-0.5,0.2c-0.2,0.1-0.3,0.1-0.5,0.2c-0.4,0.1-0.6,0.2-0.7,0.2
	c-1.2,0.1-1.9,0.3-2.9,0.5c-0.6,0.1-1.8,0.2-1.9,0.2c-0.1,0-0.9,0.3-1.4,0.4c-0.2,0.1-0.6,0.3-0.7,0.3s-0.9,0.1-1.4,0.1
	c-0.5,0-1.4,0.3-1.5,0.3c-0.1,0-0.8,0.1-1,0.2c-0.3,0.1-0.8,0.3-0.9,0.3s-0.2-0.1-0.3,0c-0.4,0-0.9,0.1-1.2,0.1
	c-0.1,0-0.3,0.1-0.5,0.2c-0.2,0.1-0.4,0.2-0.5,0.2C4.3,16,3.8,16.5,4,17c0.1,0.2,0.3,0.4,0.4,0.4c0.1,0,0.3,0,0.6,0
	c0.2,0,0.3,0,0.5-0.1c0.1,0,0.4-0.1,0.6-0.2C6.5,17,6.9,17,7.2,16.9c0.3-0.1,0.9-0.3,1-0.4l1.5-0.4c0.1,0,1-0.6,1.5-0.8
	c0.3-0.1,0.7-0.1,1-0.2c0.3-0.1,0.7-0.3,0.8-0.3c0.6-0.1,1.2-0.2,1.7-0.3c0.2-0.1,0.7-0.2,0.7-0.3c0.1,0,1.1-0.1,1.2-0.2
	c0.2-0.1,0.7-0.3,0.9-0.4l1-0.2c0.1,0,0.3,0,0.4-0.1c0.3,0,0.5-0.1,0.8-0.1c0.3,0,0.5-0.1,0.7-0.1c0,0,0.1,0.1,0.2,0
	c0.1,0,0.2-0.1,0.3-0.1c0.3-0.1,0.5-0.2,0.5-0.4C21.6,12.5,21.3,12.3,20.9,12.4z"/>
<path class="st1" d="M5.5,18.8c0.3-0.1,0.5-0.2,0.6-0.2c0.2,0,0.2,0,0.5-0.1c0.2,0,0.3-0.1,0.6-0.1c0.4-0.1,0.6-0.1,0.7-0.2
	c1.1-0.4,1.9-0.6,2.8-0.9c0.5-0.2,1.7-0.6,1.8-0.6c0.1,0,1-0.2,1.4-0.3c0.2-0.1,0.7-0.1,0.8-0.1c0.1,0,0.8-0.3,1.3-0.5
	c0.5-0.2,1.3-0.4,1.4-0.4c0.1,0,0.8-0.2,1-0.3c0.3-0.1,0.8-0.1,0.9-0.2c0.1,0,0.1-0.1,0.2-0.1c0.4-0.2,0.8-0.3,1.1-0.4
	c0.1,0,0.4-0.1,0.5-0.1c0.2,0,0.4-0.1,0.5-0.1c0.1,0,0.7,0.1,0.7,0.4c0,0.2-0.1,0.3-0.2,0.4c-0.1,0.1-0.3,0.1-0.5,0.2
	c-0.1,0.1-0.3,0.1-0.5,0.2c-0.1,0-0.4,0.1-0.6,0.1c-0.4,0.1-0.8,0.2-1.1,0.3c-0.3,0.1-0.9,0.2-1,0.2l-1.5,0.4
	c-0.1,0-1.1,0.1-1.7,0.2c-0.3,0.1-0.7,0.2-1,0.3c-0.3,0.1-0.7,0.1-0.8,0.1c-0.6,0.2-1.2,0.4-1.7,0.5c-0.2,0.1-0.7,0.1-0.8,0.2
	c-0.1,0-1,0.4-1.1,0.4c-0.2,0.1-0.8,0.2-1,0.1l-1,0.3c-0.1,0-0.3,0.1-0.4,0.1c-0.2,0.1-0.5,0.2-0.8,0.2C6.5,19,6.3,19,6.1,19.1
	c0,0,0,0.1-0.1,0.1c-0.1,0-0.2,0-0.3,0c-0.3,0.1-0.5,0.1-0.6,0C4.9,19.1,5.1,18.9,5.5,18.8z"/>
<text transform="matrix(0.9882 -0.153 0.153 0.9882 3.5784 14.2401)" class="st1 st2 st3">nb</text>
<path class="st4" d="M13.3,16.6c0-1.8,1.5-3.3,3.3-3.3l8.1,0L13.3,24.7L13.3,16.6z"/>
</svg>
