<?xml version="1.0" encoding="utf-8"?>
<!-- Generator: Adobe Illustrator 25.2.1, SVG Export Plug-In . SVG Version: 6.00 Build 0)  -->
<svg version="1.1" xmlns="http://www.w3.org/2000/svg" xmlns:xlink="http://www.w3.org/1999/xlink" x="0px" y="0px"
	 viewBox="0 0 15.88 16.235" style="enable-background:new 0 0 15.88 16.235;" xml:space="preserve">
<style type="text/css">
	.st0{fill:#FFDAB9;}
	.st1{fill:#FFFFFF;}
</style>
<g id="Layer_1">
	<g>
		<path class="st0" d="M7.994,10.556c-0.12-0.168-0.216-0.396-0.288-0.456c-0.06-0.06-0.192-0.024-0.252-0.048
			c-0.156-0.048-0.396-0.096-0.479-0.144C6.83,9.848,6.651,9.753,6.591,9.585c-0.06-0.12-0.096-0.252-0.156-0.324
			c-0.036-0.048-0.204-0.276-0.24-0.408C6.147,8.709,6.231,8.517,6.183,8.362c-0.084-0.312-0.18-0.564-0.216-0.72
			c-0.024-0.096,0-0.276-0.012-0.3c-0.216-0.3-0.096-0.444-0.252-0.576C5.619,6.694,5.475,6.598,5.451,6.478
			C5.379,6.443,5.259,6.394,5.187,6.383c-0.024,0.072-0.06,0.18-0.06,0.228c0,0.036,0.108,0.083,0.132,0.132
			c0.072,0.144,0.108,0.324,0.132,0.456c0.024,0.072,0.108,0.144,0.108,0.18c0,0.036-0.168,0.359-0.252,0.492
			C5.103,8.097,4.876,8.313,4.684,8.313c-0.036,0-0.504-0.084-0.552-0.084c-0.12,0-0.24,0-0.324,0.144
			c-0.012,0.012-0.06,0.108-0.096,0.12c0,0.048,0,0.096-0.012,0.12c-0.024,0-0.024,0-0.024,0c-0.024-0.048-0.024-0.096-0.012-0.12
			c-0.048,0-0.108,0-0.144,0c-0.12,0-0.42-0.096-0.492-0.228c-0.096-0.144-0.024-0.312-0.036-0.42
			C2.981,7.822,2.945,7.75,2.908,7.726C2.813,7.822,2.8,8.002,2.765,8.086C2.74,8.134,2.669,8.146,2.633,8.194
			c-0.036,0.048-0.084,0.12-0.108,0.168c-0.036,0.072-0.024,0.18-0.048,0.264C2.465,8.673,2.405,8.709,2.393,8.733
			C2.357,8.805,2.369,8.949,2.369,8.985c0,0.048,0.012,0.168,0.036,0.228c0.06-0.036,0.036-0.192,0.048-0.204
			c0.18-0.168,0.372-0.288,0.576-0.288c0.036,0,0.336,0.048,0.372,0.048c0.036,0,0.168-0.108,0.252-0.132
			c0.072-0.024,0.144-0.012,0.18-0.012c0.036,0,0.251,0.012,0.324,0.024c0.18,0.06,0.492,0.216,0.528,0.216
			c0.036,0,0.228-0.048,0.264-0.048s0.156,0.024,0.228,0.06c0.048,0.024,0.084,0.096,0.096,0.132
			c0.012,0.024,0.024,0.084,0.024,0.108c0.048,0.084,0.108,0.192,0.144,0.252c0.048,0.06,0.096,0.168,0.096,0.204
			c0,0.036-0.048,0.3-0.048,0.456c-0.108,0.084-0.228,0.18-0.276,0.204c-0.096,0.036-0.276,0.12-0.276,0.24c0,0.048,0,0.06,0,0.072
			c0.036,0.096,0.204,0.336,0.324,0.372c0.167,0.06,0.6,0.24,0.923,0.24l0.779-0.096h0.6c0.072,0,0.324-0.084,0.419-0.132
			c0.036-0.024,0.084-0.12,0.084-0.156C8.066,10.736,8.018,10.604,7.994,10.556z"/>
		<path class="st0" d="M3.16,7.582c0.036,0,0.204-0.192,0.204-0.228C3.448,7.102,3.52,6.514,3.52,6.491
			c0-0.012-0.048-0.228-0.108-0.228c-0.036,0-0.168,0.048-0.216,0.084c-0.108,0.12-0.06,0.372-0.084,0.492
			C3.089,6.982,2.981,7.306,2.981,7.342C2.981,7.354,3.076,7.582,3.16,7.582z"/>
		<path class="st0" d="M3.652,5.519c0.12,0.024,0.216,0.012,0.276,0.012C4,5.399,4.216,5.159,4.216,5.015
			c0-0.036-0.06-0.252-0.06-0.288c0-0.096,0.12-0.132,0.24-0.132c0.24,0,0.264,0.42,0.228,0.492
			c0.072,0.096,0.144,0.276,0.156,0.372c0.024,0.144,0.012,0.359,0.156,0.527c0.168,0.072,0.36,0.132,0.516,0.192
			c0.012-0.06,0.036-0.156,0.036-0.192c0-0.108-0.048-0.479-0.072-0.516s-0.096-0.084-0.12-0.108
			c-0.06-0.096-0.084-0.192-0.096-0.276C5.043,4.992,5.055,4.811,5.031,4.703C5.019,4.572,4.971,4.391,4.935,4.32
			c-0.024-0.084-0.12-0.18-0.132-0.228c-0.048-0.204-0.072-0.468-0.096-0.54c-0.06-0.108-0.252-0.276-0.276-0.276
			c-0.036,0-0.192,0.012-0.264,0.06c-0.072,0.06-0.096,0.18-0.144,0.216C3.94,3.636,3.796,3.732,3.76,3.804
			C3.688,3.972,3.628,4.296,3.628,4.332c0,0.036,0.084,0.335,0.084,0.372c0,0.096-0.24,0.312-0.264,0.372
			c-0.024,0.048,0,0.108,0,0.156C3.46,5.255,3.424,5.303,3.424,5.339S3.58,5.495,3.652,5.519z"/>
		<path class="st0" d="M2.837,10.316c-0.024-0.024-0.06-0.06-0.084-0.096c-0.036-0.06-0.06-0.132-0.108-0.18
			C2.597,9.992,2.513,9.945,2.489,9.909C2.465,9.861,2.441,9.777,2.417,9.764c-0.084-0.072-0.18-0.108-0.288-0.156
			c-0.06-0.036-0.168-0.06-0.24-0.072c-0.12,0.12-0.096,0.348-0.288,0.444c-0.156,0.072-0.408,0.012-0.479,0.036
			c-0.317,0.135-0.473,0.207-0.549,0.382l0.299,0.792c0.048-0.002,0.131-0.095,0.237-0.118c0.096-0.024,0.24-0.06,0.276-0.06
			c0.084,0,0.156,0.084,0.372,0.084c0.036,0,0.468-0.012,0.684-0.012c0.072,0,0.156,0.024,0.192,0.024
			c0.048,0,0.432-0.024,0.612-0.084c0.168-0.06,0.192-0.048,0.192-0.18c0-0.036,0-0.084-0.024-0.096
			C3.22,10.592,3.016,10.436,2.837,10.316z"/>
		<path class="st0" d="M15.098,10.053c0-0.06,0.023-0.144,0.023-0.18c0-0.108-0.084-0.324-0.132-0.396
			c-0.06-0.084-0.144-0.132-0.204-0.18c-0.071,0.06-0.132,0.144-0.155,0.18c-0.036,0.12-0.012,0.18-0.108,0.384
			c-0.06,0.132-0.023,0.288-0.071,0.42c-0.072,0.18-0.168,0.132-0.276,0.132c-0.06,0-0.216,0.024-0.288-0.108
			c-0.035-0.06-0.035-0.156-0.06-0.192c-0.168-0.264-0.228-0.396-0.228-0.648c0-0.036,0.035-0.372,0.048-0.551
			c0.012-0.12,0.071-0.24,0.107-0.324l-0.155-0.815c0.035-0.204,0.096-0.576,0.096-0.612c0-0.036-0.048-0.492-0.12-0.708
			c-0.06-0.18-0.204-0.348-0.3-0.516c-0.191-0.084-0.443,0.024-0.575-0.252c-0.024-0.06-0.156-0.12-0.204-0.132
			c-0.084-0.024-0.216-0.06-0.252-0.06c-0.108,0-0.216,0.18-0.252,0.18c-0.06,0-0.348-0.18-0.588-0.18
			c-0.048,0-0.239,0.024-0.275,0.024c-0.097,0-0.36-0.048-0.396-0.048c-0.035,0-0.144,0.036-0.203,0.036
			c-0.108,0.024-0.252,0-0.349,0.012c-0.083,0.012-0.18,0.048-0.228,0.084c-0.096,0.06-0.18,0.156-0.252,0.18
			c-0.096,0.024-0.228,0-0.275,0.024s-0.12,0.096-0.132,0.132C9.197,6.202,9.101,6.335,9.101,6.491c0,0.048,0.061,0.156,0.072,0.24
			c0,0.384,0.012,0.432,0.012,0.48c0.061-0.012,0.216,0.144,0.264,0.156C9.546,7.39,9.653,7.378,9.713,7.402
			c0.072,0.012,0.217,0.096,0.252,0.096c0.049,0,0.204-0.072,0.24-0.156C10.3,7.138,10.3,6.887,10.3,6.826
			c-0.012-0.18,0-0.432,0.192-0.528c0.048-0.024,0.191-0.012,0.228-0.024c0.072-0.036,0.468-0.288,0.516-0.288
			s0.348,0.108,0.444,0.132c0.239,0.036,0.575,0.036,0.791,0.083c0.108,0.024,0.192,0.108,0.276,0.168
			c0.071,0.048,0.203,0.144,0.228,0.204c0.132,0.312,0.084,0.276,0.084,0.456c0,0.348-0.036,0.456-0.563,0.72
			c-0.108,0.048-0.168,0.144-0.229,0.18c-0.023,0.012-0.084,0.024-0.107,0.036c-0.145,0.084-0.396,0.216-0.42,0.216
			c-0.036,0-0.216-0.096-0.252-0.096S11.068,8.17,11.02,8.17c-0.036,0-0.359-0.06-0.396-0.06c-0.048,0-0.108,0.012-0.145,0.012
			c-0.035,0-0.239-0.083-0.275-0.083s-0.191,0.024-0.252,0.06c-0.18,0.084-0.372,0.192-0.516,0.3
			C9.246,8.554,9.09,8.505,8.922,8.554c-0.096,0.108-0.072,0.252-0.12,0.335c-0.036,0.048-0.108,0.108-0.12,0.144
			C8.646,9.105,8.658,9.237,8.646,9.321c0,0.492-0.024,0.503-0.024,0.552c0,0.036,0.036,0.132,0.06,0.167
			c0.18,0.192,0.18,0.288,0.324,0.456c0.023,0.036,0.023,0.12,0.06,0.144c0.145,0.132,0.372,0.18,0.552,0.228
			c0.132,0.036,0.276,0.108,0.396,0.18c0.06,0.036,0.155,0.144,0.191,0.144s0.216-0.096,0.252-0.096
			c0.048,0,0.168,0.084,0.252,0.132c0.072,0.036,0.18,0.036,0.264,0.048c0.06-0.108,0.168-0.264,0.252-0.36
			c0.156,0.072,0.18,0.06,0.275,0.06c0.336,0,0.133-0.036,0.72-0.24c0.024-0.048,0.048-0.12,0.061-0.156
			c0.023-0.072,0.18-0.216,0.275-0.216c0.192,0,0.492,0.048,0.695,0.288c0.036,0.048,0.12,0.06,0.133,0.096
			c0.06,0.132,0.084,0.3,0.119,0.419c0.097,0,0.288,0.024,0.324,0.024c0.027,0,0.185,0,0.319-0.02l0.291-0.318
			c-0.024-0.064-0.029-0.132,0.099-0.226c0.02,0.01,0.05,0.022,0.077,0.034l0.484-0.529C15.096,10.107,15.095,10.084,15.098,10.053z
			 M13.011,9.225c-0.061,0.096-0.18,0.144-0.264,0.18c-0.024,0.06-0.072,0.132-0.084,0.192c-0.013,0.084,0.048,0.204,0.023,0.3
			c-0.048,0.204-0.359,0.144-0.479,0.216c-0.036,0.024-0.072,0.096-0.12,0.12c-0.144,0.048-0.288,0.084-0.432,0.132
			c-0.048,0.012-0.12,0.048-0.168,0.084c-0.072,0.036-0.132,0.12-0.191,0.144c-0.097,0.036-0.276,0.096-0.324,0.096
			c-0.156,0-0.359-0.048-0.516-0.216c-0.036-0.036-0.12-0.048-0.192-0.108c-0.035-0.024-0.035-0.108-0.06-0.168
			c-0.012-0.036-0.036-0.072-0.084-0.084C10.085,10.1,9.977,10.137,9.929,10.1c-0.108-0.108-0.217-0.324-0.3-0.492
			C9.617,9.573,9.617,9.501,9.617,9.465c0-0.024,0.013-0.108,0.036-0.144c0.048-0.06,0.108-0.12,0.144-0.192
			c0.024-0.06,0.108-0.324,0.168-0.324c0.049,0,0.156,0.036,0.24,0.06c0-0.024,0.228-0.204,0.275-0.204
			c0.036,0,0.192,0.084,0.24,0.084c0.036,0,0.479-0.24,0.516-0.24s0.204,0.048,0.24,0.048c0.048,0,0.216-0.132,0.252-0.132
			c0.023,0,0.191,0.144,0.287,0.144c0.217,0,0.396-0.156,0.492-0.156c0.024,0,0.288,0.084,0.42,0.168
			c0.06,0.024,0.12,0.18,0.12,0.264c0,0.156-0.072,0.168-0.132,0.252C12.927,9.129,12.987,9.177,13.011,9.225z"/>
	</g>
</g>
<g id="Layer_2">
	<path class="st0" d="M15.88,7.94c0,0.09,0,0.18-0.01,0.27c-0.11,0.69-0.43,1.82-1.38,2.71c-0.12,0.1-0.23,0.2-0.35,0.28
		c0.52-0.97,0.81-2.08,0.81-3.26c0-3.86-3.14-7.01-7.01-7.01S0.93,4.08,0.93,7.94c0,3.87,3.14,7.02,7.01,7.02
		c0.75,0,1.48-0.12,2.16-0.35l-0.42-0.72c-0.02-0.04,0.01-0.1,0.06-0.1h2.67c0.05,0,0.08,0.06,0.05,0.1l-1.33,2.31
		c-0.03,0.05-0.09,0.05-0.11,0l-0.44-0.76c-0.82,0.29-1.71,0.45-2.64,0.45C3.56,15.89,0,12.32,0,7.94S3.56,0,7.94,0
		S15.88,3.56,15.88,7.94z"/>
	<polygon id="hide_artifact" class="st1" points="14.124,11.194 14.357,11.043 14.216,11.26 	"/>
	<g>
	</g>
	<g>
	</g>
	<g>
	</g>
	<g>
	</g>
	<g>
	</g>
</g>
</svg>
