<?xml version="1.0" encoding="utf-8"?>
<!-- Generator: Adobe Illustrator 25.2.1, SVG Export Plug-In . SVG Version: 6.00 Build 0)  -->
<svg version="1.1" xmlns="http://www.w3.org/2000/svg" xmlns:xlink="http://www.w3.org/1999/xlink" x="0px" y="0px"
	 viewBox="0 0 18.649 18.649" style="enable-background:new 0 0 18.649 18.649;" xml:space="preserve">
<style type="text/css">
	.st0{fill:url(#SVGID_1_);}
	.st1{fill:#FFDAB9;}
</style>
<g id="Layer_3">
	<radialGradient id="SVGID_1_" cx="9.3247" cy="9.3247" r="9.3247" gradientUnits="userSpaceOnUse">
		<stop  offset="0" style="stop-color:#FF5722"/>
		<stop  offset="1" style="stop-color:#BD2C00"/>
	</radialGradient>
	<circle class="st0" cx="9.325" cy="9.325" r="9.325"/>
</g>
<g id="Layer_1">
	<g>
		<path class="st1" d="M9.378,11.764c-0.12-0.168-0.216-0.396-0.288-0.456c-0.06-0.06-0.192-0.024-0.252-0.048
			c-0.156-0.048-0.396-0.096-0.479-0.144c-0.144-0.06-0.324-0.156-0.384-0.324c-0.06-0.12-0.096-0.252-0.156-0.324
			c-0.036-0.048-0.204-0.276-0.24-0.408C7.531,9.916,7.615,9.725,7.567,9.569c-0.084-0.312-0.18-0.564-0.216-0.72
			c-0.024-0.096,0-0.276-0.012-0.3c-0.216-0.3-0.096-0.444-0.252-0.576C7.003,7.901,6.86,7.806,6.836,7.685
			C6.764,7.65,6.644,7.601,6.572,7.59c-0.024,0.072-0.06,0.18-0.06,0.228c0,0.036,0.108,0.083,0.132,0.132
			c0.072,0.144,0.108,0.324,0.132,0.456C6.8,8.477,6.884,8.549,6.884,8.585c0,0.036-0.168,0.359-0.252,0.492
			C6.488,9.305,6.26,9.52,6.068,9.52c-0.036,0-0.504-0.084-0.552-0.084c-0.12,0-0.24,0-0.324,0.144
			c-0.012,0.012-0.06,0.108-0.096,0.12c0,0.048,0,0.096-0.012,0.12c-0.024,0-0.024,0-0.024,0c-0.024-0.048-0.024-0.096-0.012-0.12
			c-0.048,0-0.108,0-0.144,0c-0.12,0-0.42-0.096-0.492-0.228c-0.096-0.144-0.024-0.312-0.036-0.42
			c-0.012-0.024-0.048-0.096-0.084-0.12c-0.096,0.096-0.108,0.276-0.144,0.36c-0.024,0.048-0.096,0.06-0.132,0.108
			C3.982,9.449,3.933,9.52,3.909,9.569c-0.036,0.072-0.024,0.18-0.048,0.264C3.849,9.88,3.79,9.916,3.777,9.94
			c-0.036,0.072-0.024,0.216-0.024,0.252c0,0.048,0.012,0.168,0.036,0.228c0.06-0.036,0.036-0.192,0.048-0.204
			c0.18-0.168,0.372-0.288,0.576-0.288c0.036,0,0.336,0.048,0.372,0.048c0.036,0,0.168-0.108,0.252-0.132
			c0.072-0.024,0.144-0.012,0.18-0.012c0.036,0,0.251,0.012,0.324,0.024c0.18,0.06,0.492,0.216,0.528,0.216
			c0.036,0,0.228-0.048,0.264-0.048s0.156,0.024,0.228,0.06c0.048,0.024,0.084,0.096,0.096,0.132C6.668,10.24,6.68,10.3,6.68,10.324
			c0.048,0.084,0.108,0.192,0.144,0.252c0.048,0.06,0.096,0.168,0.096,0.204c0,0.036-0.048,0.3-0.048,0.456
			c-0.108,0.084-0.228,0.18-0.276,0.204C6.5,11.475,6.32,11.559,6.32,11.68c0,0.048,0,0.06,0,0.072
			c0.036,0.096,0.204,0.336,0.324,0.372c0.167,0.06,0.6,0.24,0.923,0.24l0.779-0.096h0.6c0.072,0,0.324-0.084,0.419-0.132
			c0.036-0.024,0.084-0.12,0.084-0.156C9.45,11.943,9.402,11.811,9.378,11.764z"/>
		<path class="st1" d="M4.545,8.789c0.036,0,0.204-0.192,0.204-0.228c0.084-0.251,0.156-0.839,0.156-0.863
			c0-0.012-0.048-0.228-0.108-0.228c-0.036,0-0.168,0.048-0.216,0.084c-0.108,0.12-0.06,0.372-0.084,0.492
			C4.473,8.189,4.365,8.513,4.365,8.549C4.365,8.561,4.461,8.789,4.545,8.789z"/>
		<path class="st1" d="M5.037,6.726c0.12,0.024,0.216,0.012,0.276,0.012c0.072-0.132,0.288-0.372,0.288-0.516
			c0-0.036-0.06-0.252-0.06-0.288c0-0.096,0.12-0.132,0.24-0.132c0.24,0,0.264,0.42,0.228,0.492C6.08,6.391,6.152,6.57,6.164,6.666
			C6.188,6.81,6.176,7.026,6.32,7.194c0.168,0.072,0.36,0.132,0.516,0.192c0.012-0.06,0.036-0.156,0.036-0.192
			c0-0.108-0.048-0.479-0.072-0.516S6.704,6.594,6.68,6.57C6.62,6.475,6.596,6.378,6.584,6.294C6.428,6.199,6.44,6.018,6.416,5.911
			C6.404,5.779,6.356,5.599,6.32,5.527C6.296,5.443,6.2,5.347,6.188,5.299C6.14,5.095,6.116,4.831,6.092,4.759
			C6.032,4.651,5.84,4.483,5.816,4.483c-0.036,0-0.192,0.012-0.264,0.06c-0.072,0.06-0.096,0.18-0.144,0.216
			c-0.084,0.084-0.228,0.18-0.264,0.252C5.073,5.179,5.013,5.503,5.013,5.539c0,0.036,0.084,0.335,0.084,0.372
			c0,0.096-0.24,0.312-0.264,0.372c-0.024,0.048,0,0.108,0,0.156C4.845,6.462,4.809,6.51,4.809,6.546S4.965,6.702,5.037,6.726z"/>
		<path class="st1" d="M4.221,11.523c-0.024-0.024-0.06-0.06-0.084-0.096c-0.036-0.06-0.06-0.132-0.108-0.18
			c-0.048-0.048-0.132-0.096-0.156-0.132c-0.024-0.048-0.048-0.132-0.072-0.144c-0.084-0.072-0.18-0.108-0.288-0.156
			c-0.06-0.036-0.168-0.06-0.24-0.072c-0.12,0.12-0.096,0.348-0.288,0.444C2.83,11.26,2.578,11.2,2.506,11.224
			c-0.317,0.135-0.473,0.207-0.549,0.382l0.299,0.792c0.048-0.002,0.131-0.095,0.237-0.118c0.096-0.024,0.24-0.06,0.276-0.06
			c0.084,0,0.156,0.084,0.372,0.084c0.036,0,0.468-0.012,0.684-0.012c0.072,0,0.156,0.024,0.192,0.024
			c0.048,0,0.432-0.024,0.612-0.084c0.168-0.06,0.192-0.048,0.192-0.18c0-0.036,0-0.084-0.024-0.096
			C4.605,11.799,4.401,11.643,4.221,11.523z"/>
		<path class="st1" d="M16.483,11.26c0-0.06,0.023-0.144,0.023-0.18c0-0.108-0.084-0.324-0.132-0.396
			c-0.06-0.084-0.144-0.132-0.204-0.18c-0.071,0.06-0.132,0.144-0.155,0.18c-0.036,0.12-0.012,0.18-0.108,0.384
			c-0.06,0.132-0.023,0.288-0.071,0.42c-0.072,0.18-0.168,0.132-0.276,0.132c-0.06,0-0.216,0.024-0.288-0.108
			c-0.035-0.06-0.035-0.156-0.06-0.192c-0.168-0.264-0.228-0.396-0.228-0.648c0-0.036,0.035-0.372,0.048-0.551
			c0.012-0.12,0.071-0.24,0.107-0.324l-0.155-0.815c0.035-0.204,0.096-0.576,0.096-0.612c0-0.036-0.048-0.492-0.12-0.708
			c-0.06-0.18-0.204-0.348-0.3-0.516c-0.191-0.084-0.443,0.024-0.575-0.252c-0.024-0.06-0.156-0.12-0.204-0.132
			c-0.084-0.024-0.216-0.06-0.252-0.06c-0.108,0-0.216,0.18-0.252,0.18c-0.06,0-0.348-0.18-0.588-0.18
			c-0.048,0-0.239,0.024-0.275,0.024c-0.097,0-0.36-0.048-0.396-0.048c-0.035,0-0.144,0.036-0.203,0.036
			c-0.108,0.024-0.252,0-0.349,0.012c-0.083,0.012-0.18,0.048-0.228,0.084c-0.096,0.06-0.18,0.156-0.252,0.18
			c-0.096,0.024-0.228,0-0.275,0.024s-0.12,0.096-0.132,0.132c-0.097,0.264-0.192,0.396-0.192,0.552c0,0.048,0.061,0.156,0.072,0.24
			c0,0.384,0.012,0.432,0.012,0.48c0.061-0.012,0.216,0.144,0.264,0.156c0.097,0.024,0.204,0.012,0.264,0.036
			c0.072,0.012,0.217,0.096,0.252,0.096c0.049,0,0.204-0.072,0.24-0.156c0.096-0.204,0.096-0.456,0.096-0.516
			c-0.012-0.18,0-0.432,0.192-0.528c0.048-0.024,0.191-0.012,0.228-0.024c0.072-0.036,0.468-0.288,0.516-0.288
			s0.348,0.108,0.444,0.132c0.239,0.036,0.575,0.036,0.791,0.083c0.108,0.024,0.192,0.108,0.276,0.168
			c0.071,0.048,0.203,0.144,0.228,0.204c0.132,0.312,0.084,0.276,0.084,0.456c0,0.348-0.036,0.456-0.563,0.72
			c-0.108,0.048-0.168,0.144-0.229,0.18c-0.023,0.012-0.084,0.024-0.107,0.036c-0.145,0.084-0.396,0.216-0.42,0.216
			c-0.036,0-0.216-0.096-0.252-0.096s-0.42,0.084-0.468,0.084c-0.036,0-0.359-0.06-0.396-0.06c-0.048,0-0.108,0.012-0.145,0.012
			c-0.035,0-0.239-0.083-0.275-0.083s-0.191,0.024-0.252,0.06c-0.18,0.084-0.372,0.192-0.516,0.3
			c-0.191,0.156-0.348,0.108-0.516,0.156c-0.096,0.108-0.072,0.252-0.12,0.335c-0.036,0.048-0.108,0.108-0.12,0.144
			c-0.036,0.072-0.024,0.204-0.036,0.288c0,0.492-0.024,0.503-0.024,0.552c0,0.036,0.036,0.132,0.06,0.167
			c0.18,0.192,0.18,0.288,0.324,0.456c0.023,0.036,0.023,0.12,0.06,0.144c0.145,0.132,0.372,0.18,0.552,0.228
			c0.132,0.036,0.276,0.108,0.396,0.18c0.06,0.036,0.155,0.144,0.191,0.144s0.216-0.096,0.252-0.096
			c0.048,0,0.168,0.084,0.252,0.132c0.072,0.036,0.18,0.036,0.264,0.048c0.06-0.108,0.168-0.264,0.252-0.36
			c0.156,0.072,0.18,0.06,0.275,0.06c0.336,0,0.133-0.036,0.72-0.24c0.024-0.048,0.048-0.12,0.061-0.156
			c0.023-0.072,0.18-0.216,0.275-0.216c0.192,0,0.492,0.048,0.695,0.288c0.036,0.048,0.12,0.06,0.133,0.096
			c0.06,0.132,0.084,0.3,0.119,0.419c0.097,0,0.288,0.024,0.324,0.024c0.027,0,0.185,0,0.319-0.02l0.291-0.318
			c-0.024-0.064-0.029-0.132,0.099-0.226c0.02,0.01,0.05,0.022,0.077,0.034l0.484-0.529C16.48,11.314,16.48,11.291,16.483,11.26z
			 M14.396,10.432c-0.061,0.096-0.18,0.144-0.264,0.18c-0.024,0.06-0.072,0.132-0.084,0.192c-0.013,0.084,0.048,0.204,0.023,0.3
			c-0.048,0.204-0.359,0.144-0.479,0.216c-0.036,0.024-0.072,0.096-0.12,0.12c-0.144,0.048-0.288,0.084-0.432,0.132
			c-0.048,0.012-0.12,0.048-0.168,0.084c-0.072,0.036-0.132,0.12-0.191,0.144c-0.097,0.036-0.276,0.096-0.324,0.096
			c-0.156,0-0.359-0.048-0.516-0.216c-0.036-0.036-0.12-0.048-0.192-0.108c-0.035-0.024-0.035-0.108-0.06-0.168
			c-0.012-0.036-0.036-0.072-0.084-0.084c-0.036-0.012-0.144,0.024-0.191-0.012c-0.108-0.108-0.217-0.324-0.3-0.492
			c-0.013-0.036-0.013-0.108-0.013-0.144c0-0.024,0.013-0.108,0.036-0.144c0.048-0.06,0.108-0.12,0.144-0.192
			c0.024-0.06,0.108-0.324,0.168-0.324c0.049,0,0.156,0.036,0.24,0.06c0-0.024,0.228-0.204,0.275-0.204
			c0.036,0,0.192,0.084,0.24,0.084c0.036,0,0.479-0.24,0.516-0.24s0.204,0.048,0.24,0.048c0.048,0,0.216-0.132,0.252-0.132
			c0.023,0,0.191,0.144,0.287,0.144c0.217,0,0.396-0.156,0.492-0.156c0.024,0,0.288,0.084,0.42,0.168
			c0.06,0.024,0.12,0.18,0.12,0.264c0,0.156-0.072,0.168-0.132,0.252C14.312,10.336,14.372,10.384,14.396,10.432z"/>
	</g>
</g>
<g id="Layer_2">
	<path class="st1" d="M17.265,9.147c0,0.09,0,0.18-0.01,0.27c-0.11,0.69-0.43,1.82-1.38,2.71c-0.12,0.1-0.23,0.2-0.35,0.28
		c0.52-0.97,0.81-2.08,0.81-3.26c0-3.86-3.14-7.01-7.01-7.01s-7.01,3.15-7.01,7.01c0,3.87,3.14,7.02,7.01,7.02
		c0.75,0,1.48-0.12,2.16-0.35l-0.42-0.72c-0.02-0.04,0.01-0.1,0.06-0.1h2.67c0.05,0,0.08,0.06,0.05,0.1l-1.33,2.31
		c-0.03,0.05-0.09,0.05-0.11,0l-0.44-0.76c-0.82,0.29-1.71,0.45-2.64,0.45c-4.38,0-7.94-3.57-7.94-7.95s3.56-7.94,7.94-7.94
		S17.265,4.767,17.265,9.147z"/>
	<polygon id="hide_artifact" class="st1" points="15.509,12.401 15.742,12.25 15.6,12.468 	"/>
	<g>
	</g>
	<g>
	</g>
	<g>
	</g>
	<g>
	</g>
	<g>
	</g>
</g>
</svg>
