<?xml version="1.0" encoding="utf-8"?>
<!-- Generator: Adobe Illustrator 25.2.1, SVG Export Plug-In . SVG Version: 6.00 Build 0)  -->
<svg version="1.1" xmlns="http://www.w3.org/2000/svg" xmlns:xlink="http://www.w3.org/1999/xlink" x="0px" y="0px"
	 viewBox="0 0 227.963 175.469" style="enable-background:new 0 0 227.963 175.469;" xml:space="preserve">
<style type="text/css">
	.st0{fill:#6DC9BA;}
	.st1{fill:#5AE7BD;}
	.st2{fill:#21213D;}
	.st3{fill:#2F3533;}
	.st4{fill:#ECECEC;}
	.st5{fill:#15152F;}
	.st6{fill:#B3B3B3;}
	.st7{fill:#E6E6E6;}
	.st8{display:none;fill:#B3B3B3;}
	.st9{display:none;fill:#E6E6E6;}
	.st10{fill:#666666;}
	.st11{fill:#0E182B;stroke:#B96D00;stroke-width:0.5;stroke-miterlimit:10;}
	.st12{fill:#B96D00;stroke:#B96D00;stroke-width:0.5;stroke-miterlimit:10;}
</style>
<g id="Layer_3">
	<path class="st0" d="M226.538,161.185c-0.542,1.537-1.403,3.723-3.381,6.231c-3.017,3.833-7.724,7.007-13.603,7.86
		c-0.873,0.118-1.613,0.169-2.111,0.194H20.52c-0.508-0.025-1.238-0.076-2.111-0.194c-5.879-0.853-10.586-4.027-13.603-7.86
		c-1.978-2.507-2.84-4.694-3.381-6.231c-1.392-3.875-1.448-7.598-1.414-7.666c0.033,0,2.354,1.857,3.978,2.862
		c4.597,2.828,5.868,3.546,8.055,4.837c10.288,6.062,18.785,3.082,51.98,3.242c21.216,0.101,29.614,1.764,40.963-1.03
		c2.022-0.49,4.133-1.131,6.42-1.942c0.895-0.321,1.757-0.65,2.575-0.979c0.818,0.329,1.68,0.658,2.575,0.979
		c2.287,0.81,4.398,1.452,6.42,1.942c11.348,2.795,19.746,1.131,40.963,1.03c33.183-0.16,41.692,2.82,51.98-3.242
		c2.188-1.292,3.459-2.009,8.056-4.837c1.624-1.005,3.945-2.862,3.978-2.862C227.985,153.587,227.93,157.31,226.538,161.185z"/>
	<path class="st1" d="M226.394,158.45c-3.779,4.812-11.625,6.467-16.885,7.117H18.454c-5.26-0.65-13.116-2.305-16.885-7.117
		c-3.127-3.985-1.768-7.978,5.779-26.687c8.663-21.461,11.039-24.061,13.061-28.485c2.707-5.901,5.558-17.569,16.255-17.569h68.312
		c0,0,7.47,0,18.012,0h68.312c10.696,0,13.547,11.667,16.255,17.569c2.022,4.424,4.398,7.024,13.05,28.485
		C228.162,150.471,229.521,154.465,226.394,158.45z"/>
	<path class="st2" d="M214.622,153.634c-2.115,2.324-5.651,3.695-9.156,4.519c-2.935,0.69-6.006,0.98-9.077,0.98H31.572
		c-3.069,0-6.138-0.29-9.072-0.979c-3.508-0.824-7.049-2.195-9.158-4.52c-2.8-3.079-1.583-6.164,5.174-20.619
		c7.756-16.581,9.883-18.591,11.693-22.009c2.424-4.56,4.976-13.574,14.552-13.574h61.158c0,0,6.688,0,16.125,0h61.158
		c9.576,0,12.129,9.015,14.552,13.574c1.81,3.418,3.937,5.427,11.683,22.009C216.205,147.47,217.422,150.555,214.622,153.634z"/>
	<path class="st1" d="M208.559,124.563c0,0-47.283,0-94.578,0c-47.294,0-94.578,0-94.578,0c2.619-14.125,5.669-28.14,7.812-42.423
		c1.58-10.547,5.304-18.461,13.746-18.461H187c8.442,0,12.166,7.914,13.746,18.461C202.89,96.423,205.94,110.438,208.559,124.563z"
		/>
</g>
<g id="paper">
	<rect x="38.306" y="83.102" class="st3" width="151.35" height="3.646"/>
	<path class="st4" d="M184.285,95.33H43.825c-1.003,0-1.823-0.82-1.823-1.823V1.823C42.002,0.82,42.823,0,43.825,0h140.46
		c1.003,0,1.823,0.82,1.823,1.823v91.684C186.108,94.51,185.288,95.33,184.285,95.33z"/>
</g>
<g id="Layer_7">
	<path class="st1" d="M113.981,94.417l-0.764,11.681l-74.083-3.97c-0.309-0.017-0.606-0.039-0.904-0.062
		c-5.929-0.455-9.979-4.191-9.419-7.707c0.402-2.524,3.245-4.085,6.078-5.644c3.11-1.712,6.492-3.533,9.964-5.09
		c3.934-1.765,6.796-1.936,11.646-2.073c14.417-0.407,28.961-0.462,43.424-0.463c0.39,0,0.78,0.001,1.17,0.003
		c1.306,0.008,5.344,0.039,5.693,0.799c0.037,0.105,0.03,0.221-0.056,0.347c-0.466,0.688-2.233,0.793-3.267,0.867
		c-9.151,0.628-18.414,0.762-27.215,2.472c-1.098,0.209-2.189,0.473-3.05,0.934c-1.848,1.005-1.735,2.493,0.645,3.162
		c0.011,0.007,0.032,0.015,0.043,0.016C82.566,91.712,97.259,93.521,113.981,94.417z"/>
	<path class="st1" d="M113.981,94.417l0.764,11.681l74.083-3.97c0.309-0.017,0.606-0.039,0.904-0.062
		c5.929-0.455,9.979-4.191,9.419-7.707c-0.402-2.524-3.245-4.085-6.078-5.644c-3.11-1.712-6.492-3.533-9.964-5.09
		c-3.934-1.765-6.796-1.936-11.646-2.073c-14.417-0.407-28.961-0.462-43.424-0.463c-0.39,0-0.78,0.001-1.17,0.003
		c-1.306,0.008-5.344,0.039-5.693,0.799c-0.037,0.105-0.03,0.221,0.056,0.347c0.466,0.688,2.233,0.793,3.267,0.867
		c9.151,0.628,18.414,0.762,27.215,2.472c1.098,0.209,2.189,0.473,3.05,0.934c1.848,1.005,1.735,2.493-0.645,3.162
		c-0.011,0.007-0.032,0.015-0.043,0.016C145.396,91.712,130.704,93.521,113.981,94.417z"/>
	<rect x="113.908" y="94.419" class="st1" width="0.148" height="0.911"/>
</g>
<g id="key_stems">
	<rect x="51.436" y="117.821" class="st5" width="0.958" height="4.939"/>
	<rect x="65.185" y="117.821" class="st5" width="0.958" height="4.939"/>
	<rect x="78.944" y="117.821" class="st5" width="0.958" height="4.939"/>
	<rect x="92.739" y="117.821" class="st5" width="0.958" height="4.939"/>
	<rect x="106.428" y="117.821" class="st5" width="0.958" height="4.939"/>
	<rect x="120.177" y="117.821" class="st5" width="0.958" height="4.939"/>
	<rect x="133.925" y="117.821" class="st5" width="0.958" height="4.939"/>
	<rect x="147.674" y="117.821" class="st5" width="0.958" height="4.939"/>
	<rect x="161.422" y="117.821" class="st5" width="0.958" height="4.939"/>
	<rect x="175.173" y="117.821" class="st5" width="0.958" height="4.939"/>
</g>
<g id="keys_row_4">
	<g>
		<path class="st6" d="M57.51,144.7v0.564c0,1.191-0.975,2.166-2.163,2.166h-6.865c-1.191,0-2.166-0.975-2.166-2.166V144.7
			c0-0.282,0.056-0.555,0.16-0.802c0.078-0.201,0.188-0.389,0.323-0.555c0.003,0,0.003,0,0.003-0.003
			c0.342-0.317,0.922-0.592,1.671-0.802h6.883c0.746,0.21,1.329,0.486,1.668,0.802c0.003,0.003,0.003,0.003,0.003,0.003
			c0.135,0.169,0.248,0.36,0.326,0.564C57.457,144.154,57.51,144.421,57.51,144.7z"/>
		<path class="st7" d="M57.36,143.985c0,1.031-2.439,1.868-5.445,1.868c-3.009,0-5.445-0.837-5.445-1.868
			c0-0.028,0.003-0.06,0.006-0.088c0.078-0.201,0.188-0.389,0.323-0.555c0.003,0,0.003,0,0.003-0.003
			c0.342-0.317,0.922-0.592,1.671-0.802h0.009c0.937-0.263,2.131-0.42,3.432-0.42c1.301,0,2.495,0.157,3.432,0.42h0.009
			c0.746,0.21,1.329,0.486,1.668,0.802c0.003,0.003,0.003,0.003,0.003,0.003c0.135,0.169,0.248,0.36,0.326,0.564
			C57.36,143.932,57.36,143.96,57.36,143.985z"/>
	</g>
	<g>
		<path class="st6" d="M181.247,144.7v0.564c0,1.191-0.975,2.166-2.163,2.166h-6.865c-1.191,0-2.166-0.975-2.166-2.166V144.7
			c0-0.282,0.056-0.555,0.16-0.802c0.078-0.201,0.188-0.389,0.323-0.555c0.003,0,0.003,0,0.003-0.003
			c0.342-0.317,0.922-0.592,1.671-0.802h6.883c0.746,0.21,1.329,0.486,1.668,0.802c0.003,0.003,0.003,0.003,0.003,0.003
			c0.135,0.169,0.248,0.36,0.326,0.564C181.194,144.154,181.247,144.421,181.247,144.7z"/>
		<path class="st7" d="M181.096,143.985c0,1.031-2.439,1.868-5.445,1.868c-3.009,0-5.445-0.837-5.445-1.868
			c0-0.028,0.003-0.06,0.006-0.088c0.078-0.201,0.188-0.389,0.323-0.555c0.003,0,0.003,0,0.003-0.003
			c0.342-0.317,0.922-0.592,1.671-0.802h0.009c0.937-0.263,2.131-0.42,3.432-0.42c1.301,0,2.495,0.157,3.432,0.42h0.009
			c0.746,0.21,1.329,0.486,1.668,0.802c0.003,0.003,0.003,0.003,0.003,0.003c0.135,0.169,0.248,0.36,0.326,0.564
			C181.096,143.932,181.096,143.96,181.096,143.985z"/>
	</g>
	<g>
		<path class="st6" d="M167.498,144.7v0.564c0,1.191-0.975,2.166-2.163,2.166h-6.865c-1.191,0-2.166-0.975-2.166-2.166V144.7
			c0-0.282,0.056-0.555,0.16-0.802c0.078-0.201,0.188-0.389,0.323-0.555c0.003,0,0.003,0,0.003-0.003
			c0.342-0.317,0.922-0.592,1.671-0.802h6.883c0.746,0.21,1.329,0.486,1.668,0.802c0.003,0.003,0.003,0.003,0.003,0.003
			c0.135,0.169,0.248,0.36,0.326,0.564C167.445,144.154,167.498,144.421,167.498,144.7z"/>
		<path class="st7" d="M167.348,143.985c0,1.031-2.439,1.868-5.445,1.868c-3.009,0-5.445-0.837-5.445-1.868
			c0-0.028,0.003-0.06,0.006-0.088c0.078-0.201,0.188-0.389,0.323-0.555c0.003,0,0.003,0,0.003-0.003
			c0.342-0.317,0.922-0.592,1.671-0.802h0.009c0.937-0.263,2.131-0.42,3.432-0.42c1.301,0,2.495,0.157,3.432,0.42h0.009
			c0.746,0.21,1.329,0.486,1.668,0.802c0.003,0.003,0.003,0.003,0.003,0.003c0.135,0.169,0.248,0.36,0.326,0.564
			C167.348,143.932,167.348,143.96,167.348,143.985z"/>
	</g>
	<g>
		<path class="st6" d="M153.75,144.7v0.564c0,1.191-0.975,2.166-2.163,2.166h-6.865c-1.191,0-2.166-0.975-2.166-2.166V144.7
			c0-0.282,0.056-0.555,0.16-0.802c0.078-0.201,0.188-0.389,0.323-0.555c0.003,0,0.003,0,0.003-0.003
			c0.342-0.317,0.922-0.592,1.671-0.802h6.883c0.746,0.21,1.329,0.486,1.668,0.802c0.003,0.003,0.003,0.003,0.003,0.003
			c0.135,0.169,0.248,0.36,0.326,0.564C153.697,144.154,153.75,144.421,153.75,144.7z"/>
		<path class="st7" d="M153.599,143.985c0,1.031-2.439,1.868-5.445,1.868c-3.009,0-5.445-0.837-5.445-1.868
			c0-0.028,0.003-0.06,0.006-0.088c0.078-0.201,0.188-0.389,0.323-0.555c0.003,0,0.003,0,0.003-0.003
			c0.342-0.317,0.922-0.592,1.671-0.802h0.009c0.937-0.263,2.131-0.42,3.432-0.42c1.301,0,2.495,0.157,3.432,0.42h0.009
			c0.746,0.21,1.329,0.486,1.668,0.802c0.003,0.003,0.003,0.003,0.003,0.003c0.135,0.169,0.248,0.36,0.326,0.564
			C153.599,143.932,153.599,143.96,153.599,143.985z"/>
	</g>
	<g>
		<path class="st6" d="M140.001,144.7v0.564c0,1.191-0.975,2.166-2.163,2.166h-6.865c-1.191,0-2.166-0.975-2.166-2.166V144.7
			c0-0.282,0.056-0.555,0.16-0.802c0.078-0.201,0.188-0.389,0.323-0.555c0.003,0,0.003,0,0.003-0.003
			c0.342-0.317,0.922-0.592,1.671-0.802h6.883c0.746,0.21,1.329,0.486,1.668,0.802c0.003,0.003,0.003,0.003,0.003,0.003
			c0.135,0.169,0.248,0.36,0.326,0.564C139.948,144.154,140.001,144.421,140.001,144.7z"/>
		<path class="st7" d="M139.851,143.985c0,1.031-2.439,1.868-5.445,1.868c-3.009,0-5.445-0.837-5.445-1.868
			c0-0.028,0.003-0.06,0.006-0.088c0.078-0.201,0.188-0.389,0.323-0.555c0.003,0,0.003,0,0.003-0.003
			c0.342-0.317,0.922-0.592,1.671-0.802h0.009c0.937-0.263,2.131-0.42,3.432-0.42c1.301,0,2.495,0.157,3.432,0.42h0.009
			c0.746,0.21,1.329,0.486,1.668,0.802c0.003,0.003,0.003,0.003,0.003,0.003c0.135,0.169,0.248,0.36,0.326,0.564
			C139.851,143.932,139.851,143.96,139.851,143.985z"/>
	</g>
	<g>
		<path class="st6" d="M126.253,144.7v0.564c0,1.191-0.975,2.166-2.163,2.166h-6.865c-1.191,0-2.166-0.975-2.166-2.166V144.7
			c0-0.282,0.056-0.555,0.16-0.802c0.078-0.201,0.188-0.389,0.323-0.555c0.003,0,0.003,0,0.003-0.003
			c0.342-0.317,0.922-0.592,1.671-0.802h6.883c0.746,0.21,1.329,0.486,1.668,0.802c0.003,0.003,0.003,0.003,0.003,0.003
			c0.135,0.169,0.248,0.36,0.326,0.564C126.2,144.154,126.253,144.421,126.253,144.7z"/>
		<path class="st7" d="M126.102,143.985c0,1.031-2.439,1.868-5.445,1.868c-3.009,0-5.445-0.837-5.445-1.868
			c0-0.028,0.003-0.06,0.006-0.088c0.078-0.201,0.188-0.389,0.323-0.555c0.003,0,0.003,0,0.003-0.003
			c0.342-0.317,0.922-0.592,1.671-0.802h0.009c0.937-0.263,2.131-0.42,3.432-0.42c1.301,0,2.495,0.157,3.432,0.42h0.009
			c0.746,0.21,1.329,0.486,1.668,0.802c0.003,0.003,0.003,0.003,0.003,0.003c0.135,0.169,0.248,0.36,0.326,0.564
			C126.102,143.932,126.102,143.96,126.102,143.985z"/>
	</g>
	<g>
		<path class="st6" d="M112.504,144.7v0.564c0,1.191-0.975,2.166-2.163,2.166h-6.865c-1.191,0-2.166-0.975-2.166-2.166V144.7
			c0-0.282,0.056-0.555,0.16-0.802c0.078-0.201,0.188-0.389,0.323-0.555c0.003,0,0.003,0,0.003-0.003
			c0.342-0.317,0.922-0.592,1.671-0.802h6.883c0.746,0.21,1.329,0.486,1.668,0.802c0.003,0.003,0.003,0.003,0.003,0.003
			c0.135,0.169,0.248,0.36,0.326,0.564C112.451,144.154,112.504,144.421,112.504,144.7z"/>
		<path class="st7" d="M112.354,143.985c0,1.031-2.439,1.868-5.445,1.868c-3.009,0-5.445-0.837-5.445-1.868
			c0-0.028,0.003-0.06,0.006-0.088c0.078-0.201,0.188-0.389,0.323-0.555c0.003,0,0.003,0,0.003-0.003
			c0.342-0.317,0.922-0.592,1.671-0.802h0.009c0.937-0.263,2.131-0.42,3.432-0.42c1.301,0,2.495,0.157,3.432,0.42h0.009
			c0.746,0.21,1.329,0.486,1.668,0.802c0.003,0.003,0.003,0.003,0.003,0.003c0.135,0.169,0.248,0.36,0.326,0.564
			C112.354,143.932,112.354,143.96,112.354,143.985z"/>
	</g>
	<g>
		<path class="st6" d="M98.756,144.7v0.564c0,1.191-0.975,2.166-2.163,2.166h-6.865c-1.191,0-2.166-0.975-2.166-2.166V144.7
			c0-0.282,0.056-0.555,0.16-0.802c0.078-0.201,0.188-0.389,0.323-0.555c0.003,0,0.003,0,0.003-0.003
			c0.342-0.317,0.922-0.592,1.671-0.802h6.883c0.746,0.21,1.329,0.486,1.668,0.802c0.003,0.003,0.003,0.003,0.003,0.003
			c0.135,0.169,0.248,0.36,0.326,0.564C98.703,144.154,98.756,144.421,98.756,144.7z"/>
		<path class="st7" d="M98.605,143.985c0,1.031-2.439,1.868-5.445,1.868c-3.009,0-5.445-0.837-5.445-1.868
			c0-0.028,0.003-0.06,0.006-0.088c0.078-0.201,0.188-0.389,0.323-0.555c0.003,0,0.003,0,0.003-0.003
			c0.342-0.317,0.922-0.592,1.671-0.802h0.009c0.937-0.263,2.131-0.42,3.432-0.42c1.301,0,2.495,0.157,3.432,0.42h0.009
			c0.746,0.21,1.329,0.486,1.668,0.802c0.003,0.003,0.003,0.003,0.003,0.003c0.135,0.169,0.248,0.36,0.326,0.564
			C98.605,143.932,98.605,143.96,98.605,143.985z"/>
	</g>
	<g>
		<path class="st6" d="M85.007,144.7v0.564c0,1.191-0.975,2.166-2.163,2.166H75.98c-1.191,0-2.166-0.975-2.166-2.166V144.7
			c0-0.282,0.056-0.555,0.16-0.802c0.078-0.201,0.188-0.389,0.323-0.555c0.003,0,0.003,0,0.003-0.003
			c0.342-0.317,0.922-0.592,1.671-0.802h6.883c0.746,0.21,1.329,0.486,1.668,0.802c0.003,0.003,0.003,0.003,0.003,0.003
			c0.135,0.169,0.248,0.36,0.326,0.564C84.954,144.154,85.007,144.421,85.007,144.7z"/>
		<path class="st7" d="M84.857,143.985c0,1.031-2.439,1.868-5.445,1.868c-3.009,0-5.445-0.837-5.445-1.868
			c0-0.028,0.003-0.06,0.006-0.088c0.078-0.201,0.188-0.389,0.323-0.555c0.003,0,0.003,0,0.003-0.003
			c0.342-0.317,0.922-0.592,1.671-0.802h0.009c0.937-0.263,2.131-0.42,3.432-0.42c1.301,0,2.495,0.157,3.432,0.42h0.009
			c0.746,0.21,1.329,0.486,1.668,0.802c0.003,0.003,0.003,0.003,0.003,0.003c0.135,0.169,0.248,0.36,0.326,0.564
			C84.857,143.932,84.857,143.96,84.857,143.985z"/>
	</g>
	<g>
		<path class="st6" d="M71.259,144.7v0.564c0,1.191-0.975,2.166-2.163,2.166h-6.865c-1.191,0-2.166-0.975-2.166-2.166V144.7
			c0-0.282,0.056-0.555,0.16-0.802c0.078-0.201,0.188-0.389,0.323-0.555c0.003,0,0.003,0,0.003-0.003
			c0.342-0.317,0.922-0.592,1.671-0.802h6.883c0.746,0.21,1.329,0.486,1.668,0.802c0.003,0.003,0.003,0.003,0.003,0.003
			c0.135,0.169,0.248,0.36,0.326,0.564C71.206,144.154,71.259,144.421,71.259,144.7z"/>
		<path class="st7" d="M71.108,143.985c0,1.031-2.439,1.868-5.445,1.868c-3.009,0-5.445-0.837-5.445-1.868
			c0-0.028,0.003-0.06,0.006-0.088c0.078-0.201,0.188-0.389,0.323-0.555c0.003,0,0.003,0,0.003-0.003
			c0.342-0.317,0.922-0.592,1.671-0.802h0.009c0.937-0.263,2.131-0.42,3.432-0.42c1.301,0,2.495,0.157,3.432,0.42h0.009
			c0.746,0.21,1.329,0.486,1.668,0.802c0.003,0.003,0.003,0.003,0.003,0.003c0.135,0.169,0.248,0.36,0.326,0.564
			C71.108,143.932,71.108,143.96,71.108,143.985z"/>
	</g>
</g>
<g id="keys_row_3">
	<g>
		<path class="st6" d="M63.043,135.053v0.564c0,1.191-0.975,2.166-2.163,2.166h-6.865c-1.191,0-2.166-0.975-2.166-2.166v-0.564
			c0-0.282,0.056-0.555,0.16-0.802c0.078-0.201,0.188-0.389,0.323-0.555c0.003,0,0.003,0,0.003-0.003
			c0.342-0.317,0.922-0.592,1.671-0.802h6.883c0.746,0.21,1.329,0.486,1.668,0.802c0.003,0.003,0.003,0.003,0.003,0.003
			c0.135,0.169,0.248,0.36,0.326,0.564C62.99,134.508,63.043,134.774,63.043,135.053z"/>
		<path class="st7" d="M62.893,134.339c0,1.031-2.439,1.868-5.445,1.868c-3.009,0-5.445-0.837-5.445-1.868
			c0-0.028,0.003-0.06,0.006-0.088c0.078-0.201,0.188-0.389,0.323-0.555c0.003,0,0.003,0,0.003-0.003
			c0.342-0.317,0.922-0.592,1.671-0.802h0.009c0.937-0.263,2.131-0.42,3.432-0.42c1.301,0,2.495,0.157,3.432,0.42h0.009
			c0.746,0.21,1.329,0.486,1.668,0.802c0.003,0.003,0.003,0.003,0.003,0.003c0.135,0.169,0.248,0.36,0.326,0.564
			C62.893,134.285,62.893,134.314,62.893,134.339z"/>
	</g>
	<g>
		<path class="st6" d="M49.27,135.053v0.564c0,1.191-0.975,2.166-2.163,2.166h-6.865c-1.191,0-2.166-0.975-2.166-2.166v-0.564
			c0-0.282,0.056-0.555,0.16-0.802c0.078-0.201,0.188-0.389,0.323-0.555c0.003,0,0.003,0,0.003-0.003
			c0.342-0.317,0.922-0.592,1.671-0.802h6.883c0.746,0.21,1.329,0.486,1.668,0.802c0.003,0.003,0.003,0.003,0.003,0.003
			c0.135,0.169,0.248,0.36,0.326,0.564C49.216,134.508,49.27,134.774,49.27,135.053z"/>
		<path class="st7" d="M49.119,134.339c0,1.031-2.439,1.868-5.445,1.868c-3.009,0-5.445-0.837-5.445-1.868
			c0-0.028,0.003-0.06,0.006-0.088c0.078-0.201,0.188-0.389,0.323-0.555c0.003,0,0.003,0,0.003-0.003
			c0.342-0.317,0.922-0.592,1.671-0.802h0.009c0.937-0.263,2.131-0.42,3.432-0.42c1.301,0,2.495,0.157,3.432,0.42h0.009
			c0.746,0.21,1.329,0.486,1.668,0.802c0.003,0.003,0.003,0.003,0.003,0.003c0.135,0.169,0.248,0.36,0.326,0.564
			C49.119,134.285,49.119,134.314,49.119,134.339z"/>
	</g>
	<g>
		<path class="st6" d="M187.006,135.053v0.564c0,1.191-0.975,2.166-2.163,2.166h-6.865c-1.191,0-2.166-0.975-2.166-2.166v-0.564
			c0-0.282,0.056-0.555,0.16-0.802c0.078-0.201,0.188-0.389,0.323-0.555c0.003,0,0.003,0,0.003-0.003
			c0.342-0.317,0.922-0.592,1.671-0.802h6.883c0.746,0.21,1.329,0.486,1.668,0.802c0.003,0.003,0.003,0.003,0.003,0.003
			c0.135,0.169,0.248,0.36,0.326,0.564C186.953,134.508,187.006,134.774,187.006,135.053z"/>
		<path class="st7" d="M186.856,134.339c0,1.031-2.439,1.868-5.445,1.868c-3.009,0-5.445-0.837-5.445-1.868
			c0-0.028,0.003-0.06,0.006-0.088c0.078-0.201,0.188-0.389,0.323-0.555c0.003,0,0.003,0,0.003-0.003
			c0.342-0.317,0.922-0.592,1.671-0.802h0.009c0.937-0.263,2.131-0.42,3.432-0.42c1.301,0,2.495,0.157,3.432,0.42h0.009
			c0.746,0.21,1.329,0.486,1.668,0.802c0.003,0.003,0.003,0.003,0.003,0.003c0.135,0.169,0.248,0.36,0.326,0.564
			C186.856,134.285,186.856,134.314,186.856,134.339z"/>
	</g>
	<g>
		<path class="st6" d="M173.232,135.053v0.564c0,1.191-0.975,2.166-2.163,2.166h-6.865c-1.191,0-2.166-0.975-2.166-2.166v-0.564
			c0-0.282,0.056-0.555,0.16-0.802c0.078-0.201,0.188-0.389,0.323-0.555c0.003,0,0.003,0,0.003-0.003
			c0.342-0.317,0.922-0.592,1.671-0.802h6.883c0.746,0.21,1.329,0.486,1.668,0.802c0.003,0.003,0.003,0.003,0.003,0.003
			c0.135,0.169,0.248,0.36,0.326,0.564C173.179,134.508,173.232,134.774,173.232,135.053z"/>
		<path class="st7" d="M173.082,134.339c0,1.031-2.439,1.868-5.445,1.868c-3.009,0-5.445-0.837-5.445-1.868
			c0-0.028,0.003-0.06,0.006-0.088c0.078-0.201,0.188-0.389,0.323-0.555c0.003,0,0.003,0,0.003-0.003
			c0.342-0.317,0.922-0.592,1.671-0.802h0.009c0.937-0.263,2.131-0.42,3.432-0.42c1.301,0,2.495,0.157,3.432,0.42h0.009
			c0.746,0.21,1.329,0.486,1.668,0.802c0.003,0.003,0.003,0.003,0.003,0.003c0.135,0.169,0.248,0.36,0.326,0.564
			C173.082,134.285,173.082,134.314,173.082,134.339z"/>
	</g>
	<g>
		<path class="st6" d="M159.459,135.053v0.564c0,1.191-0.975,2.166-2.163,2.166h-6.865c-1.191,0-2.166-0.975-2.166-2.166v-0.564
			c0-0.282,0.056-0.555,0.16-0.802c0.078-0.201,0.188-0.389,0.323-0.555c0.003,0,0.003,0,0.003-0.003
			c0.342-0.317,0.922-0.592,1.671-0.802h6.883c0.746,0.21,1.329,0.486,1.668,0.802c0.003,0.003,0.003,0.003,0.003,0.003
			c0.135,0.169,0.248,0.36,0.326,0.564C159.406,134.508,159.459,134.774,159.459,135.053z"/>
		<path class="st7" d="M159.308,134.339c0,1.031-2.439,1.868-5.445,1.868c-3.009,0-5.445-0.837-5.445-1.868
			c0-0.028,0.003-0.06,0.006-0.088c0.078-0.201,0.188-0.389,0.323-0.555c0.003,0,0.003,0,0.003-0.003
			c0.342-0.317,0.922-0.592,1.671-0.802h0.009c0.937-0.263,2.131-0.42,3.432-0.42c1.301,0,2.495,0.157,3.432,0.42h0.009
			c0.746,0.21,1.329,0.486,1.668,0.802c0.003,0.003,0.003,0.003,0.003,0.003c0.135,0.169,0.248,0.36,0.326,0.564
			C159.308,134.285,159.308,134.314,159.308,134.339z"/>
	</g>
	<g>
		<path class="st6" d="M145.685,135.053v0.564c0,1.191-0.975,2.166-2.163,2.166h-6.865c-1.191,0-2.166-0.975-2.166-2.166v-0.564
			c0-0.282,0.056-0.555,0.16-0.802c0.078-0.201,0.188-0.389,0.323-0.555c0.003,0,0.003,0,0.003-0.003
			c0.342-0.317,0.922-0.592,1.671-0.802h6.883c0.746,0.21,1.329,0.486,1.668,0.802c0.003,0.003,0.003,0.003,0.003,0.003
			c0.135,0.169,0.248,0.36,0.326,0.564C145.632,134.508,145.685,134.774,145.685,135.053z"/>
		<path class="st7" d="M145.535,134.339c0,1.031-2.439,1.868-5.445,1.868c-3.009,0-5.445-0.837-5.445-1.868
			c0-0.028,0.003-0.06,0.006-0.088c0.078-0.201,0.188-0.389,0.323-0.555c0.003,0,0.003,0,0.003-0.003
			c0.342-0.317,0.922-0.592,1.671-0.802h0.009c0.937-0.263,2.131-0.42,3.432-0.42c1.301,0,2.495,0.157,3.432,0.42h0.009
			c0.746,0.21,1.329,0.486,1.668,0.802c0.003,0.003,0.003,0.003,0.003,0.003c0.135,0.169,0.248,0.36,0.326,0.564
			C145.535,134.285,145.535,134.314,145.535,134.339z"/>
	</g>
	<g>
		<path class="st6" d="M131.911,135.053v0.564c0,1.191-0.975,2.166-2.163,2.166h-6.865c-1.191,0-2.166-0.975-2.166-2.166v-0.564
			c0-0.282,0.056-0.555,0.16-0.802c0.078-0.201,0.188-0.389,0.323-0.555c0.003,0,0.003,0,0.003-0.003
			c0.342-0.317,0.922-0.592,1.671-0.802h6.883c0.746,0.21,1.329,0.486,1.668,0.802c0.003,0.003,0.003,0.003,0.003,0.003
			c0.135,0.169,0.248,0.36,0.326,0.564C131.858,134.508,131.911,134.774,131.911,135.053z"/>
		<path class="st7" d="M131.761,134.339c0,1.031-2.439,1.868-5.445,1.868c-3.009,0-5.445-0.837-5.445-1.868
			c0-0.028,0.003-0.06,0.006-0.088c0.078-0.201,0.188-0.389,0.323-0.555c0.003,0,0.003,0,0.003-0.003
			c0.342-0.317,0.922-0.592,1.671-0.802h0.009c0.937-0.263,2.131-0.42,3.432-0.42c1.301,0,2.495,0.157,3.432,0.42h0.009
			c0.746,0.21,1.329,0.486,1.668,0.802c0.003,0.003,0.003,0.003,0.003,0.003c0.135,0.169,0.248,0.36,0.326,0.564
			C131.761,134.285,131.761,134.314,131.761,134.339z"/>
	</g>
	<g>
		<path class="st6" d="M118.138,135.053v0.564c0,1.191-0.975,2.166-2.163,2.166h-6.865c-1.191,0-2.166-0.975-2.166-2.166v-0.564
			c0-0.282,0.056-0.555,0.16-0.802c0.078-0.201,0.188-0.389,0.323-0.555c0.003,0,0.003,0,0.003-0.003
			c0.342-0.317,0.922-0.592,1.671-0.802h6.883c0.746,0.21,1.329,0.486,1.668,0.802c0.003,0.003,0.003,0.003,0.003,0.003
			c0.135,0.169,0.248,0.36,0.326,0.564C118.085,134.508,118.138,134.774,118.138,135.053z"/>
		<path class="st7" d="M117.987,134.339c0,1.031-2.439,1.868-5.445,1.868c-3.009,0-5.445-0.837-5.445-1.868
			c0-0.028,0.003-0.06,0.006-0.088c0.078-0.201,0.188-0.389,0.323-0.555c0.003,0,0.003,0,0.003-0.003
			c0.342-0.317,0.922-0.592,1.671-0.802h0.009c0.937-0.263,2.131-0.42,3.432-0.42c1.301,0,2.495,0.157,3.432,0.42h0.009
			c0.746,0.21,1.329,0.486,1.668,0.802c0.003,0.003,0.003,0.003,0.003,0.003c0.135,0.169,0.248,0.36,0.326,0.564
			C117.987,134.285,117.987,134.314,117.987,134.339z"/>
	</g>
	<g>
		<path class="st6" d="M104.364,135.053v0.564c0,1.191-0.975,2.166-2.163,2.166h-6.865c-1.191,0-2.166-0.975-2.166-2.166v-0.564
			c0-0.282,0.056-0.555,0.16-0.802c0.078-0.201,0.188-0.389,0.323-0.555c0.003,0,0.003,0,0.003-0.003
			c0.342-0.317,0.922-0.592,1.671-0.802h6.883c0.746,0.21,1.329,0.486,1.668,0.802c0.003,0.003,0.003,0.003,0.003,0.003
			c0.135,0.169,0.248,0.36,0.326,0.564C104.311,134.508,104.364,134.774,104.364,135.053z"/>
		<path class="st7" d="M104.214,134.339c0,1.031-2.439,1.868-5.445,1.868c-3.009,0-5.445-0.837-5.445-1.868
			c0-0.028,0.003-0.06,0.006-0.088c0.078-0.201,0.188-0.389,0.323-0.555c0.003,0,0.003,0,0.003-0.003
			c0.342-0.317,0.922-0.592,1.671-0.802h0.009c0.937-0.263,2.131-0.42,3.432-0.42c1.301,0,2.495,0.157,3.432,0.42h0.009
			c0.746,0.21,1.329,0.486,1.668,0.802c0.003,0.003,0.003,0.003,0.003,0.003c0.135,0.169,0.248,0.36,0.326,0.564
			C104.214,134.285,104.214,134.314,104.214,134.339z"/>
	</g>
	<g>
		<path class="st6" d="M90.591,135.053v0.564c0,1.191-0.975,2.166-2.163,2.166h-6.865c-1.191,0-2.166-0.975-2.166-2.166v-0.564
			c0-0.282,0.056-0.555,0.16-0.802c0.078-0.201,0.188-0.389,0.323-0.555c0.003,0,0.003,0,0.003-0.003
			c0.342-0.317,0.922-0.592,1.671-0.802h6.883c0.746,0.21,1.329,0.486,1.668,0.802c0.003,0.003,0.003,0.003,0.003,0.003
			c0.135,0.169,0.248,0.36,0.326,0.564C90.537,134.508,90.591,134.774,90.591,135.053z"/>
		<path class="st7" d="M90.44,134.339c0,1.031-2.439,1.868-5.445,1.868c-3.009,0-5.445-0.837-5.445-1.868
			c0-0.028,0.003-0.06,0.006-0.088c0.078-0.201,0.188-0.389,0.323-0.555c0.003,0,0.003,0,0.003-0.003
			c0.342-0.317,0.922-0.592,1.671-0.802h0.009c0.937-0.263,2.131-0.42,3.432-0.42c1.301,0,2.495,0.157,3.432,0.42h0.009
			c0.746,0.21,1.329,0.486,1.668,0.802c0.003,0.003,0.003,0.003,0.003,0.003c0.135,0.169,0.248,0.36,0.326,0.564
			C90.44,134.285,90.44,134.314,90.44,134.339z"/>
	</g>
	<g>
		<path class="st6" d="M76.817,135.053v0.564c0,1.191-0.975,2.166-2.163,2.166h-6.865c-1.191,0-2.166-0.975-2.166-2.166v-0.564
			c0-0.282,0.056-0.555,0.16-0.802c0.078-0.201,0.188-0.389,0.323-0.555c0.003,0,0.003,0,0.003-0.003
			c0.342-0.317,0.922-0.592,1.671-0.802h6.883c0.746,0.21,1.329,0.486,1.668,0.802c0.003,0.003,0.003,0.003,0.003,0.003
			c0.135,0.169,0.248,0.36,0.326,0.564C76.764,134.508,76.817,134.774,76.817,135.053z"/>
		<path class="st7" d="M76.666,134.339c0,1.031-2.439,1.868-5.445,1.868c-3.009,0-5.445-0.837-5.445-1.868
			c0-0.028,0.003-0.06,0.006-0.088c0.078-0.201,0.188-0.389,0.323-0.555c0.003,0,0.003,0,0.003-0.003
			c0.342-0.317,0.922-0.592,1.671-0.802h0.009c0.937-0.263,2.131-0.42,3.432-0.42c1.301,0,2.495,0.157,3.432,0.42h0.009
			c0.746,0.21,1.329,0.486,1.668,0.802c0.003,0.003,0.003,0.003,0.003,0.003c0.135,0.169,0.248,0.36,0.326,0.564
			C76.666,134.285,76.666,134.314,76.666,134.339z"/>
	</g>
</g>
<g id="keys_row_2">
	<g>
		<path class="st6" d="M57.43,125.13v0.564c0,1.191-0.975,2.166-2.163,2.166h-6.865c-1.191,0-2.166-0.975-2.166-2.166v-0.564
			c0-0.282,0.056-0.555,0.16-0.802c0.078-0.201,0.188-0.389,0.323-0.555c0.003,0,0.003,0,0.003-0.003
			c0.342-0.317,0.922-0.592,1.671-0.802h6.883c0.746,0.21,1.329,0.486,1.668,0.802c0.003,0.003,0.003,0.003,0.003,0.003
			c0.135,0.169,0.248,0.36,0.326,0.564C57.377,124.584,57.43,124.851,57.43,125.13z"/>
		<path class="st7" d="M57.28,124.415c0,1.031-2.439,1.868-5.445,1.868c-3.009,0-5.445-0.837-5.445-1.868
			c0-0.028,0.003-0.06,0.006-0.088c0.078-0.201,0.188-0.389,0.323-0.555c0.003,0,0.003,0,0.003-0.003
			c0.342-0.317,0.922-0.592,1.671-0.802h0.009c0.937-0.263,2.131-0.42,3.432-0.42c1.301,0,2.495,0.157,3.432,0.42h0.009
			c0.746,0.21,1.329,0.486,1.668,0.802c0.003,0.003,0.003,0.003,0.003,0.003c0.135,0.169,0.248,0.36,0.326,0.564
			C57.28,124.362,57.28,124.39,57.28,124.415z"/>
	</g>
	<g>
		<path class="st6" d="M43.636,125.13v0.564c0,1.191-0.975,2.166-2.163,2.166h-6.865c-1.191,0-2.166-0.975-2.166-2.166v-0.564
			c0-0.282,0.056-0.555,0.16-0.802c0.078-0.201,0.188-0.389,0.323-0.555c0.003,0,0.003,0,0.003-0.003
			c0.342-0.317,0.922-0.592,1.671-0.802h6.883c0.746,0.21,1.329,0.486,1.668,0.802c0.003,0.003,0.003,0.003,0.003,0.003
			c0.135,0.169,0.248,0.36,0.326,0.564C43.583,124.584,43.636,124.851,43.636,125.13z"/>
		<path class="st7" d="M43.486,124.415c0,1.031-2.439,1.868-5.445,1.868c-3.009,0-5.445-0.837-5.445-1.868
			c0-0.028,0.003-0.06,0.006-0.088c0.078-0.201,0.188-0.389,0.323-0.555c0.003,0,0.003,0,0.003-0.003
			c0.342-0.317,0.922-0.592,1.671-0.802h0.009c0.937-0.263,2.131-0.42,3.432-0.42c1.301,0,2.495,0.157,3.432,0.42h0.009
			c0.746,0.21,1.329,0.486,1.668,0.802c0.003,0.003,0.003,0.003,0.003,0.003c0.135,0.169,0.248,0.36,0.326,0.564
			C43.486,124.362,43.486,124.39,43.486,124.415z"/>
	</g>
	<g>
		<path class="st6" d="M181.578,125.13v0.564c0,1.191-0.975,2.166-2.163,2.166h-6.865c-1.191,0-2.166-0.975-2.166-2.166v-0.564
			c0-0.282,0.056-0.555,0.16-0.802c0.078-0.201,0.188-0.389,0.323-0.555c0.003,0,0.003,0,0.003-0.003
			c0.342-0.317,0.922-0.592,1.671-0.802h6.883c0.746,0.21,1.329,0.486,1.668,0.802c0.003,0.003,0.003,0.003,0.003,0.003
			c0.135,0.169,0.248,0.36,0.326,0.564C181.525,124.584,181.578,124.851,181.578,125.13z"/>
		<path class="st7" d="M181.428,124.415c0,1.031-2.439,1.868-5.445,1.868c-3.009,0-5.445-0.837-5.445-1.868
			c0-0.028,0.003-0.06,0.006-0.088c0.078-0.201,0.188-0.389,0.323-0.555c0.003,0,0.003,0,0.003-0.003
			c0.342-0.317,0.922-0.592,1.671-0.802h0.009c0.937-0.263,2.131-0.42,3.432-0.42c1.301,0,2.495,0.157,3.432,0.42h0.009
			c0.746,0.21,1.329,0.486,1.668,0.802c0.003,0.003,0.003,0.003,0.003,0.003c0.135,0.169,0.248,0.36,0.326,0.564
			C181.428,124.362,181.428,124.39,181.428,124.415z"/>
	</g>
	<g>
		<path class="st6" d="M195.373,125.13v0.564c0,1.191-0.975,2.166-2.163,2.166h-6.865c-1.191,0-2.166-0.975-2.166-2.166v-0.564
			c0-0.282,0.056-0.555,0.16-0.802c0.078-0.201,0.188-0.389,0.323-0.555c0.003,0,0.003,0,0.003-0.003
			c0.342-0.317,0.922-0.592,1.671-0.802h6.883c0.746,0.21,1.329,0.486,1.668,0.802c0.003,0.003,0.003,0.003,0.003,0.003
			c0.135,0.169,0.248,0.36,0.326,0.564C195.319,124.584,195.373,124.851,195.373,125.13z"/>
		<path class="st7" d="M195.222,124.415c0,1.031-2.439,1.868-5.445,1.868c-3.009,0-5.445-0.837-5.445-1.868
			c0-0.028,0.003-0.06,0.006-0.088c0.078-0.201,0.188-0.389,0.323-0.555c0.003,0,0.003,0,0.003-0.003
			c0.342-0.317,0.922-0.592,1.671-0.802h0.009c0.937-0.263,2.131-0.42,3.432-0.42c1.301,0,2.495,0.157,3.432,0.42h0.009
			c0.746,0.21,1.329,0.486,1.668,0.802c0.003,0.003,0.003,0.003,0.003,0.003c0.135,0.169,0.248,0.36,0.326,0.564
			C195.222,124.362,195.222,124.39,195.222,124.415z"/>
	</g>
	<g>
		<path class="st6" d="M167.784,125.13v0.564c0,1.191-0.975,2.166-2.163,2.166h-6.865c-1.191,0-2.166-0.975-2.166-2.166v-0.564
			c0-0.282,0.056-0.555,0.16-0.802c0.078-0.201,0.188-0.389,0.323-0.555c0.003,0,0.003,0,0.003-0.003
			c0.342-0.317,0.922-0.592,1.671-0.802h6.883c0.746,0.21,1.329,0.486,1.668,0.802c0.003,0.003,0.003,0.003,0.003,0.003
			c0.135,0.169,0.248,0.36,0.326,0.564C167.731,124.584,167.784,124.851,167.784,125.13z"/>
		<path class="st7" d="M167.634,124.415c0,1.031-2.439,1.868-5.445,1.868c-3.009,0-5.445-0.837-5.445-1.868
			c0-0.028,0.003-0.06,0.006-0.088c0.078-0.201,0.188-0.389,0.323-0.555c0.003,0,0.003,0,0.003-0.003
			c0.342-0.317,0.922-0.592,1.671-0.802h0.009c0.937-0.263,2.131-0.42,3.432-0.42s2.495,0.157,3.432,0.42h0.009
			c0.746,0.21,1.329,0.486,1.668,0.802c0.003,0.003,0.003,0.003,0.003,0.003c0.135,0.169,0.248,0.36,0.326,0.564
			C167.634,124.362,167.634,124.39,167.634,124.415z"/>
	</g>
	<g>
		<path class="st6" d="M153.99,125.13v0.564c0,1.191-0.975,2.166-2.163,2.166h-6.865c-1.191,0-2.166-0.975-2.166-2.166v-0.564
			c0-0.282,0.056-0.555,0.16-0.802c0.078-0.201,0.188-0.389,0.323-0.555c0.003,0,0.003,0,0.003-0.003
			c0.342-0.317,0.922-0.592,1.671-0.802h6.883c0.746,0.21,1.329,0.486,1.668,0.802c0.003,0.003,0.003,0.003,0.003,0.003
			c0.135,0.169,0.248,0.36,0.326,0.564C153.937,124.584,153.99,124.851,153.99,125.13z"/>
		<path class="st7" d="M153.839,124.415c0,1.031-2.439,1.868-5.445,1.868c-3.009,0-5.445-0.837-5.445-1.868
			c0-0.028,0.003-0.06,0.006-0.088c0.078-0.201,0.188-0.389,0.323-0.555c0.003,0,0.003,0,0.003-0.003
			c0.342-0.317,0.922-0.592,1.671-0.802h0.009c0.937-0.263,2.131-0.42,3.432-0.42c1.301,0,2.495,0.157,3.432,0.42h0.009
			c0.746,0.21,1.329,0.486,1.668,0.802c0.003,0.003,0.003,0.003,0.003,0.003c0.135,0.169,0.248,0.36,0.326,0.564
			C153.839,124.362,153.839,124.39,153.839,124.415z"/>
	</g>
	<g>
		<path class="st6" d="M140.196,125.13v0.564c0,1.191-0.975,2.166-2.163,2.166h-6.865c-1.191,0-2.166-0.975-2.166-2.166v-0.564
			c0-0.282,0.056-0.555,0.16-0.802c0.078-0.201,0.188-0.389,0.323-0.555c0.003,0,0.003,0,0.003-0.003
			c0.342-0.317,0.922-0.592,1.671-0.802h6.883c0.746,0.21,1.329,0.486,1.668,0.802c0.003,0.003,0.003,0.003,0.003,0.003
			c0.135,0.169,0.248,0.36,0.326,0.564C140.142,124.584,140.196,124.851,140.196,125.13z"/>
		<path class="st7" d="M140.045,124.415c0,1.031-2.439,1.868-5.445,1.868c-3.009,0-5.445-0.837-5.445-1.868
			c0-0.028,0.003-0.06,0.006-0.088c0.078-0.201,0.188-0.389,0.323-0.555c0.003,0,0.003,0,0.003-0.003
			c0.342-0.317,0.922-0.592,1.671-0.802h0.009c0.937-0.263,2.131-0.42,3.432-0.42c1.301,0,2.495,0.157,3.432,0.42h0.009
			c0.746,0.21,1.329,0.486,1.668,0.802c0.003,0.003,0.003,0.003,0.003,0.003c0.135,0.169,0.248,0.36,0.326,0.564
			C140.045,124.362,140.045,124.39,140.045,124.415z"/>
	</g>
	<g>
		<path class="st6" d="M126.401,125.13v0.564c0,1.191-0.975,2.166-2.163,2.166h-6.865c-1.191,0-2.166-0.975-2.166-2.166v-0.564
			c0-0.282,0.056-0.555,0.16-0.802c0.078-0.201,0.188-0.389,0.323-0.555c0.003,0,0.003,0,0.003-0.003
			c0.342-0.317,0.922-0.592,1.671-0.802h6.883c0.746,0.21,1.329,0.486,1.668,0.802c0.003,0.003,0.003,0.003,0.003,0.003
			c0.135,0.169,0.248,0.36,0.326,0.564C126.348,124.584,126.401,124.851,126.401,125.13z"/>
		<path class="st7" d="M126.251,124.415c0,1.031-2.439,1.868-5.445,1.868c-3.009,0-5.445-0.837-5.445-1.868
			c0-0.028,0.003-0.06,0.006-0.088c0.078-0.201,0.188-0.389,0.323-0.555c0.003,0,0.003,0,0.003-0.003
			c0.342-0.317,0.922-0.592,1.671-0.802h0.009c0.937-0.263,2.131-0.42,3.432-0.42c1.301,0,2.495,0.157,3.432,0.42h0.009
			c0.746,0.21,1.329,0.486,1.668,0.802c0.003,0.003,0.003,0.003,0.003,0.003c0.135,0.169,0.248,0.36,0.326,0.564
			C126.251,124.362,126.251,124.39,126.251,124.415z"/>
	</g>
	<g>
		<path class="st6" d="M112.607,125.13v0.564c0,1.191-0.975,2.166-2.163,2.166h-6.865c-1.191,0-2.166-0.975-2.166-2.166v-0.564
			c0-0.282,0.056-0.555,0.16-0.802c0.078-0.201,0.188-0.389,0.323-0.555c0.003,0,0.003,0,0.003-0.003
			c0.342-0.317,0.922-0.592,1.671-0.802h6.883c0.746,0.21,1.329,0.486,1.668,0.802c0.003,0.003,0.003,0.003,0.003,0.003
			c0.135,0.169,0.248,0.36,0.326,0.564C112.554,124.584,112.607,124.851,112.607,125.13z"/>
		<path class="st7" d="M112.457,124.415c0,1.031-2.439,1.868-5.445,1.868c-3.009,0-5.445-0.837-5.445-1.868
			c0-0.028,0.003-0.06,0.006-0.088c0.078-0.201,0.188-0.389,0.323-0.555c0.003,0,0.003,0,0.003-0.003
			c0.342-0.317,0.922-0.592,1.671-0.802h0.009c0.937-0.263,2.131-0.42,3.432-0.42c1.301,0,2.495,0.157,3.432,0.42h0.009
			c0.746,0.21,1.329,0.486,1.668,0.802c0.003,0.003,0.003,0.003,0.003,0.003c0.135,0.169,0.248,0.36,0.326,0.564
			C112.457,124.362,112.457,124.39,112.457,124.415z"/>
	</g>
	<g>
		<path class="st6" d="M98.813,125.13v0.564c0,1.191-0.975,2.166-2.163,2.166h-6.865c-1.191,0-2.166-0.975-2.166-2.166v-0.564
			c0-0.282,0.056-0.555,0.16-0.802c0.078-0.201,0.188-0.389,0.323-0.555c0.003,0,0.003,0,0.003-0.003
			c0.342-0.317,0.922-0.592,1.671-0.802h6.883c0.746,0.21,1.329,0.486,1.668,0.802c0.003,0.003,0.003,0.003,0.003,0.003
			c0.135,0.169,0.248,0.36,0.326,0.564C98.76,124.584,98.813,124.851,98.813,125.13z"/>
		<path class="st7" d="M98.663,124.415c0,1.031-2.439,1.868-5.445,1.868c-3.009,0-5.445-0.837-5.445-1.868
			c0-0.028,0.003-0.06,0.006-0.088c0.078-0.201,0.188-0.389,0.323-0.555c0.003,0,0.003,0,0.003-0.003
			c0.342-0.317,0.922-0.592,1.671-0.802h0.009c0.937-0.263,2.131-0.42,3.432-0.42c1.301,0,2.495,0.157,3.432,0.42h0.009
			c0.746,0.21,1.329,0.486,1.668,0.802c0.003,0.003,0.003,0.003,0.003,0.003c0.135,0.169,0.248,0.36,0.326,0.564
			C98.663,124.362,98.663,124.39,98.663,124.415z"/>
	</g>
	<g>
		<path class="st6" d="M85.019,125.13v0.564c0,1.191-0.975,2.166-2.163,2.166h-6.865c-1.191,0-2.166-0.975-2.166-2.166v-0.564
			c0-0.282,0.056-0.555,0.16-0.802c0.078-0.201,0.188-0.389,0.323-0.555c0.003,0,0.003,0,0.003-0.003
			c0.342-0.317,0.922-0.592,1.671-0.802h6.883c0.746,0.21,1.329,0.486,1.668,0.802c0.003,0.003,0.003,0.003,0.003,0.003
			c0.135,0.169,0.248,0.36,0.326,0.564C84.965,124.584,85.019,124.851,85.019,125.13z"/>
		<path class="st7" d="M84.868,124.415c0,1.031-2.439,1.868-5.445,1.868c-3.009,0-5.445-0.837-5.445-1.868
			c0-0.028,0.003-0.06,0.006-0.088c0.078-0.201,0.188-0.389,0.323-0.555c0.003,0,0.003,0,0.003-0.003
			c0.342-0.317,0.922-0.592,1.671-0.802h0.009c0.937-0.263,2.131-0.42,3.432-0.42c1.301,0,2.495,0.157,3.432,0.42h0.009
			c0.746,0.21,1.329,0.486,1.668,0.802c0.003,0.003,0.003,0.003,0.003,0.003c0.135,0.169,0.248,0.36,0.326,0.564
			C84.868,124.362,84.868,124.39,84.868,124.415z"/>
	</g>
	<g>
		<path class="st6" d="M71.225,125.13v0.564c0,1.191-0.975,2.166-2.163,2.166h-6.865c-1.191,0-2.166-0.975-2.166-2.166v-0.564
			c0-0.282,0.056-0.555,0.16-0.802c0.078-0.201,0.188-0.389,0.323-0.555c0.003,0,0.003,0,0.003-0.003
			c0.342-0.317,0.922-0.592,1.671-0.802h6.883c0.746,0.21,1.329,0.486,1.668,0.802c0.003,0.003,0.003,0.003,0.003,0.003
			c0.135,0.169,0.248,0.36,0.326,0.564C71.171,124.584,71.225,124.851,71.225,125.13z"/>
		<path class="st7" d="M71.074,124.415c0,1.031-2.439,1.868-5.445,1.868c-3.009,0-5.445-0.837-5.445-1.868
			c0-0.028,0.003-0.06,0.006-0.088c0.078-0.201,0.188-0.389,0.323-0.555c0.003,0,0.003,0,0.003-0.003
			c0.342-0.317,0.922-0.592,1.671-0.802h0.009c0.937-0.263,2.131-0.42,3.432-0.42c1.301,0,2.495,0.157,3.432,0.42h0.009
			c0.746,0.21,1.329,0.486,1.668,0.802c0.003,0.003,0.003,0.003,0.003,0.003c0.135,0.169,0.248,0.36,0.326,0.564
			C71.074,124.362,71.074,124.39,71.074,124.415z"/>
	</g>
</g>
<g id="keys_row_1">
	<path class="st8" d="M63.893,115.418v0.564c0,1.191-0.975,2.166-2.163,2.166h-6.865c-1.191,0-2.166-0.975-2.166-2.166v-0.564
		c0-0.282,0.056-0.555,0.16-0.802c0.078-0.201,0.188-0.389,0.323-0.555c0.003,0,0.003,0,0.003-0.003
		c0.342-0.317,0.922-0.592,1.671-0.802h6.883c0.746,0.21,1.329,0.486,1.668,0.802c0.003,0.003,0.003,0.003,0.003,0.003
		c0.135,0.169,0.248,0.36,0.326,0.564C63.839,114.872,63.893,115.139,63.893,115.418z"/>
	<path class="st9" d="M63.742,114.703c0,1.031-2.439,1.868-5.445,1.868c-3.009,0-5.445-0.837-5.445-1.868
		c0-0.028,0.003-0.06,0.006-0.088c0.078-0.201,0.188-0.389,0.323-0.555c0.003,0,0.003,0,0.003-0.003
		c0.342-0.317,0.922-0.592,1.671-0.802h0.009c0.937-0.263,2.131-0.42,3.432-0.42c1.301,0,2.495,0.157,3.432,0.42h0.009
		c0.746,0.21,1.329,0.486,1.668,0.802c0.003,0.003,0.003,0.003,0.003,0.003c0.135,0.169,0.248,0.36,0.326,0.564
		C63.742,114.65,63.742,114.678,63.742,114.703z"/>
	<g>
		<path class="st6" d="M57.51,115.418v0.564c0,1.191-0.975,2.166-2.163,2.166h-6.865c-1.191,0-2.166-0.975-2.166-2.166v-0.564
			c0-0.282,0.056-0.555,0.16-0.802c0.078-0.201,0.188-0.389,0.323-0.555c0.003,0,0.003,0,0.003-0.003
			c0.342-0.317,0.922-0.592,1.671-0.802h6.883c0.746,0.21,1.329,0.486,1.668,0.802c0.003,0.003,0.003,0.003,0.003,0.003
			c0.135,0.169,0.248,0.36,0.326,0.564C57.457,114.872,57.51,115.139,57.51,115.418z"/>
		<path class="st7" d="M57.36,114.703c0,1.031-2.439,1.868-5.445,1.868c-3.009,0-5.445-0.837-5.445-1.868
			c0-0.028,0.003-0.06,0.006-0.088c0.078-0.201,0.188-0.389,0.323-0.555c0.003,0,0.003,0,0.003-0.003
			c0.342-0.317,0.922-0.592,1.671-0.802h0.009c0.937-0.263,2.131-0.42,3.432-0.42c1.301,0,2.495,0.157,3.432,0.42h0.009
			c0.746,0.21,1.329,0.486,1.668,0.802c0.003,0.003,0.003,0.003,0.003,0.003c0.135,0.169,0.248,0.36,0.326,0.564
			C57.36,114.65,57.36,114.678,57.36,114.703z"/>
	</g>
	<g>
		<path class="st6" d="M181.247,115.418v0.564c0,1.191-0.975,2.166-2.163,2.166h-6.865c-1.191,0-2.166-0.975-2.166-2.166v-0.564
			c0-0.282,0.056-0.555,0.16-0.802c0.078-0.201,0.188-0.389,0.323-0.555c0.003,0,0.003,0,0.003-0.003
			c0.342-0.317,0.922-0.592,1.671-0.802h6.883c0.746,0.21,1.329,0.486,1.668,0.802c0.003,0.003,0.003,0.003,0.003,0.003
			c0.135,0.169,0.248,0.36,0.326,0.564C181.194,114.872,181.247,115.139,181.247,115.418z"/>
		<path class="st7" d="M181.096,114.703c0,1.031-2.439,1.868-5.445,1.868c-3.009,0-5.445-0.837-5.445-1.868
			c0-0.028,0.003-0.06,0.006-0.088c0.078-0.201,0.188-0.389,0.323-0.555c0.003,0,0.003,0,0.003-0.003
			c0.342-0.317,0.922-0.592,1.671-0.802h0.009c0.937-0.263,2.131-0.42,3.432-0.42c1.301,0,2.495,0.157,3.432,0.42h0.009
			c0.746,0.21,1.329,0.486,1.668,0.802c0.003,0.003,0.003,0.003,0.003,0.003c0.135,0.169,0.248,0.36,0.326,0.564
			C181.096,114.65,181.096,114.678,181.096,114.703z"/>
	</g>
	<g>
		<path class="st6" d="M167.498,115.418v0.564c0,1.191-0.975,2.166-2.163,2.166h-6.865c-1.191,0-2.166-0.975-2.166-2.166v-0.564
			c0-0.282,0.056-0.555,0.16-0.802c0.078-0.201,0.188-0.389,0.323-0.555c0.003,0,0.003,0,0.003-0.003
			c0.342-0.317,0.922-0.592,1.671-0.802h6.883c0.746,0.21,1.329,0.486,1.668,0.802c0.003,0.003,0.003,0.003,0.003,0.003
			c0.135,0.169,0.248,0.36,0.326,0.564C167.445,114.872,167.498,115.139,167.498,115.418z"/>
		<path class="st7" d="M167.348,114.703c0,1.031-2.439,1.868-5.445,1.868c-3.009,0-5.445-0.837-5.445-1.868
			c0-0.028,0.003-0.06,0.006-0.088c0.078-0.201,0.188-0.389,0.323-0.555c0.003,0,0.003,0,0.003-0.003
			c0.342-0.317,0.922-0.592,1.671-0.802h0.009c0.937-0.263,2.131-0.42,3.432-0.42c1.301,0,2.495,0.157,3.432,0.42h0.009
			c0.746,0.21,1.329,0.486,1.668,0.802c0.003,0.003,0.003,0.003,0.003,0.003c0.135,0.169,0.248,0.36,0.326,0.564
			C167.348,114.65,167.348,114.678,167.348,114.703z"/>
	</g>
	<g>
		<path class="st6" d="M153.75,115.418v0.564c0,1.191-0.975,2.166-2.163,2.166h-6.865c-1.191,0-2.166-0.975-2.166-2.166v-0.564
			c0-0.282,0.056-0.555,0.16-0.802c0.078-0.201,0.188-0.389,0.323-0.555c0.003,0,0.003,0,0.003-0.003
			c0.342-0.317,0.922-0.592,1.671-0.802h6.883c0.746,0.21,1.329,0.486,1.668,0.802c0.003,0.003,0.003,0.003,0.003,0.003
			c0.135,0.169,0.248,0.36,0.326,0.564C153.697,114.872,153.75,115.139,153.75,115.418z"/>
		<path class="st7" d="M153.599,114.703c0,1.031-2.439,1.868-5.445,1.868c-3.009,0-5.445-0.837-5.445-1.868
			c0-0.028,0.003-0.06,0.006-0.088c0.078-0.201,0.188-0.389,0.323-0.555c0.003,0,0.003,0,0.003-0.003
			c0.342-0.317,0.922-0.592,1.671-0.802h0.009c0.937-0.263,2.131-0.42,3.432-0.42c1.301,0,2.495,0.157,3.432,0.42h0.009
			c0.746,0.21,1.329,0.486,1.668,0.802c0.003,0.003,0.003,0.003,0.003,0.003c0.135,0.169,0.248,0.36,0.326,0.564
			C153.599,114.65,153.599,114.678,153.599,114.703z"/>
	</g>
	<g>
		<path class="st6" d="M140.001,115.418v0.564c0,1.191-0.975,2.166-2.163,2.166h-6.865c-1.191,0-2.166-0.975-2.166-2.166v-0.564
			c0-0.282,0.056-0.555,0.16-0.802c0.078-0.201,0.188-0.389,0.323-0.555c0.003,0,0.003,0,0.003-0.003
			c0.342-0.317,0.922-0.592,1.671-0.802h6.883c0.746,0.21,1.329,0.486,1.668,0.802c0.003,0.003,0.003,0.003,0.003,0.003
			c0.135,0.169,0.248,0.36,0.326,0.564C139.948,114.872,140.001,115.139,140.001,115.418z"/>
		<path class="st7" d="M139.851,114.703c0,1.031-2.439,1.868-5.445,1.868c-3.009,0-5.445-0.837-5.445-1.868
			c0-0.028,0.003-0.06,0.006-0.088c0.078-0.201,0.188-0.389,0.323-0.555c0.003,0,0.003,0,0.003-0.003
			c0.342-0.317,0.922-0.592,1.671-0.802h0.009c0.937-0.263,2.131-0.42,3.432-0.42c1.301,0,2.495,0.157,3.432,0.42h0.009
			c0.746,0.21,1.329,0.486,1.668,0.802c0.003,0.003,0.003,0.003,0.003,0.003c0.135,0.169,0.248,0.36,0.326,0.564
			C139.851,114.65,139.851,114.678,139.851,114.703z"/>
	</g>
	<g>
		<path class="st6" d="M126.253,115.418v0.564c0,1.191-0.975,2.166-2.163,2.166h-6.865c-1.191,0-2.166-0.975-2.166-2.166v-0.564
			c0-0.282,0.056-0.555,0.16-0.802c0.078-0.201,0.188-0.389,0.323-0.555c0.003,0,0.003,0,0.003-0.003
			c0.342-0.317,0.922-0.592,1.671-0.802h6.883c0.746,0.21,1.329,0.486,1.668,0.802c0.003,0.003,0.003,0.003,0.003,0.003
			c0.135,0.169,0.248,0.36,0.326,0.564C126.2,114.872,126.253,115.139,126.253,115.418z"/>
		<path class="st7" d="M126.102,114.703c0,1.031-2.439,1.868-5.445,1.868c-3.009,0-5.445-0.837-5.445-1.868
			c0-0.028,0.003-0.06,0.006-0.088c0.078-0.201,0.188-0.389,0.323-0.555c0.003,0,0.003,0,0.003-0.003
			c0.342-0.317,0.922-0.592,1.671-0.802h0.009c0.937-0.263,2.131-0.42,3.432-0.42c1.301,0,2.495,0.157,3.432,0.42h0.009
			c0.746,0.21,1.329,0.486,1.668,0.802c0.003,0.003,0.003,0.003,0.003,0.003c0.135,0.169,0.248,0.36,0.326,0.564
			C126.102,114.65,126.102,114.678,126.102,114.703z"/>
	</g>
	<g>
		<path class="st6" d="M112.504,115.418v0.564c0,1.191-0.975,2.166-2.163,2.166h-6.865c-1.191,0-2.166-0.975-2.166-2.166v-0.564
			c0-0.282,0.056-0.555,0.16-0.802c0.078-0.201,0.188-0.389,0.323-0.555c0.003,0,0.003,0,0.003-0.003
			c0.342-0.317,0.922-0.592,1.671-0.802h6.883c0.746,0.21,1.329,0.486,1.668,0.802c0.003,0.003,0.003,0.003,0.003,0.003
			c0.135,0.169,0.248,0.36,0.326,0.564C112.451,114.872,112.504,115.139,112.504,115.418z"/>
		<path class="st7" d="M112.354,114.703c0,1.031-2.439,1.868-5.445,1.868c-3.009,0-5.445-0.837-5.445-1.868
			c0-0.028,0.003-0.06,0.006-0.088c0.078-0.201,0.188-0.389,0.323-0.555c0.003,0,0.003,0,0.003-0.003
			c0.342-0.317,0.922-0.592,1.671-0.802h0.009c0.937-0.263,2.131-0.42,3.432-0.42c1.301,0,2.495,0.157,3.432,0.42h0.009
			c0.746,0.21,1.329,0.486,1.668,0.802c0.003,0.003,0.003,0.003,0.003,0.003c0.135,0.169,0.248,0.36,0.326,0.564
			C112.354,114.65,112.354,114.678,112.354,114.703z"/>
	</g>
	<g>
		<path class="st6" d="M98.756,115.418v0.564c0,1.191-0.975,2.166-2.163,2.166h-6.865c-1.191,0-2.166-0.975-2.166-2.166v-0.564
			c0-0.282,0.056-0.555,0.16-0.802c0.078-0.201,0.188-0.389,0.323-0.555c0.003,0,0.003,0,0.003-0.003
			c0.342-0.317,0.922-0.592,1.671-0.802h6.883c0.746,0.21,1.329,0.486,1.668,0.802c0.003,0.003,0.003,0.003,0.003,0.003
			c0.135,0.169,0.248,0.36,0.326,0.564C98.703,114.872,98.756,115.139,98.756,115.418z"/>
		<path class="st7" d="M98.605,114.703c0,1.031-2.439,1.868-5.445,1.868c-3.009,0-5.445-0.837-5.445-1.868
			c0-0.028,0.003-0.06,0.006-0.088c0.078-0.201,0.188-0.389,0.323-0.555c0.003,0,0.003,0,0.003-0.003
			c0.342-0.317,0.922-0.592,1.671-0.802h0.009c0.937-0.263,2.131-0.42,3.432-0.42c1.301,0,2.495,0.157,3.432,0.42h0.009
			c0.746,0.21,1.329,0.486,1.668,0.802c0.003,0.003,0.003,0.003,0.003,0.003c0.135,0.169,0.248,0.36,0.326,0.564
			C98.605,114.65,98.605,114.678,98.605,114.703z"/>
	</g>
	<g>
		<path class="st6" d="M85.007,115.418v0.564c0,1.191-0.975,2.166-2.163,2.166H75.98c-1.191,0-2.166-0.975-2.166-2.166v-0.564
			c0-0.282,0.056-0.555,0.16-0.802c0.078-0.201,0.188-0.389,0.323-0.555c0.003,0,0.003,0,0.003-0.003
			c0.342-0.317,0.922-0.592,1.671-0.802h6.883c0.746,0.21,1.329,0.486,1.668,0.802c0.003,0.003,0.003,0.003,0.003,0.003
			c0.135,0.169,0.248,0.36,0.326,0.564C84.954,114.872,85.007,115.139,85.007,115.418z"/>
		<path class="st7" d="M84.857,114.703c0,1.031-2.439,1.868-5.445,1.868c-3.009,0-5.445-0.837-5.445-1.868
			c0-0.028,0.003-0.06,0.006-0.088c0.078-0.201,0.188-0.389,0.323-0.555c0.003,0,0.003,0,0.003-0.003
			c0.342-0.317,0.922-0.592,1.671-0.802h0.009c0.937-0.263,2.131-0.42,3.432-0.42c1.301,0,2.495,0.157,3.432,0.42h0.009
			c0.746,0.21,1.329,0.486,1.668,0.802c0.003,0.003,0.003,0.003,0.003,0.003c0.135,0.169,0.248,0.36,0.326,0.564
			C84.857,114.65,84.857,114.678,84.857,114.703z"/>
	</g>
	<g>
		<path class="st6" d="M71.259,115.418v0.564c0,1.191-0.975,2.166-2.163,2.166h-6.865c-1.191,0-2.166-0.975-2.166-2.166v-0.564
			c0-0.282,0.056-0.555,0.16-0.802c0.078-0.201,0.188-0.389,0.323-0.555c0.003,0,0.003,0,0.003-0.003
			c0.342-0.317,0.922-0.592,1.671-0.802h6.883c0.746,0.21,1.329,0.486,1.668,0.802c0.003,0.003,0.003,0.003,0.003,0.003
			c0.135,0.169,0.248,0.36,0.326,0.564C71.206,114.872,71.259,115.139,71.259,115.418z"/>
		<path class="st7" d="M71.108,114.703c0,1.031-2.439,1.868-5.445,1.868c-3.009,0-5.445-0.837-5.445-1.868
			c0-0.028,0.003-0.06,0.006-0.088c0.078-0.201,0.188-0.389,0.323-0.555c0.003,0,0.003,0,0.003-0.003
			c0.342-0.317,0.922-0.592,1.671-0.802h0.009c0.937-0.263,2.131-0.42,3.432-0.42c1.301,0,2.495,0.157,3.432,0.42h0.009
			c0.746,0.21,1.329,0.486,1.668,0.802c0.003,0.003,0.003,0.003,0.003,0.003c0.135,0.169,0.248,0.36,0.326,0.564
			C71.108,114.65,71.108,114.678,71.108,114.703z"/>
	</g>
</g>
<g id="space_key">
	<path class="st2" d="M159.319,163.207H68.513c-1.42,0-2.582-1.162-2.582-2.582v-7.922c0-1.42,1.162-2.582,2.582-2.582h90.806
		c1.42,0,2.582,1.162,2.582,2.582v7.922C161.901,162.045,160.739,163.207,159.319,163.207z"/>
	<path class="st6" d="M160.916,153.27v7.54c0,0.29-0.07,0.57-0.21,0.81c-0.04,0.08-0.09,0.16-0.14,0.23
		c-0.25,0.33-0.62,0.57-1.03,0.65c-0.12,0.03-0.23,0.04-0.35,0.04h-90.54c-0.12,0-0.23-0.01-0.35-0.04
		c-0.78-0.16-1.38-0.86-1.38-1.69v-7.54c0-0.04,0-0.07,0.01-0.11l0.83,3.04c0,0.33,0.21,0.63,0.54,0.83v-5.45
		c0.12-0.03,0.23-0.04,0.35-0.04h90.54c0.12,0,0.24,0.01,0.35,0.04v5.45c0.33-0.2,0.54-0.5,0.54-0.83l0.83-3.04
		C160.916,153.2,160.916,153.23,160.916,153.27z"/>
	<path class="st7" d="M160.916,153.11l-0.01,0.04v0.01l-0.83,3.04c0,0.61-0.69,1.1-1.54,1.1h-89.24c-0.38,0-0.73-0.1-1-0.27
		c-0.33-0.2-0.54-0.5-0.54-0.83l-0.83-3.04v-0.01l-0.01-0.04c0-0.79,0.61-1.46,1.38-1.55c0.06-0.02,0.12-0.02,0.19-0.02h90.86
		C160.206,151.54,160.916,152.25,160.916,153.11z"/>
	<g id="Layer_12">
		<path class="st10" d="M68.296,157.03v5.47c-0.78-0.16-1.38-0.86-1.38-1.69v-7.7l0.01,0.04v0.01l0.83,3.04
			C67.756,156.53,67.966,156.83,68.296,157.03z"/>
		<path class="st10" d="M160.916,153.11v7.7c0,0.29-0.07,0.57-0.21,0.81c-0.04,0.08-0.09,0.16-0.14,0.23
			c-0.25,0.33-0.62,0.57-1.03,0.65v-5.47c0.33-0.2,0.54-0.5,0.54-0.83l0.83-3.04v-0.01L160.916,153.11z"/>
	</g>
</g>
<g id="label_1_">
	<g id="Layer_17">
		<path class="st11" d="M126.668,107.796h-25.374c-2.053,0-3.733-1.68-3.733-3.733v0c0-2.053,1.68-3.733,3.733-3.733h25.374
			c2.053,0,3.733,1.68,3.733,3.733v0C130.401,106.116,128.721,107.796,126.668,107.796z"/>
	</g>
	<g>
		<path class="st12" d="M103.065,105.845h-0.068v-3.688h1.557c0.264,0,0.46,0.074,0.588,0.222c0.127,0.148,0.19,0.334,0.19,0.558
			v0.471c0,0.21-0.027,0.382-0.082,0.516c-0.054,0.135-0.163,0.227-0.327,0.277h0.075c0.277,0,0.484,0.062,0.621,0.188
			s0.205,0.307,0.205,0.543v0.915h-0.068v-0.915c0-0.223-0.062-0.391-0.185-0.502s-0.314-0.167-0.573-0.167h-1.933V105.845z
			 M104.554,102.225h-1.489v1.975h1.489c0.282,0,0.472-0.068,0.567-0.205s0.143-0.33,0.143-0.581v-0.478
			c0-0.21-0.058-0.381-0.174-0.513S104.795,102.225,104.554,102.225z"/>
		<path class="st12" d="M110.722,105.012c0,0.273-0.098,0.495-0.294,0.666c-0.195,0.171-0.56,0.256-1.093,0.256
			c-0.532,0-0.895-0.085-1.086-0.256s-0.287-0.393-0.287-0.666v-2.015c0-0.273,0.096-0.496,0.287-0.667
			c0.191-0.17,0.554-0.256,1.086-0.256c0.533,0,0.897,0.086,1.093,0.256c0.196,0.171,0.294,0.394,0.294,0.667V105.012z
			 M108.03,105.012c0,0.255,0.091,0.461,0.273,0.618c0.182,0.157,0.526,0.235,1.031,0.235c0.506,0,0.852-0.078,1.038-0.235
			c0.188-0.157,0.28-0.363,0.28-0.618v-2.015c0-0.256-0.093-0.462-0.28-0.619c-0.187-0.156-0.532-0.235-1.038-0.235
			c-0.505,0-0.85,0.079-1.031,0.235c-0.183,0.157-0.273,0.363-0.273,0.619V105.012z"/>
		<path class="st12" d="M114.357,104.677h-0.048v1.168h-0.068v-1.168h-0.068c-0.1,0-0.189-0.022-0.27-0.068
			c-0.08-0.045-0.156-0.118-0.229-0.218l-0.663-0.923c-0.05-0.068-0.079-0.147-0.089-0.239c-0.009-0.091-0.014-0.187-0.014-0.286
			v-0.786h0.068v0.786c0,0.095,0.005,0.186,0.014,0.27s0.036,0.16,0.082,0.229l0.663,0.923c0.059,0.091,0.127,0.154,0.204,0.19
			c0.078,0.037,0.155,0.055,0.232,0.055h0.185c0.087,0,0.165-0.019,0.236-0.058c0.07-0.039,0.14-0.102,0.208-0.188l0.683-0.923
			c0.046-0.059,0.073-0.133,0.082-0.222c0.01-0.089,0.014-0.182,0.014-0.276v-0.786h0.068v0.786c0,0.1-0.003,0.194-0.01,0.283
			s-0.038,0.17-0.093,0.242l-0.683,0.923c-0.073,0.1-0.149,0.173-0.229,0.218C114.554,104.654,114.461,104.677,114.357,104.677z"/>
		<path class="st12" d="M120.333,105.845v-1.175h-2.664v1.175h-0.068v-1.454c0-0.128,0.011-0.245,0.031-0.353
			c0.021-0.106,0.049-0.21,0.085-0.311l0.438-1.12c0.05-0.128,0.106-0.234,0.171-0.321c0.063-0.087,0.173-0.13,0.327-0.13h0.67
			c0.15,0,0.256,0.043,0.317,0.13s0.12,0.196,0.175,0.328l0.471,1.113c0.037,0.101,0.065,0.204,0.086,0.311
			c0.021,0.107,0.03,0.225,0.03,0.353v1.454H120.333z M117.669,104.391v0.211h2.664v-0.211c0-0.123-0.01-0.237-0.03-0.342
			s-0.047-0.203-0.079-0.294l-0.471-1.113c-0.051-0.118-0.103-0.218-0.157-0.298c-0.055-0.079-0.146-0.119-0.273-0.119h-0.67
			c-0.136,0-0.231,0.04-0.286,0.119c-0.055,0.08-0.105,0.177-0.15,0.291l-0.438,1.12c-0.032,0.091-0.058,0.189-0.078,0.294
			S117.669,104.268,117.669,104.391z"/>
		<path class="st12" d="M122.711,105.845v-3.688h0.068v3.62h2.377v-1.346h0.068v1.414H122.711z"/>
	</g>
	<g id="Layer_18">
		<circle class="st11" cx="127.891" cy="104.063" r="0.593"/>
		<circle class="st11" cx="100.125" cy="104.086" r="0.593"/>
	</g>
	<g>
	</g>
	<g>
	</g>
	<g>
	</g>
	<g>
	</g>
	<g>
	</g>
</g>
</svg>
